<svg version="1.1" xmlns="http://www.w3.org/2000/svg" xmlns:xlink="http://www.w3.org/1999/xlink" width="38.5" height="38" viewBox="0,0,38.5,38"><g transform="translate(-168.25,-314.5)"><g data-paper-data="{&quot;isPaintingLayer&quot;:true}" fill-rule="nonzero" stroke-linejoin="miter" stroke-miterlimit="10" stroke-dasharray="" stroke-dashoffset="0" style="mix-blend-mode: normal"><path d="M187.57939,333.57473c0.09,4.62 1.49,7.99 0.43,7.18c-3.73,-2.86 -5.03,-3.12 -6.11,-3.08c-0.13,0.57 -0.32,1.05 -0.58,1.36c-0.61,0.73 -1.56,0.5 -2.16,-0.18c-0.42,-0.47 -0.71,-1.2 -0.88,-2.04c-0.19,-0.42 -0.23,-1.07 -0.2,-1.66c-0.07,-1.84 0.29,-3.72 0.97,-4.34c0.74,-0.66 1.67,0.3 1.73,0.37c0.37,0.39 0.66,0.97 0.87,1.64c1.9,-0.87 1.72,-2.1 5.22,-5.36c1.46,-1.36 0.62,1.51 0.71,6.13z" fill="#000000" stroke="none" stroke-width="0" stroke-linecap="butt"/><path d="M186.57939,332.57473c0.09,4.62 1.49,7.99 0.43,7.18c-3.73,-2.86 -5.03,-3.12 -6.11,-3.08c-0.13,0.57 -0.32,1.05 -0.58,1.36c-0.61,0.73 -1.56,0.5 -2.16,-0.18c-0.42,-0.47 -0.71,-1.2 -0.88,-2.04c-0.19,-0.42 -0.23,-1.07 -0.2,-1.66c-0.07,-1.84 0.29,-3.72 0.97,-4.34c0.74,-0.66 1.67,0.3 1.73,0.37c0.37,0.39 0.66,0.97 0.87,1.64c1.9,-0.87 1.72,-2.1 5.22,-5.36c1.46,-1.36 0.62,1.51 0.71,6.13z" fill="#ffffff" stroke="none" stroke-width="0" stroke-linecap="butt"/><path d="M191.10939,329.65473c0.13,0.07 1.75,1.47 1.73,4.24c-0.02,2.63 -1.09,4.36 -1.27,4.47" fill="none" stroke="#000000" stroke-width="3" stroke-linecap="round"/><path d="M190.10939,328.65473c0.13,0.07 1.75,1.47 1.73,4.24c-0.02,2.63 -1.09,4.36 -1.27,4.47" fill="none" stroke="#ffffff" stroke-width="3" stroke-linecap="round"/><path d="M196.19939,327.12473c0.13,0.11 1.75,2.12 1.73,6.14c-0.02,3.8 -1.09,6.31 -1.27,6.47" fill="none" stroke="#000000" stroke-width="3" stroke-linecap="round"/><path d="M195.19939,326.12473c0.13,0.11 1.75,2.12 1.73,6.14c-0.02,3.8 -1.09,6.31 -1.27,6.47" fill="none" stroke="#ffffff" stroke-width="3" stroke-linecap="round"/><path d="M206.75,333.5c0,10.49341 -8.61852,19 -19.25,19c-10.63148,0 -19.25,-8.50659 -19.25,-19c0,-10.49341 8.61852,-19 19.25,-19c10.63148,0 19.25,8.50659 19.25,19z" fill="none" stroke="none" stroke-width="none" stroke-linecap="butt"/></g></g></svg>