<svg version="1.1" xmlns="http://www.w3.org/2000/svg" xmlns:xlink="http://www.w3.org/1999/xlink" width="275.41684" height="127.03" viewBox="0,0,275.41684,127.03"><g transform="translate(-53.95329,-123.22441)"><g data-paper-data="{&quot;isPaintingLayer&quot;:true}" fill-rule="nonzero" stroke="none" stroke-width="0" stroke-linecap="butt" stroke-linejoin="miter" stroke-miterlimit="10" stroke-dasharray="" stroke-dashoffset="0" style="mix-blend-mode: normal"><g><path d="M323.60329,174.97441c3.5,4.27 2.88,10.59 -1.39,14.09c-1.61,1.32 -3.61,2.1 -5.68,2.24c-0.24,0.27 -0.49,0.52 -0.77,0.76c-1.69,1.46 -3.82,2.27 -6,2.27c-2.85,0 -5.52,-1.33 -7.32,-3.66l-10.35,-13.34v3.99c0,4.53 -3.03,8.36 -7.17,9.59c-1.73,2.09 -4.27,3.42 -7.1,3.42v0c-3.86,0 -7.18,-2.46 -8.65,-5.97c-0.78,0.78 -1.69,1.43 -2.7,1.93c-1.72,2.44 -4.47,4.03 -7.57,4.03c-4.89,0 -8.91,-3.96 -9.39,-9.01c-0.32,0.37 -0.66,0.72 -1.01,1.06c-0.05,0.04 -0.1,0.09 -0.14,0.13c-0.67,1.02 -1.43,1.98 -2.29,2.87c-2.93,3.03 -8.3,6.63 -17.25,6.63c-0.28,0 -0.57,-0.01 -0.86,-0.01c-9.41,-0.27 -15.82,-3.88 -20.87,-7.38c-0.38,-0.27 -0.73,-0.57 -1.07,-0.88c-0.6,1.77 -1.66,3.32 -3.1,4.5c-1.68,1.37 -3.68,2.09 -5.79,2.09c-2.96,0 -5.69,-1.42 -7.49,-3.89l-10.39,-14.21h-4.54v8.09c0,5.52 -4.24,10.01 -9.46,10.01c-2.53,0 -4.9,-1.04 -6.69,-2.93c-0.58,-0.61 -1.06,-1.29 -1.46,-2.01c-0.03,-0.03 -0.07,-0.05 -0.1,-0.08c-1.64,3 -4.69,5.02 -8.19,5.02h-27.47c-2.76,0 -5.23,-1.26 -6.96,-3.25c-4.48,-1 -7.83,-4.99 -7.83,-9.76v-8.27c-3.96,3.54 -9.06,5.68 -14.63,5.68h-7.53v5.59c0,5.52 -4.24,10.01 -9.46,10.01c-2.65,0 -5.05,-1.16 -6.77,-3.03c-0.23,0.01 -0.45,0.03 -0.68,0.03c-5.52,0 -10.01,-4.49 -10.01,-10.01v-43.58c0,-5.52 4.49,-10.01 10.01,-10.01h17.97c5.02,0 9.69,1.56 13.55,4.21c2.83,0.99 5.41,2.54 7.63,4.55c0.61,-4.93 4.82,-8.76 9.92,-8.76h29.06c3.58,0 6.71,1.91 8.48,4.75c0.1,0.07 0.2,0.14 0.29,0.21c1.77,-3.04 5.02,-4.96 8.61,-4.96h20.98c9.66,0 17.93,6.05 21.22,14.56c2.37,-9.83 10.51,-15.55 22.7,-15.55c0.87,0 1.77,0.03 2.76,0.11h0.19c4.76,0.35 9.95,2 15.88,5.07c1.73,0.89 3.07,2.23 3.99,3.79c0.71,-1.29 1.68,-2.4 2.84,-3.24c1.76,-2.84 4.91,-4.74 8.49,-4.74c4.05,0 7.54,2.42 9.11,5.89c0.89,-0.93 1.95,-1.67 3.13,-2.17c1.84,-2.26 4.64,-3.72 7.78,-3.72c5.52,0 10.01,4.49 10.01,10.01v4.8l7.98,-8.75c1.49,-1.64 3.42,-2.66 5.51,-2.96l0.04,-0.04c1.91,-1.97 4.47,-3.06 7.21,-3.06c2.61,0 5.07,0.99 6.95,2.8c1.93,1.86 3.01,4.36 3.06,7.03c0.05,2.67 -0.94,5.21 -2.8,7.13l-11.5,11.92l15.07,18.36zM148.45329,171.72441c1.76,0.53 3.31,1.52 4.52,2.84v-7.1c-1.03,1.89 -2.61,3.4 -4.52,4.26zM152.98329,157.56441v-7.89c-1.27,0.67 -2.68,1.06 -4.19,1.06h-2.65c1.42,0.78 2.63,1.9 3.53,3.24c1.36,0.88 2.5,2.12 3.3,3.59zM249.40329,158.48441v-10.82c-0.35,0.37 -0.73,0.71 -1.13,1.02c-1.27,2.41 -3.38,4.11 -5.84,4.79c1.15,0.57 2.22,1.19 3.21,1.85c1.48,0.99 2.72,2.05 3.77,3.15zM203.40329,173.60441c0.24,-0.64 0.56,-1.26 0.95,-1.86c1.86,-2.83 4.99,-4.52 8.38,-4.52c0.05,0 0.1,0.01 0.15,0.01c-3.21,-2.23 -5.56,-5.08 -6.96,-8.37c-0.95,4.01 -2.92,7.72 -5.67,10.67zM224.09329,171.92441c0.09,0.04 0.19,0.07 0.28,0.1l-0.09,-0.05c-0.06,-0.02 -0.12,-0.03 -0.19,-0.05zM225.38329,172.22441h-0.4c0.82,0.24 1.68,0.42 2.57,0.55c-0.66,-0.18 -1.38,-0.37 -2.18,-0.55z" fill="#ffffff"/><path d="M228.79329,199.50441c-0.31,0 -0.63,0 -0.95,-0.01c-9.07,-0.26 -15.56,-3.31 -20.71,-6.62c-0.6,0.76 -1.28,1.46 -2.03,2.07c-2.31,1.89 -5.07,2.88 -8,2.88c-4.08,0 -7.84,-1.94 -10.32,-5.32l-8.6,-11.77v3.58c0,7.45 -5.81,13.51 -12.96,13.51c-3.04,0 -5.92,-1.08 -8.23,-3.07c-2.28,1.95 -5.18,3.07 -8.2,3.07h-27.47c-3.27,0 -6.43,-1.31 -8.82,-3.63c-5.55,-1.75 -9.47,-7 -9.47,-12.88v-1.71c-3.46,1.71 -7.26,2.62 -11.13,2.62h-4.03v2.09c0,7.45 -5.82,13.51 -12.96,13.51c-3.01,0 -5.86,-1.06 -8.16,-3.02c-7.12,-0.37 -12.8,-6.28 -12.8,-13.49v-43.58c0,-7.45 6.06,-13.51 13.51,-13.51h17.97c5.41,0 10.64,1.58 15.15,4.56c1.51,0.56 2.96,1.25 4.33,2.08c2.37,-4 6.73,-6.65 11.63,-6.65h29.06c3.24,0 6.3,1.15 8.7,3.19c2.4,-2.03 5.48,-3.19 8.69,-3.19h20.98c8.17,0 15.81,3.89 20.71,10.17c4.42,-7.17 12.53,-11.16 23.21,-11.16c0.96,0 1.94,0.04 3,0.11h0.12c5.33,0.39 10.97,2.17 17.33,5.46c0.82,0.43 1.59,0.93 2.31,1.52c0.11,-0.09 0.21,-0.18 0.32,-0.27c2.53,-3.66 6.63,-5.82 11.09,-5.82c3.85,0 7.46,1.66 9.98,4.42c0.03,-0.02 0.07,-0.04 0.1,-0.05c2.56,-2.79 6.14,-4.37 9.94,-4.37c6.18,0 11.4,4.17 13,9.84l2.4,-2.63c1.76,-1.93 3.96,-3.24 6.42,-3.84c2.49,-2.19 5.6,-3.37 8.92,-3.37c3.52,0 6.85,1.34 9.38,3.78c2.6,2.51 4.07,5.87 4.13,9.48c0.07,3.61 -1.28,7.02 -3.78,9.62l-9.33,9.68l13.09,15.96c4.72,5.76 3.88,14.29 -1.87,19.01c-1.8,1.48 -4,2.47 -6.3,2.87c-0.03,0.02 -0.05,0.05 -0.08,0.07c-2.32,2.02 -5.27,3.13 -8.29,3.13c-3.93,0 -7.61,-1.83 -10.08,-5.01l-5.05,-6.51c-1.38,3.45 -4.16,6.26 -7.72,7.63c-2.42,2.49 -5.68,3.9 -9.09,3.9c-3.65,0 -7.06,-1.6 -9.47,-4.29c-2.44,2.71 -5.87,4.29 -9.46,4.29c-4.37,0 -8.25,-2.24 -10.6,-5.73c-3.46,3.45 -9.58,7.41 -19.49,7.41zM204.42329,181.48441l3.95,3.69c0.26,0.25 0.48,0.43 0.68,0.56c4.86,3.37 10.52,6.52 18.98,6.76c0.25,0 0.5,0.01 0.76,0.01c7.72,0 12.28,-3.03 14.74,-5.56c0.67,-0.69 1.29,-1.47 1.89,-2.37l0.2,-0.31l0.41,-0.39c0.29,-0.28 0.56,-0.57 0.83,-0.87l5.34,-6.02l0.76,8.01c0.32,3.33 2.86,5.84 5.91,5.84c1.85,0 3.57,-0.93 4.72,-2.55l0.51,-0.73l0.8,-0.39c0.67,-0.33 1.26,-0.75 1.76,-1.26l3.69,-3.71l2.02,4.83c0.97,2.32 3.1,3.82 5.42,3.82c1.67,0 3.27,-0.78 4.41,-2.15l0.68,-0.82l1.02,-0.3c2.75,-0.81 4.67,-3.38 4.67,-6.24v-14.21l16.62,21.42c1.14,1.46 2.79,2.3 4.55,2.3c1.34,0 2.65,-0.5 3.71,-1.41c0.18,-0.15 0.34,-0.32 0.5,-0.49l0.95,-1.03l1.39,-0.09c1.35,-0.09 2.66,-0.61 3.7,-1.46c2.78,-2.28 3.18,-6.39 0.9,-9.16l-17.05,-20.77l13.66,-14.16c1.21,-1.25 1.85,-2.9 1.82,-4.64c-0.03,-1.74 -0.74,-3.36 -1.99,-4.57c-1.22,-1.18 -2.82,-1.82 -4.52,-1.82c-1.78,0 -3.45,0.71 -4.69,1.99l-0.83,0.86l-1.23,0.21c-1.31,0.19 -2.49,0.83 -3.42,1.85l-14.07,15.43v-13.84c0,-3.59 -2.92,-6.51 -6.51,-6.51c-1.97,0 -3.81,0.88 -5.06,2.43l-0.55,0.68l-0.8,0.34c-0.74,0.31 -1.4,0.77 -1.97,1.37l-3.58,3.73l-2.14,-4.71c-1.06,-2.33 -3.38,-3.84 -5.93,-3.84c-2.25,0 -4.32,1.16 -5.52,3.09l-0.36,0.58l-0.56,0.4c-0.73,0.53 -1.37,1.25 -1.83,2.09l-0.86,1.55v28.27l-6.03,-6.33c-0.92,-0.96 -1.99,-1.86 -3.19,-2.67c-0.84,-0.56 -1.79,-1.11 -2.81,-1.62l-8.19,-4.07l8.82,-2.43c1.56,-0.43 2.86,-1.51 3.68,-3.05l0.35,-0.66l0.59,-0.46c0.3,-0.23 0.54,-0.45 0.74,-0.66l3.33,-3.56l-2.5,-4.23c-0.63,-1.06 -1.52,-1.91 -2.58,-2.46c-5.5,-2.84 -10.25,-4.38 -14.52,-4.68h-0.1c-0.98,-0.07 -1.81,-0.1 -2.6,-0.1c-10.44,0 -17.29,4.57 -19.3,12.88l-2.01,8.35l2.57,6.05c1.15,2.71 3.08,5.02 5.73,6.86l6.28,4.36h3.7l0.06,-0.2l1.24,0.29c0.86,0.2 1.63,0.4 2.34,0.59l-1.44,6.83c-1.11,-0.16 -2.12,-0.38 -3.08,-0.67l-14.05,-4.21c-1.06,0.5 -1.97,1.29 -2.63,2.31c-0.24,0.37 -0.45,0.78 -0.62,1.21l-2.25,5.76l-8.75,-11.32l2.03,-2.17c2.34,-2.51 4.01,-5.65 4.82,-9.08l1.9,-8.06l-2.5,-6.46c-2.86,-7.37 -10.07,-12.33 -17.96,-12.33h-20.98c-2.32,0 -4.41,1.21 -5.59,3.23l-2.01,3.44l-3.9,-2.98l-0.36,-0.59c-1.21,-1.94 -3.27,-3.1 -5.51,-3.1h-29.06c-3.27,0 -6.04,2.45 -6.45,5.7l-0.83,6.67l-4.98,-4.5c-1.91,-1.73 -4.08,-3.02 -6.44,-3.84l-0.44,-0.15l-0.39,-0.27c-3.42,-2.35 -7.42,-3.6 -11.57,-3.6h-17.97c-3.59,0 -6.51,2.92 -6.51,6.51v43.58c0,3.59 2.92,6.51 6.51,6.51c0.11,0 0.21,-0.01 0.32,-0.02l1.8,-0.12l1.14,1.23c1.13,1.23 2.62,1.9 4.2,1.9c3.29,0 5.96,-2.92 5.96,-6.51v-9.09h11.03c4.48,0 8.84,-1.7 12.29,-4.79l5.83,-5.22v16.1c0,3.02 2.14,5.69 5.09,6.35l1.12,0.25l0.75,0.87c1.15,1.32 2.68,2.04 4.31,2.04h27.47c2.08,0 4.04,-1.23 5.12,-3.2l1.93,-3.52l3.83,2.83l0.47,0.74c0.28,0.51 0.6,0.95 0.94,1.31c1.12,1.18 2.59,1.84 4.15,1.84c3.29,0 5.96,-2.92 5.96,-6.51v-11.59h9.82l11.44,15.65c1.14,1.56 2.84,2.45 4.66,2.45c1.31,0 2.51,-0.44 3.57,-1.3c0.91,-0.75 1.6,-1.76 2,-2.92l1.75,-5.11zM213.14329,163.75441h0.04c0,0 -0.03,0 -0.04,0zM156.47329,183.57441l-6.08,-6.65c-0.79,-0.87 -1.81,-1.51 -2.94,-1.85l-8.96,-2.7l8.53,-3.85c1.19,-0.54 2.21,-1.51 2.88,-2.74l1.78,-3.29l-1.78,-3.29c-0.51,-0.95 -1.25,-1.75 -2.12,-2.31l-0.61,-0.39l-0.4,-0.6c-0.59,-0.88 -1.38,-1.61 -2.3,-2.12l-11.98,-6.57h16.31c0.88,0 1.74,-0.22 2.55,-0.65l5.14,-2.71v39.7z" fill="#ffffff"/><g><path d="M316.41329,177.40441c3.31,4.27 2.72,10.59 -1.31,14.09c-1.69,1.46 -3.82,2.27 -6,2.27c-2.85,0 -5.52,-1.33 -7.32,-3.66l-12.84,-16.56l-2.32,2.54v7.66c0,5.52 -4.24,10.01 -9.46,10.01v0c-5.21,0 -9.46,-4.49 -9.46,-10.01c0,5.52 -4.35,10.01 -9.46,10.01c-5.11,0 -9.26,-4.29 -9.45,-9.64c-0.9,1.71 -2.03,3.29 -3.39,4.69c-2.93,3.03 -8.3,6.63 -17.25,6.63c-0.28,0 -0.57,-0.01 -0.86,-0.01c-9.41,-0.27 -15.82,-3.88 -20.87,-7.38c-0.38,-0.27 -0.73,-0.57 -1.07,-0.88c-0.6,1.77 -1.66,3.32 -3.1,4.5c-1.68,1.37 -3.68,2.09 -5.79,2.09c-2.96,0 -5.69,-1.42 -7.49,-3.89l-10.39,-14.21h-4.54v8.09c0,5.52 -4.24,10.01 -9.46,10.01c-2.53,0 -4.9,-1.04 -6.69,-2.93c-0.61,-0.64 -1.12,-1.36 -1.53,-2.13c-1.64,3.02 -4.7,5.06 -8.22,5.06h-27.47c-5.21,0 -9.46,-4.49 -9.46,-10.01v-18.16c-3.85,7.48 -11.35,12.57 -19.95,12.57h-7.53v5.59c0,5.52 -4.25,10.01 -9.46,10.01c-5.21,0 -9.46,-4.49 -9.46,-10.01v-43.58c0,-5.52 4.24,-10.01 9.46,-10.01h16.99c8.6,0 16.1,5.09 19.95,12.57v-2.56c0,-5.52 4.24,-10.01 9.46,-10.01h27.47c3.52,0 6.59,2.05 8.22,5.07c1.66,-3.1 4.77,-5.07 8.21,-5.07h19.83c9.13,0 16.95,6.05 20.06,14.56c2.24,-9.83 9.93,-15.55 21.46,-15.55c0.82,0 1.68,0.03 2.61,0.11h0.18c4.5,0.35 9.41,2 15.01,5.07c2.86,1.56 4.64,4.46 5.03,7.6v-1.77c0,-5.52 4.25,-10.01 9.46,-10.01c5.21,0 9.46,4.49 9.46,10.01v0c0,-5.52 4.25,-10.01 9.46,-10.01c5.21,0 9.46,4.49 9.46,10.01v7.08l12.79,-14.03c1.8,-1.97 4.22,-3.06 6.81,-3.06c2.46,0 4.8,0.99 6.57,2.8c1.82,1.86 2.84,4.36 2.89,7.03c0.05,2.67 -0.89,5.21 -2.65,7.13l-10.87,11.92l14.25,18.36zM155.09329,177.00441v-30.09c-1.73,2.01 -4.21,3.27 -6.97,3.27h-18.01v1.77h13.98c5.21,0 9.46,4.49 9.46,10.01c0,5.52 -4.24,10.01 -9.46,10.01h-13.98v1.77h18.01c2.76,0 5.24,1.27 6.97,3.27zM232.19329,174.43441c-0.69,-0.56 -2.81,-1.7 -7.5,-2.78h-0.61l-0.48,-0.25c-4.68,-1.12 -8.24,-2.58 -11.2,-4.59c-3.31,-2.24 -5.72,-5.15 -7.15,-8.51c-1.07,4.55 -3.46,8.72 -6.82,11.82l4.33,5.92c0.23,-0.64 0.53,-1.26 0.9,-1.86c1.76,-2.83 4.72,-4.52 7.92,-4.52c1.84,0 3.63,0.57 5.18,1.64c3.43,2.38 6.59,3.99 10.9,4.11c0.17,0 0.31,0 0.46,0c2.47,0 3.7,-0.59 4.04,-0.94c0.01,-0.02 0.02,-0.03 0.03,-0.04zM248.74329,144.51441c-0.14,1.13 -0.45,2.25 -0.97,3.32c-1.63,3.34 -4.86,5.41 -8.41,5.41c-1.5,0 -3,-0.39 -4.34,-1.12c-3.83,-2.09 -6.15,-2.71 -7.44,-2.85c-0.31,-0.01 -0.63,-0.03 -0.95,-0.07c-0.38,-0.03 -0.74,-0.03 -1.09,-0.03c-1.52,0 -2.33,0.17 -2.71,0.3c0,0.13 -0.01,0.23 0,0.28c0,0 0.67,1.15 5.33,2.22c6.34,1.41 10.97,3.25 14.54,5.79c2.83,2.01 4.74,4.29 6.04,6.6z" fill="#965f27"/><path d="M321.53329,188.49441c-1.79,1.46 -4.04,2.27 -6.35,2.27c-3.01,0 -5.83,-1.33 -7.74,-3.66l-13.59,-16.56l-2.45,2.54v7.66c0,5.52 -4.49,10.01 -10.01,10.01v0c-5.52,0 -10.01,-4.49 -10.01,-10.01c0,5.52 -4.62,10.01 -10.01,10.01c-5.39,0 -9.79,-4.29 -9.99,-9.64c-0.95,1.71 -2.14,3.29 -3.58,4.69c-3.1,3.03 -8.79,6.63 -18.25,6.63c-0.3,0 -0.61,-0.01 -0.91,-0.01c-9.95,-0.27 -16.74,-3.88 -22.08,-7.38c-0.4,-0.27 -0.78,-0.57 -1.13,-0.88c-0.64,1.77 -1.76,3.32 -3.28,4.5c-1.77,1.37 -3.89,2.09 -6.12,2.09c-3.12,0 -6.01,-1.42 -7.92,-3.89l-10.99,-14.21h-4.8v8.09c0,5.52 -4.49,10.01 -10.01,10.01c-2.68,0 -5.19,-1.04 -7.08,-2.93c-0.65,-0.64 -1.18,-1.36 -1.62,-2.13c-1.73,3.02 -4.97,5.06 -8.69,5.06h-29.06c-5.52,0 -10.01,-4.49 -10.01,-10.01v-18.16c-4.07,7.48 -12,12.57 -21.1,12.57h-7.96v5.59c0,5.52 -4.49,10.01 -10.01,10.01c-5.52,0 -10.01,-4.49 -10.01,-10.01v-43.58c0,-5.52 4.49,-10.01 10.01,-10.01h17.97c9.1,0 17.03,5.09 21.1,12.57v-2.56c0,-5.52 4.49,-10.01 10.01,-10.01h29.06c3.73,0 6.98,2.05 8.7,5.07c1.76,-3.1 5.05,-5.07 8.69,-5.07h20.98c9.66,0 17.93,6.05 21.22,14.56c2.37,-9.83 10.51,-15.55 22.7,-15.55c0.87,0 1.77,0.03 2.76,0.11h0.19c4.76,0.35 9.95,2 15.88,5.07c3.02,1.56 4.91,4.46 5.32,7.6v-1.77c0,-5.52 4.49,-10.01 10.01,-10.01c5.52,0 10.01,4.49 10.01,10.01v0c0,-5.52 4.49,-10.01 10.01,-10.01c5.52,0 10.01,4.49 10.01,10.01v7.08l13.53,-14.03c1.91,-1.97 4.47,-3.06 7.21,-3.06c2.61,0 5.07,0.99 6.95,2.8c1.93,1.86 3.01,4.36 3.06,7.03c0.05,2.67 -0.94,5.21 -2.8,7.13l-11.5,11.92l15.07,18.36c3.5,4.27 2.88,10.59 -1.39,14.09zM152.30329,174.00441v-30.09c-1.84,2.01 -4.46,3.27 -7.38,3.27h-19.05v1.77h14.79c5.52,0 10.01,4.49 10.01,10.01c0,5.52 -4.49,10.01 -10.01,10.01h-14.79v1.77h19.05c2.92,0 5.55,1.27 7.38,3.27zM233.86329,171.43441c-0.73,-0.56 -2.97,-1.7 -7.93,-2.78h-0.65l-0.5,-0.25c-4.95,-1.12 -8.72,-2.58 -11.85,-4.59c-3.5,-2.24 -6.06,-5.15 -7.57,-8.51c-1.13,4.55 -3.66,8.72 -7.21,11.82l4.58,5.92c0.24,-0.64 0.56,-1.26 0.95,-1.86c1.86,-2.83 4.99,-4.52 8.38,-4.52c1.95,0 3.84,0.57 5.48,1.64c3.63,2.38 6.98,3.99 11.53,4.11c0.18,0 0.34,0 0.49,0c2.6,0 3.91,-0.59 4.27,-0.94c0.01,-0.02 0.02,-0.03 0.03,-0.04zM251.36329,141.51441c-0.15,1.13 -0.48,2.25 -1.03,3.32c-1.73,3.34 -5.14,5.41 -8.9,5.41c-1.59,0 -3.17,-0.39 -4.59,-1.12c-4.06,-2.09 -6.51,-2.71 -7.88,-2.85c-0.33,-0.01 -0.67,-0.03 -1,-0.07c-0.4,-0.03 -0.78,-0.03 -1.15,-0.03c-1.61,0 -2.46,0.17 -2.86,0.3c0,0.13 -0.01,0.23 0,0.28c0,0 0.71,1.15 5.64,2.22c6.71,1.41 11.6,3.25 15.38,5.79c2.99,2.01 5.02,4.29 6.39,6.6z" fill="#ffb05f"/></g><path d="M320.58329,176.30441c2.45,2.98 2.02,7.41 -0.97,9.86c-1.25,1.03 -2.82,1.59 -4.44,1.59c-2.11,0 -4.08,-0.93 -5.42,-2.56l-15.72,-19.16l-5.63,5.84v8.87c0,3.86 -3.14,7.01 -7.01,7.01v0c-3.87,0 -7.01,-3.14 -7.01,-7.01v-43.58c0,-3.87 3.14,-7.01 7.01,-7.01c3.87,0 7.01,3.15 7.01,7.01v14.52l18.69,-19.38c1.34,-1.38 3.13,-2.14 5.05,-2.14c1.83,0 3.56,0.69 4.87,1.96c1.35,1.3 2.11,3.05 2.14,4.92c0.04,1.87 -0.66,3.64 -1.96,4.99l-13.35,13.84l16.76,20.43z" fill="#ffffff"/><path d="M268.38329,137.17441v43.58c0,3.87 -3.14,7.01 -7.01,7.01c-3.87,0 -7.01,-3.14 -7.01,-7.01v-43.58c0,-3.87 3.14,-7.01 7.01,-7.01c3.87,0 7.01,3.15 7.01,7.01z" fill="#ffffff"/><path d="M243.31329,157.25441c6.34,4.27 7.67,9.87 7.67,13.82v0c0,4.82 -1.87,9.29 -5.26,12.6c-2.71,2.64 -7.7,5.78 -16.16,5.78c-0.27,0 -0.55,-0.01 -0.83,-0.01h-0.06c-9.14,-0.25 -15.46,-3.62 -20.45,-6.89c-3.23,-2.12 -4.14,-6.48 -2.02,-9.71c1.3,-1.99 3.5,-3.17 5.87,-3.17c1.37,0 2.69,0.4 3.84,1.15c3.51,2.3 7.52,4.45 13.09,4.6c0.21,0 0.39,0 0.57,0c2.92,0 5.18,-0.64 6.37,-1.8c0.68,-0.66 1.02,-1.52 1.02,-2.56c0,-2.71 -6.61,-4.53 -10.7,-5.4h-0.26l-0.2,-0.1c-4.77,-1.05 -8.35,-2.4 -11.24,-4.26c-6.6,-4.23 -7.87,-9.91 -7.77,-13.93c0.28,-11.57 7.73,-18.2 20.43,-18.2c0.82,0 1.67,0.03 2.61,0.1h0.13c4.36,0.32 9.16,1.86 14.72,4.74c3.44,1.78 4.79,6.02 3.01,9.45c-1.21,2.34 -3.6,3.79 -6.23,3.79c-1.12,0 -2.23,-0.27 -3.22,-0.78c-3.69,-1.91 -6.74,-2.98 -9.09,-3.19c-0.3,0 -0.61,-0.02 -0.92,-0.06c-0.5,-0.03 -0.97,-0.04 -1.41,-0.04c-5.46,0 -5.69,1.77 -5.79,2.53c-0.22,1.73 -0.56,4.36 7.93,6.2c6.34,1.32 10.9,3.02 14.34,5.34z" fill="#ffffff"/><path d="M203.04329,149.90441c0,6.74 -3.51,13.04 -9.12,16.66l7.65,9.9c1.15,1.48 1.65,3.32 1.41,5.18c-0.24,1.86 -1.19,3.51 -2.67,4.66c-1.24,0.95 -2.72,1.46 -4.28,1.46c-2.19,0 -4.21,-0.99 -5.55,-2.72l-11.89,-15.38h-9.27v11.09c0,3.87 -3.15,7.01 -7.01,7.01v0c-1.88,0 -3.64,-0.73 -4.96,-2.05c-1.32,-1.33 -2.05,-3.09 -2.05,-4.96v-43.58c0,-0.95 0.18,-1.86 0.55,-2.73c1.1,-2.6 3.64,-4.28 6.46,-4.28h20.98c10.89,0 19.75,8.86 19.75,19.75zM189.02329,149.91441c0,-3.16 -2.57,-5.73 -5.73,-5.73h-13.97v11.46h13.97c3.16,0 5.73,-2.57 5.73,-5.73z" fill="#ffffff"/><path d="M122.88329,144.18441v7.77h17.79c3.87,0 7.01,3.14 7.01,7.01c0,3.87 -3.15,7.01 -7.01,7.01h-17.79v7.77h22.05c3.87,0 7.01,3.14 7.01,7.01c0,3.87 -3.14,7.01 -7.01,7.01h-29.06c-3.87,0 -7.01,-3.14 -7.01,-7.01v-43.58c0,-3.87 3.15,-7.01 7.01,-7.01h29.06c3.87,0 7.01,3.14 7.01,7.01c0,3.87 -3.14,7.01 -7.01,7.01z" fill="#ffffff"/><path d="M105.76329,151.16441c0,11.58 -9.42,21 -21,21h-10.96v8.59c0,3.87 -3.14,7.01 -7.01,7.01c-3.87,0 -7.01,-3.14 -7.01,-7.01v-43.58c0,-3.87 3.15,-7.01 7.01,-7.01h17.97c11.58,0 21,9.42 21,21zM84.75329,158.13441c3.86,0 6.99,-3.13 6.99,-6.98c0,-3.85 -3.13,-6.98 -6.98,-6.98h-10.96v13.97h10.96z" fill="#ffffff"/></g><g><path d="M298.12329,209.53441c2.9,3.42 4.07,7.74 3.34,12.22c-0.49,2.98 -1.81,5.58 -3.92,7.73c-2.28,2.43 -5.52,3.82 -9.08,3.82c-0.14,1.5 -0.28,2.76 -0.4,3.78l-0.7,5.72l-2.17,1.78c-1.99,1.63 -4.56,2.46 -7.62,2.46c-0.22,0 -0.45,-0.01 -0.68,-0.01c-1.32,-0.05 -5.35,-0.21 -7.57,-3.76c-0.08,-0.14 -0.17,-0.28 -0.25,-0.43c-1.35,-0.75 -2.19,-1.74 -2.71,-2.57c-0.67,-1.07 -0.96,-1.99 -1.06,-3.28c-0.25,-0.06 -0.49,-0.12 -0.72,-0.2c-1.23,0.48 -2.33,0.59 -2.83,0.64c-0.32,0.03 -0.71,0.05 -1.18,0.05c-0.31,0 -0.68,-0.01 -1.1,-0.03c-2.5,-0.13 -4.3,-0.74 -5.61,-1.57c-1.55,0.45 -2.94,0.45 -3.59,0.45h-0.35c-1.14,-0.02 -2.45,-0.11 -3.75,-0.5c-0.25,0.13 -0.51,0.25 -0.77,0.35c-1.11,0.44 -2.4,0.68 -3.72,0.68c-1.45,0 -2.74,-0.22 -3.87,-0.64c-0.62,0.11 -1.27,0.17 -1.97,0.19h-0.22c-1.36,0 -2.53,-0.21 -3.63,-0.64l-0.32,-0.13c-1.27,-0.57 -2.41,-1.38 -3.42,-2.42c-1.53,1.48 -3.21,2.62 -5.02,3.41c-1.3,0.55 -2.59,0.89 -3.87,1.03c-0.63,0.06 -1.25,0.1 -1.85,0.1c-3.36,0 -6.31,-1.02 -8.75,-3.02c-0.39,-0.33 -1.34,-1.13 -2.15,-2.39c-0.28,-0.19 -0.55,-0.4 -0.81,-0.61c-0.07,-0.06 -0.12,-0.11 -0.18,-0.17c-0.09,2.28 -0.26,4.2 -0.51,5.73c-0.44,2.68 -1.3,4.97 -2.53,6.82c-2.11,3.06 -5.14,5.01 -9.02,5.84l-0.17,0.03c-1,0.18 -1.97,0.26 -2.96,0.26c-3.2,0 -6.01,-0.6 -8.36,-1.79c-1.81,-0.87 -3.41,-2.26 -4.59,-3.98c-0.86,-0.6 -1.62,-1.3 -2.28,-2.09c-0.89,-0.06 -1.77,-0.22 -2.64,-0.46c-0.33,0.27 -0.69,0.52 -1.07,0.73c-1.39,0.78 -2.66,0.92 -4.27,1.1c-2.02,0.23 -2.81,0.26 -3.32,0.26c-0.42,0 -0.8,-0.03 -1.17,-0.08l-1.86,-0.21c-0.51,0.21 -1.07,0.4 -1.66,0.58c-1.71,0.51 -3.52,0.8 -5.38,0.85c-0.24,0 -0.46,0 -0.68,0c-2.85,0 -5.29,-0.51 -7.42,-1.55c-2.14,1.73 -4.79,1.74 -6.08,1.75h-0.21c-0.34,0.02 -0.57,0.02 -0.69,0.02c-1.14,-0.01 -2.06,-0.14 -2.91,-0.42c-0.64,0.07 -1.31,0.1 -2,0.1h-0.42c-0.66,-0.02 -1.14,-0.06 -1.44,-0.09c-2.11,-0.21 -4.07,-0.88 -5.78,-1.99c-0.1,-0.07 -0.19,-0.13 -0.29,-0.2c-0.11,0.06 -0.23,0.12 -0.34,0.18c-1.94,1.03 -4.22,1.56 -6.75,1.56c-0.48,0 -0.97,-0.02 -1.48,-0.06c-0.53,-0.04 -0.98,-0.09 -1.39,-0.17c-3.3,-0.54 -6.24,-1.95 -8.74,-4.19c-0.51,-0.45 -0.98,-0.93 -1.42,-1.43c-0.89,1.42 -2.26,2.51 -3.98,3.04c-1.01,0.32 -1.93,0.36 -2.94,0.36h-0.17c-1.32,0 -2.69,-0.13 -4.07,-0.38c-1.51,-0.28 -3.1,-0.7 -4.52,-1.9l-0.26,-0.22l-0.24,-0.25c-0.52,-0.54 -0.91,-1.07 -1.22,-1.69c-0.41,-0.22 -0.83,-0.5 -1.24,-0.84l-0.26,-0.22l-0.24,-0.25c-1.59,-1.63 -1.78,-2.69 -2.73,-7.76c-0.5,-2.69 -1.35,-7.13 -2.57,-13.02c-0.94,-4.53 -1.42,-6.93 -1.66,-8.37l-1.17,-7.11l6.64,-1.93c1.42,-0.42 2.67,-0.72 3.81,-0.92l0.1,-0.02l0.64,-0.24l0.86,-0.06l3.51,0.04c4.12,0.38 7.71,2.11 10.45,5.07c0.34,0.37 0.68,0.77 1.03,1.22c0.69,0.54 1.34,1.13 1.94,1.78c1.01,1.09 1.88,2.28 2.6,3.57c0.46,-0.07 0.93,-0.12 1.4,-0.15l0.44,-0.01h0.15c0.13,0 0.3,0 0.37,0c0.26,0 0.48,0.01 0.67,0.02c2.2,0.16 4.2,0.74 5.92,1.72c0.36,0.21 0.72,0.44 1.06,0.69c2.01,-2.77 4.89,-4.67 8.34,-5.44l0.27,-0.06l0.26,-0.04c0.89,-0.13 1.61,-0.19 2.26,-0.19c4.27,0.06 7.94,1.91 10.38,5.23c0.04,0.06 0.09,0.12 0.13,0.18c0.44,0.32 0.86,0.66 1.25,1.03c1.25,-0.71 2.6,-1.23 4.03,-1.56c0.84,-0.22 1.62,-0.27 2.28,-0.29c0.25,-0.01 0.5,-0.01 0.74,-0.01c0.79,0 1.54,0.04 2.23,0.12c-0.06,-1.97 -0.09,-3.42 -0.09,-3.98c0.02,-3.22 0.02,-4.55 1.22,-6.37c1.78,-2.77 4.56,-3.11 6.05,-3.29c0.72,-0.09 1.59,-0.12 3.03,-0.12c2.25,0 3.86,0.21 5.47,1.26c1.04,0.68 1.86,1.59 2.45,2.69c0.18,0.1 0.35,0.2 0.52,0.31c1.63,1.07 2.74,2.72 3.23,4.78l0.16,0.67l0.02,0.54l6.25,-0.58c1.62,-0.19 2.34,-0.22 2.82,-0.22h0.05l6.22,-2.08l1.44,-0.15c1.92,-0.2 2.67,-0.24 3.21,-0.24c0.66,0 1.24,0.07 1.82,0.21c1.5,0.36 3.35,1.29 4.53,3.56c3.44,1.69 3.92,5.6 4.19,7.83c0.12,1.02 0.22,2.03 0.32,3.04c0.3,-0.44 0.62,-0.87 0.96,-1.28c0.75,-0.89 1.89,-2.05 3.6,-2.66c-0.08,-0.12 -0.15,-0.24 -0.21,-0.36l-0.64,-0.41c-1.37,-0.93 -2.07,-2.07 -2.52,-2.96c-0.88,-1.74 -0.92,-3.47 -0.83,-5.08c0.28,-5.47 3.44,-7.28 5.29,-7.88c0.75,-0.24 1.51,-0.42 4.72,-0.63c1.65,-0.11 3.17,-0.15 4.65,-0.19l0.72,-0.02c0.46,-0.01 1.03,-0.03 1.74,-0.03h0.22c1.96,0 3.35,0.05 4.83,0.74l0.18,0.09c1.51,0.78 2.56,1.8 3.22,3.14c1.12,0.62 1.97,1.37 2.58,2.31c0.47,0.05 1.03,0.16 1.63,0.38c0.48,-0.22 0.97,-0.39 1.47,-0.51l0.73,-0.18h0.59c0.37,-0.03 0.65,-0.04 0.9,-0.04c0,0 0.69,0 0.76,0l0.16,-0.97l4.88,-0.82c0.55,-0.09 1.22,-0.15 2.7,-0.15c0.38,0 0.81,0.01 1.31,0.01c0.96,0.02 3.29,0.07 3.29,0.07l0.77,0.02c0.98,-0.21 2.01,-0.31 3.07,-0.31c0.19,0 0.39,0 0.58,0c1.59,0.06 3.14,0.37 4.6,0.94c0.06,0.02 0.12,0.05 0.18,0.07c0.58,-0.13 1.19,-0.23 1.83,-0.31c0.35,-0.04 0.78,-0.07 1.24,-0.07c0.33,0 0.75,0.01 1.27,0.04c1.1,0.07 1.86,0.17 2.55,0.35c1.22,0.29 2.37,0.76 3.4,1.39l1.16,-0.67l1.71,-0.15c0.17,-0.01 0.48,-0.03 0.88,-0.05l0.59,-0.03c0.6,-0.03 1,-0.03 1.37,-0.03c0.74,0 1.36,0.03 1.91,0.08c1.34,0.13 2.44,0.43 3.41,0.95c0.98,-0.17 1.92,-0.25 2.85,-0.25c0.59,0 1.18,0.04 1.75,0.11c3.05,0.37 5.76,1.78 7.84,4.07l0.11,0.13c0.29,0.34 0.56,0.69 0.82,1.06c0.73,0.52 1.41,1.13 2.03,1.81l0.11,0.13z" fill="#ffffff"/><path d="M294.75329,212.62441c2.08,2.45 2.93,5.61 2.39,8.9c-0.35,2.14 -1.29,4.02 -2.81,5.56c-1.6,1.71 -3.8,2.64 -6.3,2.64c-0.9,0 -1.85,-0.12 -2.84,-0.36c-0.22,-0.06 -0.45,-0.12 -0.67,-0.18c-0.09,0.95 -0.18,1.98 -0.28,3.1c-0.18,1.94 -0.34,3.53 -0.49,4.72l-0.5,4.12l-0.93,0.76c-1.27,1.04 -2.99,1.57 -5.12,1.57c-0.17,0 -0.35,0 -0.53,0c-1.61,-0.06 -3.39,-0.34 -4.37,-1.9c-0.54,-0.88 -0.65,-1.08 -0.18,-8.19c-0.16,0.06 -0.33,0.1 -0.5,0.13c-0.82,0.17 -1.81,0.26 -2.87,0.26c-0.57,0 -1.18,-0.03 -1.81,-0.08c-0.96,-0.08 -1.62,-0.25 -2.19,-0.57l-0.09,-0.05l-0.56,-0.37c-1.02,0.98 -2.49,1.12 -3.07,1.18c-0.21,0.02 -0.47,0.03 -0.79,0.03c-0.26,0 -0.56,-0.01 -0.9,-0.03c-1.06,-0.05 -4.07,-0.2 -4.98,-2.5c-1.38,1.38 -3.58,1.38 -4.39,1.38h-0.31c-1.53,-0.03 -3.09,-0.2 -4.21,-1.14c-0.46,0.55 -1.06,0.98 -1.76,1.26c-0.66,0.26 -1.45,0.4 -2.29,0.4h-0.04c-1.62,0 -2.69,-0.38 -3.39,-0.9c-0.69,0.29 -1.5,0.44 -2.46,0.46h-0.17c-0.82,0 -1.53,-0.12 -2.16,-0.37l-0.14,-0.06c-1.42,-0.65 -2.63,-1.8 -3.59,-3.41c-0.44,-0.73 -0.8,-1.53 -1.08,-2.36c-0.53,0.98 -1.16,1.92 -1.89,2.81c-1.48,1.8 -3.17,3.12 -5.02,3.92c-0.92,0.38 -1.83,0.62 -2.73,0.72c-0.48,0.05 -0.96,0.08 -1.42,0.08c-2.43,0 -4.53,-0.72 -6.25,-2.13c-0.53,-0.44 -2.05,-1.72 -1.99,-3.72c0.03,-0.84 0.3,-1.79 1.64,-4.17c0.33,-0.62 0.75,-1.23 1.2,-1.77c0.6,-0.71 1.36,-1.46 2.51,-1.63l0.21,-0.03h0.21c0.33,0 0.74,0 2.34,0.64c0.79,0.32 1.12,0.33 1.18,0.32h0.1c0.04,-0.01 0.06,-0.02 0.06,-0.02c0,-0.01 0.14,-0.27 0.29,-0.93c0.23,-1.07 0.4,-2.45 0.48,-3.9c0.07,-1.4 0.09,-2.58 0.04,-3.54l-0.34,0.03c-2.82,0.22 -3.23,0.24 -3.47,0.24h-0.88l-0.78,-0.5c-0.66,-0.45 -0.98,-1 -1.23,-1.49c-0.36,-0.73 -0.47,-1.55 -0.39,-3.02c0.04,-0.87 0.18,-3.53 2.53,-4.29c0.31,-0.1 0.78,-0.25 3.76,-0.45c1.58,-0.11 3.07,-0.15 4.52,-0.19l0.69,-0.02c0.43,-0.01 0.97,-0.03 1.64,-0.03h0.22c1.89,0 2.51,0.08 3.16,0.38l0.11,0.06c1.63,0.85 1.96,1.83 1.88,6.13l0.5,-0.07c0.7,-0.12 1.89,-0.2 3.6,-0.25c0.2,0 0.37,0 0.5,0c0.43,0 1.22,0 2.02,0.57c0.31,0.23 0.55,0.5 0.74,0.77c0.21,-0.32 0.46,-0.59 0.79,-0.83c0.46,-0.34 0.97,-0.58 1.47,-0.7l0.31,-0.07l0.32,-0.02h0.1c0.23,-0.01 0.44,-0.03 0.63,-0.03h0.51c1.58,0 2.64,0.07 3.47,0.39l0.31,-1.88l2.09,-0.35c0.31,-0.05 0.77,-0.1 2.05,-0.1c0.36,0 0.77,0.01 1.24,0.01c0.95,0.02 3.26,0.07 3.26,0.07l0.41,0.28c1.07,-0.38 2.25,-0.57 3.52,-0.57c0.15,0 0.3,0 0.45,0c1.14,0.04 2.25,0.27 3.3,0.68c0.44,0.18 0.86,0.38 1.23,0.61c0.79,-0.29 1.67,-0.49 2.65,-0.61c0.19,-0.02 0.45,-0.04 0.78,-0.04c0.26,0 0.61,0.01 1.03,0.04c0.83,0.05 1.37,0.12 1.8,0.23c2.01,0.47 3.58,1.57 4.62,3.2c0.3,-1.18 0.99,-1.8 1.54,-2.12l0.56,-0.32l0.84,-0.07c0.15,-0.01 0.4,-0.03 0.72,-0.04l0.61,-0.03c0.48,-0.02 0.85,-0.02 1.18,-0.02c0.61,0 1.1,0.02 1.52,0.06c0.94,0.09 1.6,0.28 2.16,0.63c0.28,0.19 0.53,0.4 0.74,0.63c1.33,-0.36 2.57,-0.54 3.73,-0.54c0.43,0 0.86,0.03 1.27,0.08c2.13,0.26 3.94,1.21 5.4,2.81l0.07,0.08z" fill="#965f27"/><path d="M200.73329,215.54441c0.58,4.74 0.84,9.34 0.79,14.06c-0.03,3.12 -0.2,5.63 -0.5,7.46c-0.35,2.11 -1,3.88 -1.91,5.25c-1.49,2.16 -3.69,3.55 -6.55,4.16l-0.1,0.02c-0.71,0.13 -1.45,0.19 -2.21,0.19c-2.58,0 -4.79,-0.46 -6.58,-1.37c-1.26,-0.61 -2.32,-1.53 -3.12,-2.71c-0.83,-1.24 -1.27,-2.59 -1.3,-4.01c0,-0.33 0.01,-0.7 0.06,-1.1c-0.16,0.18 -0.31,0.36 -0.5,0.51l-0.54,0.56l-1.06,0.18l-0.13,0.02c-0.4,0.05 -0.78,0.07 -1.15,0.07c-1.13,0 -2.26,-0.21 -3.36,-0.64c-0.59,-0.23 -1.08,-0.56 -1.47,-0.97c-0.22,1.05 -0.8,1.88 -1.66,2.36c-0.66,0.37 -1.33,0.46 -2.78,0.62c-1.86,0.21 -2.53,0.23 -2.88,0.23c-0.25,0 -0.46,-0.01 -0.66,-0.04l-2.66,-0.3l-0.02,-0.22c-0.67,0.4 -1.46,0.73 -2.46,1.03c-1.38,0.41 -2.84,0.64 -4.36,0.68c-0.2,0 -0.38,0 -0.57,0c-2.51,0 -4.56,-0.48 -6.27,-1.46c-0.89,-0.53 -1.64,-1.15 -2.29,-1.86c-0.09,0.6 -0.23,1.1 -0.44,1.54l-0.07,0.15l-0.09,0.14c-1.03,1.67 -3.01,1.68 -4.32,1.68c-0.09,0.01 -0.22,0.01 -0.37,0.01c-0.25,0.01 -0.42,0.01 -0.51,0.01h-0.03c-0.87,0 -1.47,-0.11 -2.02,-0.37c-0.11,-0.05 -0.22,-0.11 -0.32,-0.17c-0.77,0.15 -1.61,0.22 -2.53,0.22h-0.38c-0.47,-0.02 -0.84,-0.05 -1.07,-0.07c-1.51,-0.15 -2.87,-0.61 -4.05,-1.38c-0.81,-0.53 -1.43,-1.05 -1.89,-1.61c-0.12,-0.14 -0.21,-0.29 -0.31,-0.43c-0.68,0.75 -1.47,1.37 -2.37,1.84c-1.39,0.73 -3.05,1.11 -4.93,1.11c-0.38,0 -0.77,-0.02 -1.18,-0.05c-0.4,-0.03 -0.72,-0.07 -1,-0.12c-2.56,-0.42 -4.84,-1.51 -6.78,-3.25c-2.07,-1.85 -3.38,-4.13 -3.89,-6.77l-0.08,-0.45c-0.15,-0.96 -0.2,-2.14 -0.13,-3.39c-0.63,0.64 -1.35,1.1 -2.15,1.4c-0.59,0.22 -1.23,0.35 -1.94,0.39c0.16,0.76 0.32,1.45 0.46,2.07c0.36,1.58 0.62,2.73 0.8,3.79c0.29,1.69 -0.65,3.27 -2.22,3.75c-0.52,0.17 -1.06,0.19 -1.82,0.19h-0.14c-1.08,0 -2.21,-0.11 -3.35,-0.32c-1.16,-0.22 -2.01,-0.47 -2.69,-1.04l-0.11,-0.1l-0.1,-0.11c-0.74,-0.76 -0.81,-1.14 -1.66,-5.7c-0.5,-2.7 -1.36,-7.16 -2.58,-13.09c-0.9,-4.37 -1.4,-6.83 -1.62,-8.2l-0.59,-3.6l3.25,-0.95c1.32,-0.39 2.44,-0.66 3.44,-0.83l0.44,-0.09l-0.08,0.03l0.51,-0.19l0.68,-0.04h1.17c3.73,0.01 6.83,1.32 9.2,3.88c2.2,2.38 3.56,5.4 3.94,8.74c0.07,0.62 0.1,1.22 0.1,1.81c1.53,-1.74 3.59,-2.74 5.99,-2.87h0.19h0.1c0,0 0.35,-0.01 0.46,-0.01c0.15,0 0.28,0.01 0.39,0.01c1.61,0.12 3.05,0.53 4.26,1.22c1.63,0.95 2.99,2.43 4.11,4.4c0.08,-0.36 0.16,-0.73 0.27,-1.12c1.17,-4.06 3.93,-6.75 7.78,-7.61l0.11,-0.02l0.11,-0.02c0.71,-0.1 1.25,-0.15 1.71,-0.15c3.03,0.04 5.49,1.29 7.2,3.62c1.11,1.5 1.91,3.47 2.4,5.85c0.03,0.13 0.05,0.28 0.08,0.45c1.6,-2.7 4.02,-4.48 7.03,-5.15c0.43,-0.12 0.89,-0.16 1.44,-0.18c0.22,0 0.43,0 0.63,0c1.02,0 1.91,0.08 2.66,0.23c1.55,0.32 2.77,0.77 3.71,1.37c-0.19,-5.11 -0.28,-8.64 -0.28,-9.44c0.02,-2.91 0.02,-3.35 0.56,-4.18c0.79,-1.24 2.02,-1.39 3.22,-1.54c0.54,-0.06 1.3,-0.09 2.55,-0.09c2.01,0 2.7,0.21 3.32,0.62c0.76,0.5 1.28,1.32 1.53,2.36l0.08,0.29v0.3c0.14,3.55 0.2,5.23 0.34,8.43c0.03,0.83 0.06,1.54 0.08,2.19c0.33,-0.08 0.65,-0.15 0.98,-0.19c0.32,-0.04 0.62,-0.06 0.91,-0.06c0.46,0 0.91,0.05 1.34,0.14c1.82,0.32 3.38,1.19 4.62,2.55l-0.02,-1.53c-0.03,-1.52 0.01,-2.23 0.16,-2.78l0.47,-2.23l4.62,-0.43c1.51,-0.18 2.1,-0.2 2.45,-0.2c1.21,0 2.13,0.44 2.74,1.31c0.71,1.03 0.62,2.15 0.54,3.14c-0.01,0.09 -0.03,0.56 -0.01,2.58c0,0.23 0.01,0.43 0.01,0.62c0.07,-0.1 0.22,-0.33 0.22,-0.33l-0.03,-2.33v-1.53c0,-1.07 0.04,-1.98 0.11,-2.77l0.21,-2.28l3.01,-0.53l1.3,-0.14c1.86,-0.19 2.46,-0.22 2.8,-0.22c0.34,0 0.62,0.03 0.89,0.1c2.21,0.53 2.46,2.6 2.75,4.99zM159.07329,230.82441c0.18,0 0.45,0.02 0.77,0.09c-0.03,-0.59 -0.07,-1.25 -0.1,-1.98c-0.46,0.47 -0.98,0.71 -1.35,0.82l-0.3,0.09l-0.43,0.04h-0.14c-0.58,0 -1.37,-0.17 -1.93,-0.32c-0.84,-0.22 -1.4,-0.33 -1.67,-0.33c-0.08,0.01 -0.11,0.01 -0.11,0.01c-0.01,0 -0.26,0.11 -0.54,0.67c-0.26,0.53 -0.35,1.11 -0.33,1.44c0.02,0.23 0.07,0.31 0.1,0.35c0.11,0.17 0.48,0.3 0.95,0.36c0.18,0.03 0.31,0.03 0.44,0.03h0.14c0.42,-0.03 1.14,-0.15 2.19,-0.6l0.6,-0.25c0.59,-0.25 0.87,-0.36 1.31,-0.41l0.17,-0.02h0.23zM182.95329,233.69441c0.46,-0.2 0.88,-0.37 1.28,-0.5c-1.12,-0.41 -2.08,-1.1 -2.86,-2.01c-0.15,1.35 -0.4,2.63 -0.76,3.78c-0.01,0.01 -0.02,0.03 -0.02,0.05c0.51,-0.45 1.19,-0.81 2.35,-1.32zM190.18329,233.18441c-0.31,0.08 -0.64,0.15 -0.99,0.22l-0.81,0.13c0.71,0.6 1.05,1.42 1.22,1.84c0.07,0.17 0.13,0.31 0.18,0.42c0.11,-0.27 0.34,-1.01 0.4,-2.61z" fill="#965f27"/><path d="M294.73329,209.62441c2.11,2.45 2.97,5.61 2.42,8.9c-0.35,2.14 -1.31,4.02 -2.85,5.56c-1.62,1.71 -3.85,2.64 -6.39,2.64c-0.91,0 -1.88,-0.12 -2.88,-0.36c-0.23,-0.06 -0.46,-0.12 -0.68,-0.18c-0.08,0.95 -0.18,1.98 -0.28,3.1c-0.19,1.94 -0.35,3.53 -0.5,4.72l-0.51,4.12l-0.94,0.76c-1.28,1.04 -3.03,1.57 -5.19,1.57c-0.18,0 -0.36,0 -0.54,0c-1.63,-0.06 -3.44,-0.34 -4.43,-1.9c-0.54,-0.88 -0.66,-1.08 -0.18,-8.19c-0.16,0.06 -0.33,0.1 -0.5,0.13c-0.83,0.17 -1.83,0.26 -2.91,0.26c-0.58,0 -1.19,-0.03 -1.83,-0.08c-0.98,-0.08 -1.65,-0.25 -2.23,-0.57l-0.09,-0.05l-0.57,-0.37c-1.04,0.98 -2.53,1.12 -3.12,1.18c-0.22,0.02 -0.49,0.03 -0.81,0.03c-0.26,0 -0.56,-0.01 -0.91,-0.03c-1.07,-0.05 -4.13,-0.2 -5.05,-2.5c-1.41,1.38 -3.64,1.38 -4.46,1.38h-0.32c-1.56,-0.03 -3.14,-0.2 -4.27,-1.14c-0.48,0.55 -1.08,0.98 -1.79,1.26c-0.66,0.26 -1.47,0.4 -2.32,0.4h-0.04c-1.64,0 -2.73,-0.38 -3.44,-0.9c-0.71,0.29 -1.53,0.44 -2.5,0.46h-0.17c-0.83,0 -1.55,-0.12 -2.19,-0.37l-0.14,-0.06c-1.44,-0.65 -2.67,-1.8 -3.64,-3.41c-0.44,-0.73 -0.8,-1.53 -1.09,-2.36c-0.54,0.98 -1.18,1.92 -1.92,2.81c-1.5,1.8 -3.22,3.12 -5.09,3.92c-0.93,0.38 -1.84,0.62 -2.76,0.72c-0.49,0.05 -0.97,0.08 -1.44,0.08c-2.45,0 -4.59,-0.72 -6.33,-2.13c-0.54,-0.44 -2.08,-1.72 -2.02,-3.72c0.02,-0.84 0.3,-1.79 1.66,-4.17c0.34,-0.62 0.76,-1.23 1.22,-1.77c0.61,-0.71 1.39,-1.46 2.55,-1.63l0.21,-0.03h0.21c0.33,0 0.75,0 2.37,0.64c0.79,0.32 1.13,0.33 1.19,0.32h0.11c0.04,-0.01 0.06,-0.02 0.06,-0.02c0.01,-0.01 0.15,-0.27 0.3,-0.93c0.24,-1.07 0.41,-2.45 0.49,-3.9c0.07,-1.4 0.09,-2.58 0.04,-3.54l-0.35,0.03c-2.85,0.22 -3.27,0.24 -3.51,0.24h-0.9l-0.79,-0.5c-0.67,-0.45 -0.99,-1 -1.24,-1.49c-0.37,-0.73 -0.48,-1.55 -0.4,-3.02c0.05,-0.87 0.19,-3.53 2.57,-4.29c0.32,-0.1 0.8,-0.25 3.82,-0.45c1.6,-0.11 3.11,-0.15 4.58,-0.19l0.7,-0.02c0.43,-0.01 0.98,-0.03 1.66,-0.03h0.22c1.91,0 2.54,0.08 3.2,0.38l0.11,0.06c1.66,0.85 1.99,1.83 1.91,6.13l0.51,-0.07c0.7,-0.12 1.91,-0.2 3.65,-0.25c0.21,0 0.38,0 0.51,0c0.43,0 1.23,0 2.04,0.57c0.32,0.23 0.56,0.5 0.75,0.77c0.21,-0.32 0.47,-0.59 0.8,-0.83c0.46,-0.34 0.98,-0.58 1.49,-0.7l0.31,-0.07l0.32,-0.02h0.1c0.23,-0.01 0.45,-0.03 0.64,-0.03h0.52c1.6,0 2.68,0.07 3.52,0.39l0.31,-1.88l2.12,-0.35c0.31,-0.05 0.78,-0.1 2.08,-0.1c0.37,0 0.79,0.01 1.26,0.01c0.97,0.02 3.31,0.07 3.31,0.07l0.41,0.28c1.09,-0.38 2.28,-0.57 3.57,-0.57c0.15,0 0.31,0 0.46,0c1.16,0.04 2.28,0.27 3.35,0.68c0.45,0.18 0.87,0.38 1.25,0.61c0.8,-0.29 1.69,-0.49 2.69,-0.61c0.19,-0.02 0.45,-0.04 0.79,-0.04c0.26,0 0.61,0.01 1.04,0.04c0.85,0.05 1.4,0.12 1.83,0.23c2.05,0.47 3.63,1.57 4.69,3.2c0.31,-1.18 1,-1.8 1.56,-2.12l0.57,-0.32l0.86,-0.07c0.16,-0.01 0.4,-0.03 0.73,-0.04l0.61,-0.03c0.48,-0.02 0.85,-0.02 1.19,-0.02c0.61,0 1.12,0.02 1.54,0.06c0.95,0.09 1.63,0.28 2.19,0.63c0.29,0.19 0.54,0.4 0.75,0.63c1.35,-0.36 2.6,-0.54 3.78,-0.54c0.44,0 0.87,0.03 1.29,0.08c2.15,0.26 3.99,1.21 5.47,2.81l0.07,0.08z" fill="#ffb05f"/><path d="M199.45329,212.54441c0.59,4.74 0.85,9.34 0.8,14.06c-0.03,3.12 -0.2,5.63 -0.51,7.46c-0.36,2.11 -1.01,3.88 -1.94,5.25c-1.51,2.16 -3.73,3.55 -6.64,4.16l-0.1,0.02c-0.72,0.13 -1.47,0.19 -2.24,0.19c-2.62,0 -4.86,-0.46 -6.67,-1.37c-1.28,-0.61 -2.36,-1.53 -3.17,-2.71c-0.85,-1.24 -1.29,-2.59 -1.32,-4.01c0,-0.33 0.01,-0.7 0.06,-1.1c-0.15,0.18 -0.31,0.36 -0.5,0.51l-0.54,0.56l-1.08,0.18l-0.13,0.02c-0.41,0.05 -0.79,0.07 -1.17,0.07c-1.15,0 -2.29,-0.21 -3.41,-0.64c-0.6,-0.23 -1.1,-0.56 -1.49,-0.97c-0.22,1.05 -0.81,1.88 -1.68,2.36c-0.67,0.37 -1.35,0.46 -2.82,0.62c-1.88,0.21 -2.57,0.23 -2.92,0.23c-0.25,0 -0.47,-0.01 -0.67,-0.04l-2.7,-0.3l-0.02,-0.22c-0.68,0.4 -1.48,0.73 -2.49,1.03c-1.39,0.41 -2.88,0.64 -4.42,0.68c-0.19,0 -0.38,0 -0.57,0c-2.55,0 -4.63,-0.48 -6.36,-1.46c-0.9,-0.53 -1.66,-1.15 -2.32,-1.86c-0.1,0.6 -0.24,1.1 -0.45,1.54l-0.07,0.15l-0.09,0.14c-1.04,1.67 -3.05,1.68 -4.38,1.68c-0.1,0.01 -0.23,0.01 -0.38,0.01c-0.25,0.01 -0.43,0.01 -0.52,0.01h-0.04c-0.88,0 -1.5,-0.11 -2.05,-0.37c-0.11,-0.05 -0.22,-0.11 -0.32,-0.17c-0.79,0.15 -1.64,0.22 -2.57,0.22h-0.39c-0.48,-0.02 -0.85,-0.05 -1.09,-0.07c-1.52,-0.15 -2.9,-0.61 -4.1,-1.38c-0.82,-0.53 -1.45,-1.05 -1.92,-1.61c-0.11,-0.14 -0.21,-0.29 -0.31,-0.43c-0.68,0.75 -1.48,1.37 -2.4,1.84c-1.41,0.73 -3.09,1.11 -5,1.11c-0.39,0 -0.79,-0.02 -1.2,-0.05c-0.41,-0.03 -0.74,-0.07 -1.02,-0.12c-2.59,-0.42 -4.91,-1.51 -6.87,-3.25c-2.09,-1.85 -3.42,-4.13 -3.94,-6.77l-0.08,-0.45c-0.16,-0.96 -0.22,-2.14 -0.14,-3.39c-0.64,0.64 -1.37,1.1 -2.18,1.4c-0.6,0.22 -1.24,0.35 -1.97,0.39c0.17,0.76 0.33,1.45 0.47,2.07c0.36,1.58 0.63,2.73 0.81,3.79c0.29,1.69 -0.65,3.27 -2.25,3.75c-0.54,0.17 -1.08,0.19 -1.85,0.19h-0.14c-1.1,0 -2.25,-0.11 -3.4,-0.32c-1.18,-0.22 -2.04,-0.47 -2.73,-1.04l-0.11,-0.1l-0.1,-0.11c-0.75,-0.76 -0.82,-1.14 -1.68,-5.7c-0.51,-2.7 -1.38,-7.16 -2.62,-13.09c-0.92,-4.37 -1.42,-6.83 -1.65,-8.2l-0.6,-3.6l3.29,-0.95c1.33,-0.39 2.46,-0.66 3.48,-0.83l0.45,-0.09l-0.08,0.03l0.51,-0.19l0.69,-0.04h1.19c3.79,0.01 6.93,1.32 9.33,3.88c2.22,2.38 3.6,5.4 3.99,8.74c0.07,0.62 0.1,1.22 0.1,1.81c1.56,-1.74 3.65,-2.74 6.08,-2.87h0.19h0.1c0,0 0.36,-0.01 0.47,-0.01c0.15,0 0.28,0.01 0.39,0.01c1.63,0.12 3.09,0.53 4.32,1.22c1.64,0.95 3.03,2.43 4.16,4.4c0.08,-0.36 0.17,-0.73 0.28,-1.12c1.19,-4.06 3.99,-6.75 7.89,-7.61l0.11,-0.02l0.12,-0.02c0.71,-0.1 1.26,-0.15 1.73,-0.15c3.07,0.04 5.57,1.29 7.3,3.62c1.12,1.5 1.93,3.47 2.43,5.85c0.03,0.13 0.05,0.28 0.08,0.45c1.62,-2.7 4.08,-4.48 7.13,-5.15c0.44,-0.12 0.9,-0.16 1.46,-0.18c0.22,0 0.44,0 0.64,0c1.03,0 1.93,0.08 2.69,0.23c1.57,0.32 2.8,0.77 3.76,1.37c-0.19,-5.11 -0.28,-8.64 -0.28,-9.44c0.02,-2.91 0.02,-3.35 0.57,-4.18c0.8,-1.24 2.06,-1.39 3.27,-1.54c0.54,-0.06 1.31,-0.09 2.58,-0.09c2.03,0 2.73,0.21 3.36,0.62c0.77,0.5 1.3,1.32 1.55,2.36l0.08,0.29v0.3c0.14,3.55 0.21,5.23 0.35,8.43c0.03,0.83 0.06,1.54 0.08,2.19c0.33,-0.08 0.66,-0.15 0.99,-0.19c0.32,-0.04 0.63,-0.06 0.92,-0.06c0.46,0 0.92,0.05 1.35,0.14c1.84,0.32 3.43,1.19 4.68,2.55l-0.02,-1.53c-0.02,-1.52 0.01,-2.23 0.17,-2.78l0.47,-2.23l4.68,-0.43c1.53,-0.18 2.14,-0.2 2.49,-0.2c1.22,0 2.15,0.44 2.77,1.31c0.72,1.03 0.63,2.15 0.55,3.14c-0.01,0.09 -0.03,0.56 -0.01,2.58c0,0.23 0.01,0.43 0.01,0.62c0.07,-0.1 0.22,-0.33 0.22,-0.33l-0.03,-2.33v-1.53c0,-1.07 0.04,-1.98 0.11,-2.77l0.21,-2.28l3.05,-0.53l1.32,-0.14c1.88,-0.19 2.5,-0.22 2.84,-0.22c0.34,0 0.62,0.03 0.9,0.1c2.24,0.53 2.5,2.6 2.79,4.99zM157.10329,227.82441c0.18,0 0.46,0.02 0.78,0.09c-0.03,-0.59 -0.06,-1.25 -0.1,-1.98c-0.47,0.47 -0.99,0.71 -1.37,0.82l-0.3,0.09l-0.44,0.04h-0.14c-0.58,0 -1.38,-0.17 -1.95,-0.32c-0.85,-0.22 -1.42,-0.33 -1.69,-0.33c-0.08,0.01 -0.11,0.01 -0.11,0.01c-0.01,0 -0.26,0.11 -0.54,0.67c-0.27,0.53 -0.36,1.11 -0.34,1.44c0.01,0.23 0.07,0.31 0.1,0.35c0.11,0.17 0.48,0.3 0.96,0.36c0.18,0.03 0.32,0.03 0.45,0.03h0.14c0.43,-0.03 1.15,-0.15 2.22,-0.6l0.61,-0.25c0.6,-0.25 0.88,-0.36 1.33,-0.41l0.17,-0.02h0.23zM181.32329,230.69441c0.46,-0.2 0.89,-0.37 1.3,-0.5c-1.13,-0.41 -2.11,-1.1 -2.9,-2.01c-0.15,1.35 -0.41,2.63 -0.77,3.78c-0.01,0.01 -0.02,0.03 -0.02,0.05c0.51,-0.45 1.21,-0.81 2.38,-1.32zM188.24329,232.79441c0.12,-0.27 0.35,-1.01 0.41,-2.61c-0.31,0.08 -0.64,0.15 -1,0.22l-0.82,0.13c0.72,0.6 1.06,1.42 1.24,1.84c0.07,0.17 0.13,0.31 0.18,0.42z" fill="#ffb05f"/><g fill="#ffffff"><path d="M91.40329,204.28441c0.47,0 0.71,0 1.19,0c2.9,0.01 5.29,0.94 7.16,2.94c1.83,1.95 2.89,4.36 3.2,7.03c0.26,2.24 -0.05,4.25 -0.92,5.95c-0.58,1.23 -1.3,1.99 -2.16,2.31c-0.87,0.32 -2.18,0.3 -3.93,-0.07c-0.32,-0.06 -0.49,-0.09 -0.81,-0.16c0.07,0.34 0.1,0.51 0.17,0.84c0.98,4.66 1.63,7.08 1.96,8.96c0.03,0.2 -0.02,0.32 -0.17,0.37c-0.15,0.04 -0.49,0.06 -1,0.06c-0.84,0 -1.85,-0.06 -2.98,-0.27c-0.76,-0.14 -1.21,-0.27 -1.35,-0.39c-0.07,-0.08 -0.37,-1.46 -0.88,-4.16c-0.53,-2.83 -1.4,-7.26 -2.63,-13.15c-0.84,-4.02 -1.39,-6.7 -1.62,-8.08c-0.06,-0.38 -0.1,-0.58 -0.16,-0.96c0.3,-0.09 0.45,-0.13 0.75,-0.22c1.13,-0.33 2.17,-0.58 3.13,-0.75c0.16,-0.03 0.33,-0.07 0.5,-0.1c0.18,-0.03 0.31,-0.07 0.41,-0.1c0.06,-0.02 0.08,-0.03 0.14,-0.05zM94.80329,210.11441c-0.39,-0.12 -0.69,-0.17 -0.85,-0.18c-0.52,-0.05 -0.87,0.03 -1.03,0.22c-0.06,0.06 -0.01,0.61 0.14,1.63c0.13,0.88 0.32,1.99 0.57,3.33c0.17,0.77 0.25,1.15 0.42,1.91c0.17,0.03 0.26,0.05 0.44,0.08c0.78,0.15 1.46,0.07 2.05,-0.25c0.59,-0.32 0.98,-0.8 1.14,-1.42c0.13,-0.48 0.16,-1.01 0.08,-1.57c-0.13,-1.04 -0.56,-1.96 -1.27,-2.72c-0.52,-0.49 -1.09,-0.85 -1.68,-1.03z"/><path d="M112.26329,215.84441c0.06,0 0.19,0 0.36,0c0.18,0 0.31,0 0.41,0c1.2,0.09 2.23,0.37 3.08,0.84c2.08,1.19 3.64,3.7 4.7,7.31c0.41,1.39 0.68,2.75 0.8,4.08c0.06,0.62 0.04,0.8 -0.05,0.84c-0.33,0.15 -2.88,0.21 -7.64,-0.18c-0.91,-0.06 -1.37,-0.09 -2.28,-0.16c-0.03,0 -0.01,0.2 0.05,0.6c0.13,0.77 0.5,1.39 1.13,1.86c0.62,0.47 1.43,0.75 2.41,0.84c0.51,0.05 0.9,0.04 1.17,-0.03c0.69,-0.19 1.14,-0.68 1.36,-1.5c-0.01,-0.07 0.09,-0.1 0.32,-0.08c0.29,0.02 0.74,0.12 1.37,0.29c0.62,0.17 1.17,0.31 1.63,0.43c0.3,0.09 0.45,0.13 0.74,0.22c0.23,0.08 0.36,0.21 0.39,0.37c0.05,0.35 -0.15,0.8 -0.62,1.33c-0.47,0.53 -1.01,0.95 -1.65,1.28c-1.21,0.63 -2.73,0.88 -4.59,0.74c-0.32,-0.02 -0.55,-0.05 -0.72,-0.09c-2.01,-0.31 -3.81,-1.12 -5.41,-2.54c-1.6,-1.42 -2.6,-3.14 -2.99,-5.11c-0.02,-0.14 -0.04,-0.21 -0.06,-0.35c-0.35,-2.1 0,-5.52 1.07,-7.61c1.07,-2.09 2.75,-3.25 5.03,-3.37zM114.48329,221.86441c-0.34,-0.23 -0.66,-0.36 -0.95,-0.39c-0.74,-0.07 -1.27,0.32 -1.62,1.03c-0.31,0.62 -0.49,1.28 -0.42,1.95c0.01,0.12 0.02,0.18 0.03,0.29c0.35,0.04 0.52,0.06 0.87,0.1c0.83,0.1 1.66,0.13 2.49,0.09c0.82,-0.04 1.23,-0.12 1.22,-0.24c0,-0.04 -0.09,-0.3 -0.27,-0.8c-0.35,-0.94 -0.8,-1.63 -1.35,-2.04z"/><path d="M130.56329,212.65441c0.58,-0.08 1.03,-0.12 1.36,-0.12c2.09,0.03 3.7,0.88 4.84,2.41c0.86,1.16 1.5,2.76 1.9,4.67c0.17,0.83 0.36,2.67 0.54,5.27c0.34,5.06 0.42,7.35 0.31,9.1c-0.05,0.71 -0.14,1.21 -0.28,1.52c-0.1,0.17 -0.73,0.27 -1.85,0.27c-0.12,0 -0.29,0 -0.49,0.01c-0.2,0 -0.34,0.01 -0.4,0.01c-0.41,0 -0.68,-0.04 -0.82,-0.1c-0.13,-0.06 -0.21,-0.17 -0.24,-0.34c-0.04,-0.31 -0.16,-0.47 -0.35,-0.47c-0.06,0 -0.25,0.05 -0.55,0.15c-0.93,0.32 -2.04,0.47 -3.33,0.44c-0.38,0 -0.67,-0.03 -0.86,-0.05c-0.95,-0.09 -1.91,-0.36 -2.78,-0.92c-0.56,-0.36 -0.97,-0.7 -1.24,-1.02c-0.54,-0.66 -0.87,-1.37 -0.98,-2.15c-0.02,-0.11 -0.02,-0.17 -0.04,-0.28c-0.15,-2.19 0.98,-4.37 3.42,-5.19c0.63,-0.18 1.2,-0.28 1.71,-0.27c1.32,0.02 2.39,0.4 3.22,1.13c0.14,0.12 0.22,0.17 0.36,0.29c0.05,-0.62 0.03,-1.53 -0.06,-2.77c-0.13,-1.72 -0.3,-2.86 -0.48,-3.31c-0.3,-0.76 -0.67,-1.31 -1.17,-1.53c-0.2,-0.09 -0.48,-0.13 -0.83,-0.14c-1.2,-0.02 -1.89,0.94 -2.07,2.79c-0.03,0.41 -0.09,0.67 -0.18,0.77c-0.09,0.1 -0.38,0.15 -0.86,0.13c-0.37,0 -0.55,-0.01 -0.92,-0.02c-1.49,-0.08 -2.39,-0.33 -2.71,-0.71c-0.14,-0.17 -0.23,-0.44 -0.26,-0.82c-0.07,-0.83 0.09,-1.91 0.47,-3.27c0.87,-2.97 2.75,-4.85 5.64,-5.49zM132.27329,232.72441c0.76,0 1.27,-0.1 1.53,-0.33c0.26,-0.23 0.35,-0.67 0.27,-1.33c-0.04,-0.34 -0.11,-0.55 -0.19,-0.61c-0.09,-0.06 -0.4,-0.16 -0.91,-0.24c-0.69,-0.11 -1.2,-0.15 -1.45,-0.15c-0.77,0 -1.31,0.15 -1.62,0.43c-0.3,0.27 -0.45,0.58 -0.4,0.94c0.02,0.17 0.09,0.32 0.21,0.46c0.42,0.55 1.28,0.83 2.58,0.84z"/><path d="M142.69329,228.63441c-0.2,-2.27 0.29,-5.47 1.5,-7.54c1.21,-2.07 3,-3.4 5.39,-3.89c0.1,-0.04 0.35,-0.07 0.78,-0.08c1.1,-0.03 1.99,0.03 2.64,0.16c1.23,0.25 2.2,0.59 2.87,1.04c0.27,0.15 0.43,0.24 0.48,0.31c0.05,0.07 0.08,0.23 0.09,0.46c0.03,0.7 -0.15,2.14 -0.54,4.11c-0.08,0.4 -0.2,0.62 -0.35,0.67c-0.1,0 -0.53,-0.05 -1.22,-0.23c-1.06,-0.27 -1.96,-0.47 -2.64,-0.42c-0.39,0.02 -0.74,0.1 -1.05,0.23c-0.88,0.39 -1.58,1.1 -2.08,2.1c-0.51,1 -0.72,2.12 -0.65,3.02c0.05,0.7 0.26,1.3 0.62,1.83c0.62,0.92 1.63,1.45 3.05,1.63c0.39,0.06 0.77,0.07 1.15,0.05c0.92,-0.05 1.98,-0.32 3.2,-0.82c0.68,-0.27 1.06,-0.44 1.12,-0.44c0.48,-0.06 0.75,0.58 0.83,1.76c0.04,0.69 -0.08,1.14 -0.38,1.39c-0.45,0.37 -1.22,0.72 -2.3,1.04c-1.18,0.35 -2.39,0.53 -3.65,0.56c-2.21,0.06 -3.99,-0.28 -5.37,-1.06c-2.06,-1.22 -3.23,-3.03 -3.48,-5.89z"/><path d="M161.27329,203.54441c0.42,-0.05 1.17,-0.07 2.22,-0.07c1.05,0 1.64,0.07 1.73,0.14c0.08,0.05 0.19,0.23 0.26,0.54c0.14,3.55 0.21,5.24 0.35,8.44c0.12,3.08 0.17,4.54 0.29,7.3c0.21,-0.2 0.31,-0.3 0.52,-0.51c1.23,-1.15 2.44,-1.8 3.64,-1.95c0.49,-0.06 0.93,-0.04 1.32,0.05c1.63,0.26 2.9,1.16 3.81,2.62c0.91,1.46 1.38,3.36 1.43,5.54c0.02,0.68 -0.02,1.4 -0.09,2.14c-0.13,1.2 -0.35,2.29 -0.66,3.27c-0.31,0.98 -0.6,1.52 -0.88,1.67c-0.02,0.02 -0.03,0.03 -0.05,0.05c-0.06,0 -0.11,0.01 -0.14,0.02c-1.04,0.13 -2.07,0 -3.1,-0.4c-0.32,-0.12 -0.49,-0.28 -0.49,-0.48c0,-0.19 0.07,-0.63 0.24,-1.34c0.35,-1.74 0.52,-3.11 0.49,-4.01c-0.06,-1.82 -0.64,-2.99 -1.74,-3.33c-0.29,-0.06 -0.62,-0.06 -0.97,0c-1.06,0.16 -2.03,0.71 -2.89,1.63c-0.17,0.18 -0.25,0.28 -0.42,0.46c0.07,1.76 0.1,2.55 0.17,4.1c0.12,2.74 0.16,3.96 0.14,4.09c-0.03,0.2 -0.1,0.39 -0.22,0.45c-0.15,0.08 -0.75,0.16 -1.7,0.27c-1.67,0.18 -2.62,0.25 -2.85,0.2c-0.13,-0.02 -0.2,-0.02 -0.34,-0.04c-0.07,-0.86 -0.11,-1.32 -0.18,-2.27c-0.1,-1.18 -0.31,-4.37 -0.63,-12.2c-0.3,-7.38 -0.46,-12.7 -0.45,-13.62c0,-1.61 0.03,-2.49 0.07,-2.53c0.03,-0.05 0.41,-0.13 1.13,-0.22z"/><path d="M191.95329,210.77441c0.49,-0.05 0.73,-0.08 1.22,-0.13c1.63,-0.17 2.55,-0.24 2.74,-0.19c0.16,0.04 0.32,0.87 0.51,2.44c0.52,4.24 0.83,8.78 0.78,13.66c-0.03,2.96 -0.19,5.32 -0.47,6.99c-0.28,1.67 -0.77,3.04 -1.46,4.06c-1.04,1.49 -2.63,2.45 -4.77,2.9c-0.56,0.1 -1.13,0.14 -1.72,0.14c-2.2,0 -3.98,-0.38 -5.32,-1.05c-0.84,-0.4 -1.52,-0.98 -2.04,-1.72c-0.51,-0.75 -0.78,-1.53 -0.8,-2.37c-0.01,-0.62 0.07,-1.03 0.24,-1.21c0.17,-0.19 0.74,-0.47 1.66,-0.88c0.78,-0.34 1.46,-0.57 2.02,-0.63c0.16,-0.02 0.27,-0.01 0.33,0c0.09,0.02 0.24,0.26 0.43,0.72c0.35,0.9 0.75,1.52 1.19,1.88c0.44,0.36 1.01,0.51 1.69,0.46c0.78,-0.06 1.42,-0.28 1.92,-0.67c1.03,-0.75 1.55,-2.69 1.56,-5.76c0,-0.84 -0.02,-1.52 -0.04,-2.02c-0.04,-0.82 -0.04,-1.63 -0.04,-2.4c0,-0.1 -0.11,-0.03 -0.33,0.2c-0.7,0.72 -1.3,1.23 -1.81,1.51c-0.51,0.29 -1.29,0.53 -2.33,0.72c-0.31,0.05 -0.46,0.07 -0.76,0.12c-0.44,0.07 -0.91,0.09 -1.38,0.08c-1.31,-0.11 -2.33,-0.61 -3.08,-1.54c-0.75,-0.92 -1.32,-2.37 -1.7,-4.45c-0.14,-0.77 -0.25,-2.22 -0.31,-4.45c-0.01,-0.68 -0.02,-1.02 -0.03,-1.71c-0.02,-1.15 0,-1.8 0.07,-1.95c0.02,-0.09 0.03,-0.13 0.05,-0.22c0.99,-0.09 1.49,-0.14 2.49,-0.23c1.63,-0.19 2.47,-0.23 2.54,-0.14c0.07,0.09 0.07,0.48 0,1.16c-0.03,0.37 -0.04,1.33 -0.02,2.86c0.02,1.82 0.23,3.06 0.61,3.75c0.39,0.71 0.97,1 1.74,0.87c0.08,-0.01 0.12,-0.02 0.19,-0.03c1.12,-0.22 2.19,-1.13 3.22,-2.7c0.19,-0.32 0.29,-0.48 0.48,-0.8c-0.02,-1.28 -0.03,-1.92 -0.05,-3.2c0,-0.59 0,-0.89 0,-1.48c0,-0.96 0.03,-1.79 0.1,-2.49c0.27,-0.05 0.41,-0.07 0.68,-0.12z"/><path d="M222.80329,203.61441c0.39,-0.01 0.92,-0.03 1.58,-0.03c1.29,0 2.01,0.03 2.16,0.1c0.34,0.17 0.38,1.44 0.13,7.85c-0.04,0.94 -0.1,2.13 -0.19,3.66c-0.12,2.01 -0.38,3.74 -0.75,4.82c-0.53,1.58 -1.38,3.1 -2.56,4.51c-1.18,1.41 -2.5,2.46 -3.97,3.09c-0.64,0.27 -1.27,0.43 -1.9,0.5c-2.3,0.25 -4.15,-0.25 -5.57,-1.4c-0.62,-0.51 -0.92,-0.94 -0.91,-1.3c0.01,-0.36 0.43,-1.3 1.27,-2.77c0.27,-0.49 0.57,-0.93 0.9,-1.31c0.33,-0.39 0.56,-0.59 0.69,-0.61c0.03,0 0.48,0.12 1.27,0.43c1.01,0.4 1.92,0.62 2.69,0.51c0.11,-0.02 0.17,-0.02 0.29,-0.04c0.73,-0.17 1.32,-0.51 1.75,-1.01c0.43,-0.5 0.74,-1.28 0.96,-2.25c0.26,-1.17 0.46,-2.69 0.56,-4.38c0.14,-2.62 0.09,-4.49 -0.17,-5.91c-0.05,-0.29 -0.09,-0.63 -0.12,-1.01c-1.29,0.1 -1.94,0.15 -3.23,0.25c-2.19,0.17 -3.3,0.25 -3.33,0.23c-0.03,-0.02 -0.11,-0.14 -0.23,-0.37c-0.09,-0.17 -0.11,-0.69 -0.07,-1.48c0.05,-1.01 0.22,-1.5 0.48,-1.59c0.27,-0.08 1.3,-0.2 3.1,-0.31c1.8,-0.11 3.55,-0.15 5.18,-0.2z"/><path d="M240.25329,209.55441c0,0 0.13,0 0.29,-0.02c0.16,-0.01 0.31,-0.02 0.44,-0.02c1.78,-0.02 2.81,0.06 3.03,0.24c0.17,0.14 0.09,1.59 -0.25,5.25c-0.11,1.03 -0.16,1.97 -0.26,3.46c-0.29,4.11 -0.53,6.79 -0.69,7.46c-0.14,0.59 -0.49,0.98 -0.97,1.16c-0.28,0.11 -0.71,0.2 -1.24,0.2c-0.98,0 -1.7,-0.2 -1.77,-0.44c-0.33,-1.07 -0.02,-2.34 -0.05,-2.34c-0.06,-0.08 -0.24,0.05 -0.54,0.38c-0.87,0.85 -1.59,1.41 -2.13,1.68c-0.36,0.17 -0.87,0.27 -1.53,0.28c-0.51,0 -0.91,-0.04 -1.22,-0.16c-0.89,-0.4 -1.66,-1.15 -2.3,-2.21c-0.64,-1.06 -1.07,-2.27 -1.28,-3.59c-0.21,-1.32 -0.21,-4.1 0.01,-7.2c0.11,-1.52 0.16,-2.23 0.27,-3.54c0.27,-0.04 0.41,-0.06 0.69,-0.1c0.59,-0.09 1.69,-0.17 3.31,-0.22c0.45,-0.01 0.7,0 0.73,0.01c0.09,0.07 0.11,0.32 0.07,0.77c-0.03,0.36 -0.05,0.54 -0.08,0.91c-0.07,0.77 -0.11,1.18 -0.18,2.02c-0.25,2.96 -0.14,5.52 0.34,6.1c0.15,0.18 0.43,0.26 0.84,0.24c0.41,-0.02 0.75,-0.09 1.01,-0.22c0.63,-0.41 1.23,-1.1 1.8,-2.05c0.15,-0.25 0.23,-0.38 0.38,-0.63c0.13,-1.95 0.2,-2.54 0.33,-3.9c0.22,-2.24 0.4,-3.22 0.54,-3.32c0.16,-0.12 0.31,-0.18 0.41,-0.21z"/><path d="M253.70329,208.75441c1.23,-1.02 2.8,-1.45 4.69,-1.39c0.81,0.03 1.61,0.18 2.38,0.48c0.77,0.3 1.31,0.67 1.62,1.13c0.13,0.2 0.21,0.3 0.24,0.3c0.13,-0.1 0.2,-0.14 0.34,-0.24c0.78,-0.53 1.84,-0.87 3.19,-1.03c0.2,-0.03 0.63,-0.03 1.28,0.01c0.62,0.04 1.04,0.08 1.26,0.14c1.93,0.45 3.14,1.62 3.65,3.62c0.36,1.42 0.21,3.9 -0.5,10.82c-0.07,0.66 -0.11,1 -0.18,1.67c-0.16,1.52 -0.28,2.44 -0.36,2.74c-0.08,0.3 -0.26,0.48 -0.56,0.53c-1.11,0.22 -2.43,0.27 -3.98,0.14c-0.51,-0.04 -0.85,-0.11 -1.03,-0.21c-0.09,-0.06 -0.14,-0.09 -0.23,-0.14c0.14,-1.51 0.21,-2.26 0.35,-3.73c0.61,-6.34 0.81,-9.08 0.61,-10.06c-0.09,-0.47 -0.31,-0.8 -0.67,-1c-0.24,-0.12 -0.46,-0.18 -0.65,-0.2c-0.55,-0.05 -1.04,0.13 -1.41,0.53c-0.36,0.38 -0.78,1.56 -1.25,6.52c-0.48,4.96 -0.76,7.79 -0.84,7.99c-0.09,0.25 -0.56,0.42 -1.42,0.5c-0.29,0.03 -0.72,0.03 -1.28,0c-1.58,-0.08 -2.39,-0.33 -2.45,-0.77c-0.1,-0.65 0.04,-3.76 0.44,-8.74c0.4,-4.98 0.48,-5.9 0.25,-6.33c-0.16,-0.26 -0.39,-0.42 -0.65,-0.51c-0.18,-0.06 -0.39,-0.12 -0.61,-0.13c-0.52,-0.02 -1.01,0.14 -1.48,0.48c-0.47,0.34 -0.82,0.83 -1.07,1.41c-0.25,0.59 -0.61,2.43 -1.01,7.09c-0.3,3.45 -0.5,5.43 -0.58,5.65c-0.26,0.51 -1.18,0.75 -2.75,0.72c-1.36,-0.03 -2.18,-0.19 -2.48,-0.49c-0.09,-0.09 -0.17,-0.54 -0.2,-1.29c-0.05,-1.66 0.28,-7.98 0.89,-12.9c0.08,-0.66 0.12,-0.97 0.2,-1.59c0.18,-1.22 0.27,-1.79 0.44,-2.85c0.33,-0.05 1.27,-0.07 2.8,-0.05c0.96,0.02 1.44,0.03 2.39,0.05c0.29,0.2 0.47,0.51 0.53,0.94c0.03,0.07 0.04,0.11 0.07,0.19z"/><path d="M280.25329,236.55441c-0.8,0.65 -2.04,0.96 -3.73,0.89c-1.15,-0.04 -1.82,-0.21 -2.01,-0.51c-0.13,-0.21 0.46,-11.78 1.66,-21.5c0.42,-3.4 0.69,-5.33 0.83,-6.1c0.04,-0.21 0.1,-0.34 0.17,-0.38c0.08,0 0.12,-0.01 0.2,-0.02c0.13,-0.01 0.33,-0.02 0.6,-0.04c0.27,-0.01 0.48,-0.02 0.65,-0.03c1,-0.03 1.76,-0.02 2.28,0.03c0.46,0.04 0.76,0.11 0.91,0.21c0.33,0.21 0.59,0.77 0.79,1.7c0.28,-0.1 0.6,-0.2 0.96,-0.32c1.98,-0.69 3.75,-0.99 5.28,-0.8c1.4,0.17 2.61,0.77 3.63,1.87c1.56,1.82 2.13,4.06 1.74,6.46c-0.26,1.57 -0.94,2.85 -2.02,3.94c-1.54,1.63 -3.69,2.14 -6.46,1.49c-1.27,-0.3 -2.42,-0.75 -3.46,-1.39c-0.36,-0.26 -0.54,-0.36 -0.55,-0.29c0,0.04 -0.07,0.76 -0.18,2.19c-0.12,1.43 -0.27,3.11 -0.45,5.05c-0.18,1.94 -0.34,3.48 -0.49,4.62c-0.05,0.36 -0.07,0.55 -0.11,0.91c-0.1,0.8 -0.15,1.2 -0.25,2.01zM287.67329,214.42441c-0.46,-0.24 -0.84,-0.39 -1.13,-0.44c-0.65,-0.12 -1.27,-0.03 -1.85,0.26c-0.73,0.37 -1.15,0.86 -1.25,1.46c-0.09,0.52 0.1,1 0.55,1.45c0.48,0.48 1.17,0.84 2.07,1.07c0.55,0.14 0.97,0.17 1.29,0.1c0.87,-0.17 1.37,-0.66 1.51,-1.46c0.04,-0.21 0.04,-0.36 0.03,-0.45c-0.02,-0.86 -0.43,-1.53 -1.22,-1.98z"/></g></g></g></g></svg>