<svg version="1.1" xmlns="http://www.w3.org/2000/svg" xmlns:xlink="http://www.w3.org/1999/xlink" width="51" height="49" viewBox="0,0,51,49"><g transform="translate(-162,-309)"><g data-paper-data="{&quot;isPaintingLayer&quot;:true}" fill-rule="nonzero" stroke="none" stroke-width="0" stroke-linecap="butt" stroke-linejoin="miter" stroke-miterlimit="10" stroke-dasharray="" stroke-dashoffset="0" style="mix-blend-mode: normal"><path d="M190.63984,333.49326c0.11,5.62 1.9,9.73 0.55,8.74c-4.76,-3.49 -6.42,-3.8 -7.8,-3.75c-0.16,0.69 -0.41,1.27 -0.74,1.65c-0.78,0.89 -1.99,0.61 -2.76,-0.22c-0.53,-0.58 -0.9,-1.47 -1.12,-2.49c-0.24,-0.51 -0.3,-1.3 -0.26,-2.02c-0.09,-2.25 0.37,-4.54 1.24,-5.29c0.94,-0.8 2.13,0.37 2.21,0.45c0.47,0.47 0.84,1.18 1.11,2c2.42,-1.06 2.2,-2.55 6.67,-6.53c1.87,-1.66 0.8,1.84 0.91,7.47z" fill="#000000"/><path d="M189.63984,332.49326c0.11,5.62 1.9,9.73 0.55,8.74c-4.76,-3.49 -6.42,-3.8 -7.8,-3.75c-0.16,0.69 -0.41,1.27 -0.74,1.65c-0.78,0.89 -1.99,0.61 -2.76,-0.22c-0.53,-0.58 -0.9,-1.47 -1.12,-2.49c-0.24,-0.51 -0.3,-1.3 -0.26,-2.02c-0.09,-2.25 0.37,-4.54 1.24,-5.29c0.94,-0.8 2.13,0.37 2.21,0.45c0.47,0.47 0.84,1.18 1.11,2c2.42,-1.06 2.2,-2.55 6.67,-6.53c1.87,-1.66 0.8,1.84 0.91,7.47z" fill="#ffffff"/><path d="M196.95984,337.66326c0.51,0.27 0.69,0.91 0.41,1.41c-0.19,0.35 -0.54,0.54 -0.91,0.54c-0.17,0 -0.34,-0.04 -0.5,-0.13c-1.54,-0.85 -2.82,-1.78 -4.06,-2.68c-0.28,-0.2 -0.57,-0.41 -0.85,-0.61c-0.3,0.23 -0.61,0.46 -0.93,0.67c-1.24,0.81 -2.25,1.18 -3.22,1.53c-0.9,0.33 -1.75,0.64 -2.79,1.32c-0.18,0.11 -0.37,0.17 -0.57,0.17c-0.34,0 -0.67,-0.17 -0.87,-0.47c-0.31,-0.48 -0.18,-1.12 0.3,-1.44c1.24,-0.81 2.25,-1.18 3.22,-1.53c0.9,-0.33 1.75,-0.64 2.79,-1.32c0.08,-0.05 0.16,-0.11 0.24,-0.17c-1.69,-1.07 -3.63,-2.03 -6.37,-2.77c-0.55,-0.15 -0.88,-0.72 -0.73,-1.28c0.15,-0.55 0.71,-0.88 1.27,-0.73c3.31,0.89 5.57,2.11 7.51,3.39c0.32,-0.3 0.65,-0.62 0.98,-0.94c0.99,-0.96 2.01,-1.95 3.22,-2.75c0.48,-0.31 1.13,-0.18 1.44,0.3c0.31,0.48 0.18,1.12 -0.3,1.44c-1.05,0.68 -1.95,1.57 -2.91,2.5c-0.23,0.22 -0.46,0.45 -0.69,0.67c0.16,0.11 0.31,0.23 0.47,0.34c1.25,0.9 2.42,1.76 3.85,2.55z" fill="#000000"/><path d="M195.95984,336.66326c0.51,0.27 0.69,0.91 0.41,1.41c-0.19,0.35 -0.54,0.54 -0.91,0.54c-0.17,0 -0.34,-0.04 -0.5,-0.13c-1.54,-0.85 -2.82,-1.78 -4.06,-2.68c-0.28,-0.2 -0.57,-0.41 -0.85,-0.61c-0.3,0.23 -0.61,0.46 -0.93,0.67c-1.24,0.81 -2.25,1.18 -3.22,1.53c-0.9,0.33 -1.75,0.64 -2.79,1.32c-0.18,0.11 -0.37,0.17 -0.57,0.17c-0.34,0 -0.67,-0.17 -0.87,-0.47c-0.31,-0.48 -0.18,-1.12 0.3,-1.44c1.24,-0.81 2.25,-1.18 3.22,-1.53c0.9,-0.33 1.75,-0.64 2.79,-1.32c0.08,-0.05 0.16,-0.11 0.24,-0.17c-1.69,-1.07 -3.63,-2.03 -6.37,-2.77c-0.55,-0.15 -0.88,-0.72 -0.73,-1.28c0.15,-0.55 0.71,-0.88 1.27,-0.73c3.31,0.89 5.57,2.11 7.51,3.39c0.32,-0.3 0.65,-0.62 0.98,-0.94c0.99,-0.96 2.01,-1.95 3.22,-2.75c0.48,-0.31 1.13,-0.18 1.44,0.3c0.31,0.48 0.18,1.12 -0.3,1.44c-1.05,0.68 -1.95,1.57 -2.91,2.5c-0.23,0.22 -0.46,0.45 -0.69,0.67c0.16,0.11 0.31,0.23 0.47,0.34c1.25,0.9 2.42,1.76 3.85,2.55z" fill="#ff544a"/><path d="M213,333.5c0,13.53098 -11.41674,24.5 -25.5,24.5c-14.08326,0 -25.5,-10.96902 -25.5,-24.5c0,-13.53098 11.41674,-24.5 25.5,-24.5c14.08326,0 25.5,10.96902 25.5,24.5z" fill="none"/></g></g></svg>