<svg version="1.1" xmlns="http://www.w3.org/2000/svg" xmlns:xlink="http://www.w3.org/1999/xlink" width="49.85821" height="54.68794" viewBox="0,0,49.85821,54.68794"><defs><linearGradient x1="165.24621" y1="326.2568" x2="195.2865" y2="296.21651" gradientUnits="userSpaceOnUse" id="color-1"><stop offset="0" stop-color="#f44d5d"/><stop offset="0.08" stop-color="#f4595c"/><stop offset="0.36" stop-color="#f4815b"/><stop offset="0.62" stop-color="#f49e5a"/><stop offset="0.84" stop-color="#f4af5a"/><stop offset="1" stop-color="#f4b65a"/></linearGradient><linearGradient x1="7057.79441" y1="8344.72599" x2="7620.36874" y2="7621.76287" gradientUnits="userSpaceOnUse" id="color-2"><stop offset="0" stop-color="#f44d5d"/><stop offset="0.08" stop-color="#f4595c"/><stop offset="0.36" stop-color="#f4815b"/><stop offset="0.62" stop-color="#f49e5a"/><stop offset="0.84" stop-color="#f4af5a"/><stop offset="1" stop-color="#f4b65a"/></linearGradient></defs><g transform="translate(-152.95951,-280.52565)"><g data-paper-data="{&quot;isPaintingLayer&quot;:true}" fill-rule="nonzero" stroke="none" stroke-width="0" stroke-linecap="butt" stroke-linejoin="miter" stroke-miterlimit="10" stroke-dasharray="" stroke-dashoffset="0" style="mix-blend-mode: normal"><path d="M200.89714,302.26131c7.11349,10.87061 -6.87971,32.16098 -19.9378,32.62853c-13.74272,0.50095 -26.38336,-21.40725 -21.79132,-32.01069c2.23758,-5.15978 8.04859,-7.66453 9.0004,-8.06529c10.65353,-4.44175 27.15148,-1.08539 32.72872,7.44745z" fill="url(#color-1)"/><path d="M181.61057,291.82485c-1.80342,3.0224 -3.75712,0.66793 -4.32487,-0.36736c-0.53435,-0.9685 -1.48615,-2.9556 1.30247,-5.24327c2.78862,-2.28767 8.51615,-2.80532 11.12109,-1.08539c1.9871,1.31917 -5.05959,1.61974 -8.09869,6.69603z" fill="#007f40"/><path d="M177.98703,293.311c-0.83492,0.30057 -4.07439,-5.9947 -3.35636,-9.76852c0.05009,-0.23378 0.16698,-0.76812 0.53435,-1.30247c1.23568,-1.73663 4.25807,-2.12069 4.77572,-1.30247c0.38406,0.58444 -0.76812,1.45275 -1.61974,3.25617c-2.13739,4.49185 0.38406,8.86681 -0.31727,9.11729z" fill="#7f5d00"/><path d="M158.50009,297.45219c7.69793,-6.61254 22.04179,-6.16168 28.63763,1.73663c8.41596,10.06909 4.40836,32.77881 -6.19508,35.68432c-11.15448,3.07249 -29.18867,-15.34576 -27.9196,-27.30176c0.61784,-5.81102 4.80912,-9.51805 5.49375,-10.10249z" fill="url(#color-2)"/><path d="M160.48719,293.77856c1.0353,-3.37306 6.81292,-7.13019 11.23797,-7.23038c4.42506,-0.10019 5.14308,2.30437 5.42696,3.50665c0.30057,1.30247 0.36736,4.74232 -3.74043,3.48995c-6.89641,-2.10399 -13.70933,2.82202 -12.9245,0.23378z" fill="#007f40"/></g></g></svg>