<svg version="1.1" xmlns="http://www.w3.org/2000/svg" xmlns:xlink="http://www.w3.org/1999/xlink" width="375.25" height="675.66268" viewBox="0,0,375.25,675.66268"><g transform="translate(0.125,5.19761)"><g data-paper-data="{&quot;isPaintingLayer&quot;:true}" fill-rule="nonzero" stroke-linecap="butt" stroke-linejoin="miter" stroke-miterlimit="10" stroke-dasharray="" stroke-dashoffset="0" style="mix-blend-mode: normal"><path d="M-0.125,670.46507v-675.66268h375v675.66268z" fill="#001b2a" stroke="none" stroke-width="0"/><g fill="#ffd57f" stroke="none" stroke-width="0"><path d="M71.705,133.69l-5.5,-1.84l-3.45,4.67l0.04,-5.8l-5.5,-1.84l5.53,-1.75l0.04,-5.8l3.38,4.72l5.53,-1.75l-3.44,4.67z"/><path d="M78.495,117.8l-2.77,-8.52h-8.96l7.25,-5.27l-2.77,-8.52l7.25,5.27l7.25,-5.27l-2.77,8.52l7.25,5.27h-8.96z"/><path d="M99.325,129.93h-6.95l-2.15,6.62l-2.15,-6.62h-6.95l5.62,-4.08l-2.15,-6.62l5.63,4.09l5.62,-4.09l-2.14,6.62z"/><path d="M132.495,286.29l-5.5,-1.83l-3.45,4.67l0.04,-5.81l-5.5,-1.83l5.53,-1.75l0.04,-5.81l3.38,4.72l5.53,-1.75l-3.44,4.67z"/><path d="M139.285,270.4l-2.77,-8.52h-8.96l7.25,-5.26l-2.77,-8.52l7.25,5.26l7.25,-5.26l-2.77,8.52l7.25,5.26h-8.96z"/><path d="M178.195,268.77h-6.95l-2.15,6.62l-2.15,-6.62h-6.96l5.63,-4.08l-2.15,-6.62l5.63,4.09l5.62,-4.09l-2.15,6.62z"/><path d="M265.455,214.23l-5.51,-1.84l-3.44,4.67l0.04,-5.8l-5.51,-1.84l5.54,-1.75l0.04,-5.8l3.38,4.72l5.53,-1.75l-3.45,4.67z"/><path d="M272.245,198.34l-2.77,-8.52h-8.96l7.25,-5.27l-2.77,-8.52l7.25,5.27l7.25,-5.27l-2.77,8.52l7.25,5.27h-8.96z"/><path d="M252.105,166.25h-6.95l-2.15,6.62l-2.15,-6.62h-6.95l5.62,-4.09l-2.15,-6.61l5.63,4.09l5.63,-4.09l-2.15,6.61z"/><path d="M184.965,392.01l5.07,-2.82l-1.12,-5.7l4.25,3.95l5.07,-2.82l-2.44,5.26l4.25,3.95l-5.76,-0.69l-2.44,5.26l-1.12,-5.69z"/><path d="M192.105,407.75l8.16,3.7l6.04,-6.61l-1,8.9l8.15,3.71l-8.78,1.8l-1,8.9l-4.42,-7.8l-8.78,1.8l6.05,-6.61z"/><path d="M169.095,414.93l4.69,-5.14l-3.43,-6.05l6.33,2.88l4.69,-5.13l-0.78,6.91l6.33,2.88l-6.81,1.39l-0.78,6.91l-3.43,-6.05z"/><path d="M74.805,508.9l-0.39,-9.66l-9.3,-2.62l9.07,-3.35l-0.38,-9.65l5.98,7.58l9.06,-3.34l-5.36,8.03l5.98,7.59l-9.3,-2.62z"/><path d="M103.545,510.12l11.64,-9.33l-5.27,-13.95l12.46,8.19l11.64,-9.33l-3.93,14.39l12.46,8.19l-14.9,0.7l-3.93,14.39l-5.27,-13.96z"/><path d="M96.895,549.7l-4.09,-10.83l-11.57,0.54l9.04,-7.24l-4.09,-10.83l9.68,6.36l9.03,-7.24l-3.05,11.17l9.67,6.36l-11.56,0.54z"/></g><g><path d="M374.875,28.25v268.06c-59.71,-15.33 -103.85,-69.53 -103.85,-134.03c0,-64.5 44.14,-118.7 103.85,-134.03z" fill="#ffd57f" stroke="#001b2a" stroke-width="0.5"/><path d="M337.325,64.27v0c0.12,0 0.16,0.16 0.06,0.22c-5.75,3.46 -11.21,6.02 -15.22,11.72c-1.73,2.46 -3.09,5.2 -3.96,8.08c-1.29,4.24 -2.29,9.04 3.16,10.83c3.36,1.1 8.34,-1.51 11,-3.38c3.18,-2.24 5.61,-5.43 7.43,-8.83c1.63,-3.04 3.12,-6.55 3.82,-9.95c0.83,-4.05 1.18,-6.25 -4.57,-7.4c-1.57,-0.31 -3.59,-0.18 -5.19,-0.27c-0.73,-0.04 -0.9,-1.08 -0.17,-1.29c3.48,-1.01 9.62,-1.46 11.84,2.27c2.09,3.52 -0.14,8.75 -1.38,12.09c-3.36,9.04 -10.1,18.05 -20.51,18.79c-3.37,0.24 -7.47,-0.16 -8.5,-3.97c-1.03,-3.81 0.88,-9.35 2.39,-12.75c3.3,-7.44 11.02,-16.02 19.78,-16.15z" fill="#001b2a" stroke="none" stroke-width="0"/><path d="M310.385,89.17v0c-0.01,0.11 -0.18,0.08 -0.18,-0.02c0.59,-7.38 4.35,-15.48 11.33,-18.84c0.14,-0.07 0.29,0.11 0.17,0.22c-5.77,5.26 -10.19,10.65 -11.32,18.65z" fill="#001b2a" stroke="none" stroke-width="0"/><path d="M347.295,85.61c-0.06,0.11 -0.21,0.02 -0.16,-0.09c3.69,-8.03 4.95,-16.5 5,-25.29c0,-0.28 0.39,-0.26 0.42,0c1.18,8.95 -1,17.5 -5.26,25.38z" fill="#001b2a" stroke="none" stroke-width="0"/><path d="M291.485,143.32v0c0.13,-0.1 0.29,0.12 0.17,0.22c-5.78,5.17 -5.73,14.02 -5.96,21.2c-0.13,4.24 -0.03,8.58 0.97,12.72c0.34,1.41 0.84,4.1 1.97,5.18l5.84,1.95c1.13,-0.81 2.13,-1.75 2.99,-2.84c0.02,-0.03 0.05,0.01 0.03,0.03c-2,2.41 -4.62,4.93 -7.91,3.27c-3.67,-1.85 -4.39,-7.57 -4.84,-11.06c-1.17,-8.96 -1.58,-24.63 6.73,-30.67z" fill="#001b2a" stroke="none" stroke-width="0"/><path d="M300.435,175.36v0c0,0.06 -0.09,0.06 -0.09,0c0.35,-5.6 0.53,-11.22 0.46,-16.83c-0.09,-6.94 -0.55,-15.32 -8.89,-17.02c-0.53,-0.11 -0.4,-0.92 0.12,-0.92c14.59,0.05 9.29,26.58 8.4,34.78z" fill="#001b2a" stroke="none" stroke-width="0"/><path d="M298.095,137.39v0c-0.04,-0.05 0.03,-0.11 0.07,-0.07c5.88,6.23 8.94,13.99 8.81,22.56c0,0.15 -0.23,0.15 -0.23,0c0.01,-8.43 -2.96,-16.25 -8.64,-22.49z" fill="#001b2a" stroke="none" stroke-width="0"/><path d="M347.235,138.48c0.56,-0.1 0.8,0.7 0.24,0.86c-5.64,1.66 -8.78,6.63 -8.94,12.36c-0.13,4.7 2.01,11.87 8.56,10.38c2.35,-0.54 5.6,-3.04 6.7,-5.31c1.56,-3.21 -0.45,-6.7 -1.88,-9.42c-1.69,-3.22 -3.98,-5.48 -6.22,-8.25c-0.2,-0.24 -0.03,-0.72 0.34,-0.59c4.82,1.77 9.67,10.13 10.03,15.12c0.39,5.31 -6.62,10.93 -11.75,10.13c-5.45,-0.85 -7.43,-7.3 -7.24,-12.06c0.25,-6.23 3.73,-12.11 10.16,-13.22z" fill="#001b2a" stroke="none" stroke-width="0"/><path d="M345.775,134.29c0.07,-0.04 0.15,0.08 0.07,0.12c-7.06,3.89 -10.61,10.79 -11.73,18.55c-0.03,0.22 -0.36,0.15 -0.37,-0.05c-0.43,-8.07 4.97,-15.2 12.03,-18.62z" fill="#001b2a" stroke="none" stroke-width="0"/><path d="M357.775,149.45c-0.03,-0.05 0.05,-0.1 0.08,-0.05c2.66,4.97 1.08,11.2 -3.6,14.33c-0.09,0.07 -0.19,-0.09 -0.09,-0.16c4.64,-3.06 6.2,-9.2 3.61,-14.12z" fill="#001b2a" stroke="none" stroke-width="0"/><path d="M315.265,225.57v0c-0.04,0.08 -0.16,0.02 -0.13,-0.05c4.66,-11.55 21.37,-0.44 24.21,7.15c1.47,3.92 2.05,8.36 2.8,12.46c0.37,2 1.08,4.59 0.31,6.61c-0.98,2.56 -5.06,4.28 -6.04,0.83c-0.08,-0.27 0.28,-0.48 0.47,-0.27c3.81,-0.41 5.09,-2.08 3.84,-5l-0.32,-1.69c-0.29,-1.69 -0.6,-3.38 -0.9,-5.07c-0.52,-2.94 -0.91,-5.97 -2.18,-8.7c-3.04,-6.54 -17.4,-15.99 -22.06,-6.25z" fill="#001b2a" stroke="none" stroke-width="0"/><path d="M326.395,217.83c-0.12,-0.04 -0.11,-0.24 0.03,-0.23c5.33,0.57 11.22,3.82 14.48,8.09c0.11,0.14 -0.11,0.26 -0.22,0.17c-2.19,-1.7 -4.25,-3.51 -6.67,-4.87c-2.42,-1.36 -5.03,-2.2 -7.62,-3.16z" fill="#001b2a" stroke="none" stroke-width="0"/></g><g fill="#001b2a" stroke="none" stroke-width="0" opacity="0.25"><path d="M358.955,57.96v0c0.18,0.1 0.23,0.39 0.07,0.52c-3.23,2.67 -7.51,3.54 -10.91,6.29c-3.4,2.75 -6.06,6.27 -7.98,10.18c-2.31,4.71 -3.56,9.75 -4.31,14.92c-0.2,1.38 -0.93,5.88 -0.28,5.99c0.72,0.12 3.83,-3.29 4.45,-3.84c3.34,-2.95 6.67,-6.03 9.45,-9.53c2.55,-3.2 7.19,-9.65 5.66,-13.93c-2.35,-6.59 -7.3,5.66 -8.11,7.9c-1.64,4.52 -2.72,9.22 -3.18,14l-5.95,-5.95c-1.38,0.71 -1.47,0.54 -0.27,-0.53c0.82,-1.02 1.63,-2.04 2.45,-3.06c1.23,-1.53 2.48,-3.04 3.68,-4.59c1.51,-1.95 5.09,-5.9 4.35,-8.61l2.8,3.64l-0.79,-0.47l4.65,0.61c-1.47,0.31 -3.7,3.16 -5.05,4c-2.86,1.78 -6.5,-0.54 -6.55,-3.76c-0.08,-5.21 3.6,-11.35 9.19,-11.98c6.57,-0.75 8.57,5.8 7.66,11.04c-1.07,6.14 -5.14,10.9 -8.94,15.6c-3.45,4.26 -6.92,10.38 -13.17,10c-3.98,-0.24 -6.59,-3.6 -5.73,-7.53c2.05,-9.35 12.24,-39.6 26.76,-29.57c6.93,4.78 5.33,13.98 2.23,20.51c-3.3,6.96 -8.87,12.59 -14.56,17.65c-4.26,3.78 -10.6,10.08 -16.62,5.67c-5.91,-4.33 -2.49,-15.91 -0.67,-21.61c2.36,-7.4 6.41,-13.94 12.61,-18.73c4.23,-3.27 11.7,-7.61 17.09,-4.83z"/><path d="M303.145,112.87v0c0.4,0.23 0.17,0.74 -0.21,0.79c-7.1,0.95 -14.88,8.21 -14.02,15.58c1.12,9.6 14.77,4.69 16.62,-2.1c1,-3.69 -0.74,-11.36 -6.51,-8.82c-2.41,1.06 -6.66,5.28 -6.62,8.06c0.06,4.34 7.33,3.07 8.89,0.14c0.61,-1.14 0.55,-5.57 -1.82,-4.86l-0.97,1.85c-0.67,1.99 -0.35,1.62 0.96,-1.09c0.7,0.18 1.21,0.86 1.21,1.58v0.53c0.01,0.79 -0.44,1.63 -1.15,2.01l-0.55,0.29c-1.62,0.87 -3.77,0.14 -4.26,-1.73c-2.36,-9 13.19,-7.72 9.91,1.45c-2.62,7.33 -13.9,6.16 -12.54,-2.44c1.03,-6.49 8.15,-12.54 13.5,-5.93c2.37,2.92 2.56,7.65 1.08,11.03c-1.37,3.15 -4.64,4.61 -7.8,5.51c-7.27,2.08 -14.01,-2.97 -11.6,-10.84c1.89,-6.17 10.15,-14.33 17.02,-11.62c7.35,2.9 9.27,12.5 6.04,19.08c-3.37,6.87 -11.76,9.93 -19.12,7.64c-7.36,-2.29 -9.27,-11.74 -5.8,-18.13c3.1,-5.71 11.47,-11.57 17.76,-7.98z"/><path d="M343.425,144.35v0c-0.93,-0.83 -0.23,-2.68 1.06,-2.56c4.5,0.44 6.22,5.48 6.92,9.36c0.8,4.45 -0.91,9.17 -5.67,10.31l-0.72,-5.35c1.81,-0.11 5.11,-0.17 4.93,-2.68c-0.1,-1.45 -1.69,-3.6 -2.38,-4.89c-0.69,-1.29 -1.58,-3.53 -2.29,-4.51c-0.19,-0.26 -0.83,-0.54 -1.42,-1.01c-0.88,-0.7 -0.75,-2 -0.37,-2.89l0.14,-0.32c0.48,-1.09 1.95,-1.43 2.98,-1.21c2.69,0.57 3.94,3.91 5.15,6.08c1.4,2.53 3.41,5.63 3.72,8.56c0.65,6.08 -5.61,8.03 -10.47,8.32c-3.09,0.19 -3.67,-4.66 -0.72,-5.35c4.2,-0.98 1.37,-9.86 -0.87,-11.85z"/><path d="M297.845,173.87v0c-0.05,0.12 -0.23,0.14 -0.27,0c-0.63,-2.1 -4.45,-24.83 -3.92,-24.93c-1.56,0.3 -2.81,-0.65 -2.93,-2.23l-0.04,-0.56c-0.17,-2.25 2.46,-3.26 4.19,-2.4c4.23,2.11 4.66,6.65 4.97,10.92c0.49,6.69 0.48,12.94 -1.99,19.21z"/><path d="M318.255,90.94v0c-1.19,-1.54 0.78,-3.37 2.33,-3.03c3.11,0.69 5.94,1.03 8.82,-0.73c3.08,-1.88 4.51,-5.3 6.35,-8.23c0.69,-1.1 1.88,-3.58 3.66,-3.08c1.59,0.45 1.33,2.62 1.19,3.78c-1.05,8.98 -14.67,21.28 -22.36,11.28z"/><path d="M318.685,224.87c-1.16,0.75 -2.88,-0.8 -1.99,-1.99c5.44,-7.24 15.83,-1.51 19.84,4.07c2.92,4.07 12.14,22.7 3.03,24.43c-0.89,0.17 -1.52,-0.25 -1.85,-1.05c-1.08,-2.61 0.06,-5.49 -0.63,-8.26c-0.69,-2.77 -1.74,-5.58 -2.9,-8.18c-2.21,-4.95 -9.06,-13.16 -15.5,-9.02z"/><path d="M349.055,196.53v0c0.55,-0.93 2.22,-0.3 1.8,0.76c-2.79,7.07 -4.08,14.57 -3.01,22.14c0.51,3.57 1.3,7.23 2.7,10.57c2.62,6.23 6.96,5.49 10.26,-0.16c3.71,-6.33 6.2,-14.2 4.48,-21.52c-0.78,-3.3 -2.85,-8.17 -6.34,-9.43c-5.66,-2.06 -6.57,5.08 -7.2,8.85c-0.73,4.38 -1.45,9.08 -0.09,13.43c0.45,1.43 1.51,4.31 2.94,4.96l3.51,-0.62c0.72,-1.13 1.26,-2.35 1.61,-3.66c1.04,-3.62 0.77,-7.59 0.18,-11.26c-0.26,-1.63 -0.6,-3.26 -0.97,-4.84c-0.37,-1.58 -0.24,-4.58 -2.44,-1.17c-1.58,2.45 -1.08,8.74 -1.37,11.71c-0.19,1.89 -0.51,3.81 -0.53,5.7c-0.01,1.3 -0.35,5.51 1.46,2.04c1.27,-2.42 0.21,-7.48 0.13,-10.22c-0.08,-2.74 0.79,-7.8 -1.5,-9.83l7.14,-1.89c-1.53,5.26 -4.68,13.5 -1.77,18.71l-6.38,-0.82c1.62,-1.97 3.39,-3.78 5.08,-5.69c1.43,-1.62 4.44,-0.35 4.32,1.79c-0.22,3.86 -1.29,6.62 -3.66,9.65c-1.66,2.11 -5.18,1.21 -6.38,-0.82c-4.45,-7.54 -1.57,-17.21 0.53,-25.08c0.89,-3.34 4.74,-3.86 7.14,-1.89c4.86,4.01 4.22,10.98 4.4,16.78c0.18,5.8 1.06,12.69 -3.65,17.09c-3.74,3.49 -9.67,3.61 -13.07,-0.42c-4.29,-5.08 -1.54,-12.33 -0.24,-17.99c1.08,-4.67 1.28,-11.86 5.41,-15.11c2.41,-1.9 6.15,-2.28 8.51,-0.05c3.09,2.92 3.2,9.31 3.62,13.22c0.55,5.18 0.34,10.69 -2.14,15.4c-4.7,8.92 -13.46,5.22 -16.55,-2.92c-2.04,-5.38 -1.4,-11.11 -0.49,-16.65c0.76,-4.6 1.63,-9.94 5.85,-12.73c8.13,-5.37 15.75,4.67 17.66,11.64c2.62,9.58 -0.76,22.7 -7.58,29.98c-2.92,3.12 -7.49,4.7 -11.41,2.49c-3.51,-1.98 -5.09,-6.45 -6.19,-10.09c-3.23,-10.63 -1.37,-22.55 4.22,-32.05z"/><path d="M296.755,232.44c0.04,0.09 -0.04,0.17 -0.13,0.13c-5.22,-2.27 -10.34,-12.05 -7.84,-17.59c3.22,-7.12 12.04,4.1 13.95,7.06c1.76,2.74 3.85,6.42 3.29,9.82c-0.45,2.73 -2.76,4.64 -5.56,4.25c-7.99,-1.12 -9.51,-14.03 -11.12,-20.09c-0.61,-2.27 2.33,-4.11 4.01,-2.34c4.64,4.88 8.83,10.88 10.62,17.44c0.69,2.51 -3.18,4.27 -4.28,1.81c-2.64,-5.9 -5.24,-11.09 -9.73,-15.85l4.01,-2.34c1.11,4.24 1.84,9.03 3.88,12.95c0.73,1.4 3.99,4.92 3.16,1.46c-0.46,-1.9 -1.38,-3.67 -2.4,-5.41c-1.02,-1.74 -2.45,-4.23 -4.16,-5.34c-0.67,-0.43 -1.91,-1.5 -2.77,-0.41c-0.41,0.51 0.22,2.99 0.34,3.64c0.73,4.03 3.08,7.18 4.73,10.81z"/><path d="M358.865,281.64v0c0.17,0.31 0.05,0.84 -0.36,0.9c-0.68,0.1 -1.32,0.3 -2,0.36l1.79,-1.36c-0.07,0.25 -0.13,0.49 -0.23,0.73c-0.12,0.31 -0.13,0.33 -0.04,0.08c-0.04,0.12 -0.07,0.23 -0.1,0.35c0.09,-0.34 0.01,-0.04 0.01,0.16c0.01,-0.34 -0.01,-0.08 0.04,0.14c-0.08,-0.33 -0.05,-0.08 0.08,0.11c-0.15,-0.19 -0.17,-0.23 -0.06,-0.12c0.11,0.1 0.08,0.07 -0.1,-0.09c-0.16,-0.05 -0.62,-0.04 -0.29,-0.09c-0.08,0.01 -0.72,0.23 -0.35,0.05c-0.43,0.21 -0.06,0.04 0.07,-0.08c-0.34,0.3 -0.05,0.08 0.04,-0.09c-0.12,0.29 -0.14,0.31 -0.07,0.08l-0.05,0.28c0.12,0.61 0.2,0.68 0.81,0.9c0.56,0.2 0.82,0.27 1.26,-0.15c0.57,-0.55 -0.18,0.36 -0.39,0.52c-0.7,0.53 -1.64,0.63 -2.4,0.17c-0.76,-0.46 -1.33,-1.56 -0.99,-2.44c0.48,-1.25 1.47,-2.19 2.88,-2.26c1.16,-0.06 2.18,0.58 2.77,1.57c1.11,1.86 0.16,4.37 -1.67,5.37c-1.95,1.07 -4.39,0.25 -5.33,-1.76c-0.82,-1.75 -0.65,-4.67 1.38,-5.53c0.94,-0.4 1.96,-0.27 2.54,0.67c0.29,0.48 0.48,1.05 0.75,1.55z"/><path d="M325.375,117.53v0c0.31,-0.13 0.64,-0.24 0.98,-0.13c0.21,0.07 0.4,0.18 0.56,0.33c0.41,0.37 0.48,1.07 0.2,1.53c-0.01,0.02 -0.03,0.06 -0.03,0.06l0.13,-0.31c-0.01,0.03 -0.02,0.07 -0.02,0.07l0.05,-0.35c0,0.03 0,0.1 0,0.1l-0.05,-0.36c0.01,0.04 0.04,0.13 0.04,0.13l-0.14,-0.33c0.03,0.04 0.08,0.12 0.08,0.12l-0.22,-0.29c0.13,0.14 0.23,0.29 0.34,0.44l-0.23,-0.29c0.03,0.03 0.08,0.08 0.08,0.08l-0.29,-0.23c0.03,0.03 0.09,0.06 0.09,0.06l-0.35,-0.15c0.03,0.02 0.1,0.03 0.1,0.03l-0.39,-0.05c0.02,0 0.07,0 0.07,0l-0.39,0.05c0.03,-0.01 0.1,-0.03 0.1,-0.03l-0.35,0.15c0.03,-0.01 0.08,-0.05 0.08,-0.05l-0.29,0.23c0.03,-0.02 0.07,-0.07 0.07,-0.07l-0.23,0.29c0.02,-0.03 0.05,-0.09 0.05,-0.09l-0.15,0.35c0.02,-0.05 0.04,-0.1 0.04,-0.16l-0.05,0.39c0,-0.05 0,-0.14 0,-0.14l0.05,0.39c0,-0.05 -0.02,-0.11 -0.04,-0.16l0.15,0.35c-0.01,-0.03 -0.03,-0.05 -0.05,-0.08c-0.17,-0.26 -0.21,-0.63 -0.17,-0.93c0.05,-0.33 0.19,-0.58 0.4,-0.83c0.01,-0.02 0.27,-0.22 0.29,-0.23c0.34,-0.21 0.74,-0.24 1.12,-0.15c0.38,0.09 0.66,0.37 0.87,0.67c0.19,0.28 0.27,0.65 0.29,0.98c0.01,0.23 -0.02,0.48 -0.1,0.69c-0.28,0.77 -0.94,1.32 -1.78,1.3c-0.95,-0.02 -1.75,-0.81 -1.8,-1.76c-0.03,-0.61 0.3,-1.35 0.89,-1.61z"/><path d="M362.155,44.37v0c0.28,-0.04 0.54,0.05 0.66,0.33c0.1,0.24 0.02,0.57 -0.23,0.7c-0.1,0.05 0.06,-0.07 0.02,-0.03c-0.04,0.05 0.08,-0.11 0.04,-0.05c0.01,-0.03 0.03,-0.1 0.03,-0.13c0,0.01 0,0.04 0,0.06c0,0.07 -0.01,-0.14 0,-0.07c0.03,0.14 -0.05,-0.12 0,0c0.04,0.09 -0.01,-0.02 -0.04,-0.05c-0.1,-0.1 -0.25,-0.16 -0.38,-0.16c0.09,0.01 -0.13,0.02 -0.13,0.02c0.09,-0.02 -0.12,0.05 -0.12,0.05c0,0 -0.18,0.16 -0.11,0.08c0.01,-0.01 -0.14,0.21 -0.09,0.11c0.01,-0.02 -0.12,0.26 -0.07,0.15c0.01,-0.02 0.01,-0.07 0.01,-0.07l-0.04,0.29c0,-0.04 0,-0.13 0,-0.13l0.04,0.31c-0.01,-0.06 -0.03,-0.11 -0.05,-0.16l0.13,0.3c-0.13,-0.25 -0.19,-0.46 -0.21,-0.75c-0.04,-0.73 0.63,-1.27 1.3,-1.3c0.33,-0.01 0.69,0.15 0.92,0.38c0.24,0.25 0.37,0.58 0.38,0.92c0.03,0.7 -0.57,1.33 -1.22,1.49c-0.53,0.13 -1.12,-0.06 -1.4,-0.54c-0.03,-0.07 -0.06,-0.15 -0.09,-0.22c-0.03,-0.1 0.08,0.15 0.04,0.07c-0.04,-0.09 -0.09,-0.18 -0.11,-0.27c-0.04,-0.2 -0.05,-0.41 0,-0.61c0.08,-0.35 0.36,-0.68 0.72,-0.74z"/><path d="M367.155,144.34c0.14,0.24 0.21,0.51 0.21,0.79c0,0.28 -0.07,0.54 -0.21,0.79c-0.28,0.48 -0.8,0.78 -1.36,0.78c-0.56,0 -1.08,-0.3 -1.36,-0.78c-0.14,-0.24 -0.21,-0.51 -0.21,-0.79c0,-0.28 0.07,-0.54 0.21,-0.79l0.02,-0.03c0.14,-0.24 0.33,-0.42 0.56,-0.56c0.24,-0.14 0.5,-0.21 0.78,-0.21c0.28,0 0.54,0.07 0.78,0.21c0.24,0.14 0.42,0.33 0.56,0.56l0.02,0.03z"/><path d="M320.015,209.32v0c0.16,-0.69 0.85,-1.1 1.54,-1.01c0.69,0.09 1.22,0.68 1.22,1.38c0,0.23 -0.06,-0.31 -0.03,-0.19c0.02,0.07 0,0.04 -0.05,-0.1c-0.03,-0.1 -0.07,-0.17 -0.14,-0.24c-0.17,-0.21 -0.09,-0.1 -0.04,-0.06c0.11,0.1 -0.31,-0.22 -0.18,-0.14c0.1,0.06 -0.34,-0.1 -0.22,-0.09c0.02,0 0.08,0.02 0.1,0.03c0.08,0.04 -0.34,-0.02 -0.25,-0.03c0.03,0 0.08,0 0.11,0c0.24,0.02 -0.2,0 -0.23,0.04c0.01,-0.01 0.08,-0.02 0.1,-0.02c0.19,-0.06 -0.25,0.11 -0.23,0.11c0.03,-0.02 0.06,-0.03 0.09,-0.05c0.02,-0.01 -0.34,0.3 -0.21,0.16c0.01,-0.01 -0.26,0.39 -0.17,0.22c0.01,-0.01 -0.15,0.45 -0.11,0.26c0,-0.02 -0.05,0.49 -0.05,0.28c-0.01,-0.76 0.51,-1.39 1.23,-1.62c0.72,-0.23 1.5,0.16 1.89,0.77c0.29,0.45 0.34,0.93 0.31,1.45c-0.02,0.23 -0.03,0.47 -0.08,0.7c-0.08,0.36 -0.3,0.63 -0.53,0.92c-0.5,0.63 -1.77,0.63 -2.28,0c-0.23,-0.29 -0.43,-0.55 -0.53,-0.92c-0.06,-0.21 -0.06,-0.47 -0.08,-0.7c-0.04,-0.51 0.02,-0.99 0.3,-1.45l3.06,1.29c-0.28,1.29 -1.71,1.89 -2.88,1.6c-1.17,-0.29 -1.95,-1.37 -1.67,-2.58z"/></g></g></g></svg>