<svg version="1.1" xmlns="http://www.w3.org/2000/svg" xmlns:xlink="http://www.w3.org/1999/xlink" width="186.09556" height="186.09556" viewBox="0,0,186.09556,186.09556"><defs><linearGradient x1="146.95222" y1="180" x2="238.50142" y2="180" gradientUnits="userSpaceOnUse" id="color-1"><stop offset="0" stop-color="#ffffff" stop-opacity="0"/><stop offset="1" stop-color="#ffffff"/></linearGradient><linearGradient x1="241.49858" y1="180" x2="333.04778" y2="180" gradientUnits="userSpaceOnUse" id="color-2"><stop offset="0" stop-color="#ffffff"/><stop offset="1" stop-color="#ffffff" stop-opacity="0"/></linearGradient><linearGradient x1="240" y1="273.04778" x2="240" y2="181.49858" gradientUnits="userSpaceOnUse" id="color-3"><stop offset="0" stop-color="#ffffff" stop-opacity="0"/><stop offset="1" stop-color="#ffffff"/></linearGradient><linearGradient x1="240" y1="178.50142" x2="240" y2="86.95222" gradientUnits="userSpaceOnUse" id="color-4"><stop offset="0" stop-color="#ffffff"/><stop offset="1" stop-color="#ffffff" stop-opacity="0"/></linearGradient><linearGradient x1="174.20528" y1="245.79472" x2="238.94034" y2="181.05966" gradientUnits="userSpaceOnUse" id="color-5"><stop offset="0" stop-color="#ffffff" stop-opacity="0"/><stop offset="1" stop-color="#ffffff"/></linearGradient><linearGradient x1="241.05966" y1="178.94034" x2="305.79472" y2="114.20528" gradientUnits="userSpaceOnUse" id="color-6"><stop offset="0" stop-color="#ffffff"/><stop offset="1" stop-color="#ffffff" stop-opacity="0"/></linearGradient><linearGradient x1="174.20528" y1="114.20528" x2="238.94035" y2="178.94035" gradientUnits="userSpaceOnUse" id="color-7"><stop offset="0" stop-color="#ffffff" stop-opacity="0"/><stop offset="1" stop-color="#ffffff"/></linearGradient><linearGradient x1="241.05965" y1="181.05965" x2="305.79472" y2="245.79472" gradientUnits="userSpaceOnUse" id="color-8"><stop offset="0" stop-color="#ffffff"/><stop offset="1" stop-color="#ffffff" stop-opacity="0"/></linearGradient></defs><g transform="translate(-146.95222,-86.95222)"><g data-paper-data="{&quot;isPaintingLayer&quot;:true}" fill-rule="nonzero" stroke="none" stroke-width="0" stroke-linecap="butt" stroke-linejoin="miter" stroke-miterlimit="10" stroke-dasharray="" stroke-dashoffset="0" style="mix-blend-mode: normal"><g><path d="M146.95222,165.68982l91.5492,14.23236l-91.5492,14.388z" fill="url(#color-1)"/><path d="M333.04778,194.31018l-91.5492,-14.388l91.5492,-14.23236z" data-paper-data="{&quot;index&quot;:null}" fill="url(#color-2)"/></g><g><path d="M225.68982,273.04778l14.23236,-91.5492l14.388,91.5492z" fill="url(#color-3)"/><path d="M254.31018,86.95222l-14.388,91.5492l-14.23236,-91.5492z" data-paper-data="{&quot;index&quot;:null}" fill="url(#color-4)"/></g><g><path d="M164.08646,235.67589l74.79886,-54.67126l-54.5612,74.90892z" fill="url(#color-5)"/><path d="M315.91354,124.32411l-74.90892,54.5612l54.67126,-74.79886z" data-paper-data="{&quot;index&quot;:null}" fill="url(#color-6)"/></g><g><path d="M184.32411,104.08646l54.67126,74.79886l-74.90891,-54.56121z" fill="url(#color-7)"/><path d="M295.67589,255.91354l-54.56121,-74.90891l74.79886,54.67126z" data-paper-data="{&quot;index&quot;:null}" fill="url(#color-8)"/></g></g></g></svg>