<svg version="1.1" xmlns="http://www.w3.org/2000/svg" xmlns:xlink="http://www.w3.org/1999/xlink" width="44" height="44.5" viewBox="0,0,44,44.5"><g transform="translate(-165.5,-311.25)"><g data-paper-data="{&quot;isPaintingLayer&quot;:true}" fill-rule="nonzero" stroke="none" stroke-width="0" stroke-linecap="butt" stroke-linejoin="miter" stroke-miterlimit="10" stroke-dasharray="" stroke-dashoffset="0" style="mix-blend-mode: normal"><g fill="#000000" opacity="0.6"><path d="M184.21861,316.59075c2.53,-0.52 5.06,-0.52 7.59,0c0.45,0.11 0.9,0.22 1.35,0.34c0.58,0.21 1.15,0.42 1.73,0.63v0c0.48,0.23 0.97,0.45 1.45,0.68c0.12,0.16 0.3,0.21 0.47,0.28c0.42,0.26 0.85,0.52 1.27,0.79c0.43,0.32 0.87,0.64 1.3,0.97c0.76,0.71 1.53,1.41 2.2,2.21c2.08,2.47 3.41,5.29 3.96,8.47c0.53,3.05 0.3,6.04 -0.75,8.95c-1.45,4.04 -4.02,7.2 -7.72,9.4c-3.26,1.94 -6.81,2.74 -10.57,2.42c-3.84,-0.32 -7.24,-1.76 -10.15,-4.29c-3.26,-2.83 -5.25,-6.4 -5.93,-10.66c-0.63,-3.94 0.03,-7.69 1.9,-11.22c0.06,-0.12 0.12,-0.25 0.19,-0.37c0.08,-0.15 0.17,-0.29 0.25,-0.44c0.18,-0.19 0.31,-0.41 0.41,-0.64v-0.02c1.03,-1.44 2.21,-2.73 3.55,-3.88c0.48,-0.35 0.95,-0.71 1.43,-1.06c0.48,-0.28 0.95,-0.56 1.43,-0.85c0.03,-0.02 0.06,-0.04 0.09,-0.06v0l1.3,-0.61c0,0 0.08,-0.03 0.13,-0.04c0.57,-0.21 1.14,-0.42 1.7,-0.63c0.47,-0.12 0.94,-0.24 1.41,-0.35zM197.87861,325.72075c-0.14,-0.04 -0.27,0.01 -0.41,0.05c-6.69,1.71 -13.39,3.41 -20.09,5.12c-0.69,0.18 -1.37,0.36 -2.12,0.56c0.15,0.11 0.24,0.18 0.33,0.23c2.11,1.32 4.22,2.63 6.34,3.94c0.2,0.12 0.3,0.26 0.35,0.49c0.13,0.71 0.28,1.41 0.42,2.11c0.21,1.04 0.42,2.08 0.63,3.12c0.16,-0.01 0.24,-0.11 0.32,-0.17c0.73,-0.55 1.46,-1.08 2.17,-1.65c0.25,-0.2 0.37,-0.15 0.58,0.05c1.6,1.55 3.2,3.08 4.81,4.62c0.08,0.07 0.13,0.18 0.27,0.19c0.04,-0.11 0.08,-0.21 0.12,-0.32c1.81,-5.27 3.62,-10.53 5.43,-15.8c0.29,-0.84 0.63,-1.67 0.84,-2.54v-0.02v0.03z"/><path d="M198.87861,326.72075c-0.21,0.87 -0.55,1.7 -0.84,2.54c-1.8,5.27 -3.62,10.54 -5.43,15.8c-0.04,0.11 -0.08,0.21 -0.12,0.32c-0.14,0 -0.19,-0.12 -0.27,-0.19c-1.61,-1.54 -3.21,-3.07 -4.81,-4.62c-0.21,-0.2 -0.33,-0.24 -0.58,-0.05c-0.71,0.57 -1.45,1.1 -2.17,1.65c-0.09,0.07 -0.16,0.16 -0.32,0.17c-0.21,-1.04 -0.42,-2.08 -0.63,-3.12c-0.14,-0.7 -0.3,-1.41 -0.42,-2.11c-0.04,-0.23 -0.15,-0.37 -0.35,-0.49c-2.12,-1.31 -4.22,-2.62 -6.34,-3.94c-0.09,-0.06 -0.18,-0.13 -0.33,-0.23c0.75,-0.2 1.44,-0.38 2.12,-0.56c6.69,-1.71 13.39,-3.41 20.09,-5.12c0.13,-0.03 0.27,-0.08 0.41,-0.05v0zM198.09861,327.35075c-0.17,-0.05 -0.26,0.09 -0.36,0.16c-1.44,1.02 -2.88,2.05 -4.32,3.08c-2.72,1.94 -5.45,3.89 -8.17,5.83c-0.12,0.09 -0.3,0.14 -0.25,0.37c0.15,0.7 0.3,1.41 0.43,2.11c0.04,0.19 0.11,0.2 0.24,0.09c0.23,-0.19 0.47,-0.39 0.69,-0.59c3.83,-3.58 7.66,-7.16 11.49,-10.74c0.09,-0.09 0.24,-0.15 0.25,-0.31z"/><path d="M197.87861,325.72075c-0.21,0.87 -0.55,1.7 -0.84,2.54c-1.8,5.27 -3.62,10.54 -5.43,15.8c-0.04,0.11 -0.08,0.21 -0.12,0.32c-0.14,0 -0.19,-0.12 -0.27,-0.19c-1.61,-1.54 -3.21,-3.07 -4.81,-4.62c-0.21,-0.2 -0.33,-0.24 -0.58,-0.05c-0.71,0.57 -1.45,1.1 -2.17,1.65c-0.09,0.07 -0.16,0.16 -0.32,0.17c-0.21,-1.04 -0.42,-2.08 -0.63,-3.12c-0.14,-0.7 -0.3,-1.41 -0.42,-2.11c-0.04,-0.23 -0.15,-0.37 -0.35,-0.49c-2.12,-1.31 -4.22,-2.62 -6.34,-3.94c-0.09,-0.06 -0.18,-0.13 -0.33,-0.23c0.75,-0.2 1.44,-0.38 2.12,-0.56c6.69,-1.71 13.39,-3.41 20.09,-5.12c0.13,-0.03 0.27,-0.08 0.41,-0.05v0zM197.09861,326.35075c-0.17,-0.05 -0.26,0.09 -0.36,0.16c-1.44,1.02 -2.88,2.05 -4.32,3.08c-2.72,1.94 -5.45,3.89 -8.17,5.83c-0.12,0.09 -0.3,0.14 -0.25,0.37c0.15,0.7 0.3,1.41 0.43,2.11c0.04,0.19 0.11,0.2 0.24,0.09c0.23,-0.19 0.47,-0.39 0.69,-0.59c3.83,-3.58 7.66,-7.16 11.49,-10.74c0.09,-0.09 0.24,-0.15 0.25,-0.31z"/><path d="M197.09861,326.35075c0,0.17 -0.15,0.23 -0.25,0.31c-3.83,3.58 -7.66,7.16 -11.49,10.74c-0.22,0.21 -0.46,0.4 -0.69,0.59c-0.13,0.11 -0.2,0.1 -0.24,-0.09c-0.13,-0.71 -0.28,-1.41 -0.43,-2.11c-0.05,-0.23 0.13,-0.28 0.25,-0.37c2.72,-1.95 5.45,-3.89 8.17,-5.83c1.44,-1.03 2.88,-2.05 4.32,-3.08c0.1,-0.07 0.19,-0.21 0.36,-0.16z"/></g><path d="M183.21861,315.59075c2.53,-0.52 5.06,-0.52 7.59,0c0.45,0.11 0.9,0.22 1.35,0.34c0.58,0.21 1.15,0.42 1.73,0.63v0c0.48,0.23 0.97,0.45 1.45,0.68c0.12,0.16 0.3,0.21 0.47,0.28c0.42,0.26 0.85,0.52 1.27,0.79c0.43,0.32 0.87,0.64 1.3,0.97c0.76,0.71 1.53,1.41 2.2,2.21c2.08,2.47 3.41,5.29 3.96,8.47c0.53,3.05 0.3,6.04 -0.75,8.95c-1.45,4.04 -4.02,7.2 -7.72,9.4c-3.26,1.94 -6.81,2.74 -10.57,2.42c-3.84,-0.32 -7.24,-1.76 -10.15,-4.29c-3.26,-2.83 -5.25,-6.4 -5.93,-10.66c-0.63,-3.94 0.03,-7.69 1.9,-11.22c0.06,-0.12 0.12,-0.25 0.19,-0.37c0.08,-0.15 0.17,-0.29 0.25,-0.44c0.18,-0.19 0.31,-0.41 0.41,-0.64v-0.02c1.03,-1.44 2.21,-2.73 3.55,-3.88c0.48,-0.35 0.95,-0.71 1.43,-1.06c0.48,-0.28 0.95,-0.56 1.43,-0.85c0.03,-0.02 0.06,-0.04 0.09,-0.06v0l1.3,-0.61c0,0 0.08,-0.03 0.13,-0.04c0.57,-0.21 1.14,-0.42 1.7,-0.63c0.47,-0.12 0.94,-0.24 1.41,-0.35zM196.87861,324.72075c-0.14,-0.04 -0.27,0.01 -0.41,0.05c-6.69,1.71 -13.39,3.41 -20.09,5.12c-0.69,0.18 -1.37,0.36 -2.12,0.56c0.15,0.11 0.24,0.18 0.33,0.23c2.11,1.32 4.22,2.63 6.34,3.94c0.2,0.12 0.3,0.26 0.35,0.49c0.13,0.71 0.28,1.41 0.42,2.11c0.21,1.04 0.42,2.08 0.63,3.12c0.16,-0.01 0.24,-0.11 0.32,-0.17c0.73,-0.55 1.46,-1.08 2.17,-1.65c0.25,-0.2 0.37,-0.15 0.58,0.05c1.6,1.55 3.2,3.08 4.81,4.62c0.08,0.07 0.13,0.18 0.27,0.19c0.04,-0.11 0.08,-0.21 0.12,-0.32c1.81,-5.27 3.62,-10.53 5.43,-15.8c0.29,-0.84 0.63,-1.67 0.84,-2.54v-0.02v0.03z" fill="#10a9dd"/><path d="M197.87861,325.72075c-0.21,0.87 -0.55,1.7 -0.84,2.54c-1.8,5.27 -3.62,10.54 -5.43,15.8c-0.04,0.11 -0.08,0.21 -0.12,0.32c-0.14,0 -0.19,-0.12 -0.27,-0.19c-1.61,-1.54 -3.21,-3.07 -4.81,-4.62c-0.21,-0.2 -0.33,-0.24 -0.58,-0.05c-0.71,0.57 -1.45,1.1 -2.17,1.65c-0.09,0.07 -0.16,0.16 -0.32,0.17c-0.21,-1.04 -0.42,-2.08 -0.63,-3.12c-0.14,-0.7 -0.3,-1.41 -0.42,-2.11c-0.04,-0.23 -0.15,-0.37 -0.35,-0.49c-2.12,-1.31 -4.22,-2.62 -6.34,-3.94c-0.09,-0.06 -0.18,-0.13 -0.33,-0.23c0.75,-0.2 1.44,-0.38 2.12,-0.56c6.69,-1.71 13.39,-3.41 20.09,-5.12c0.13,-0.03 0.27,-0.08 0.41,-0.05zM197.09861,326.35075c-0.17,-0.05 -0.26,0.09 -0.36,0.16c-1.44,1.02 -2.88,2.05 -4.32,3.08c-2.72,1.94 -5.45,3.89 -8.17,5.83c-0.12,0.09 -0.3,0.14 -0.25,0.37c0.15,0.7 0.3,1.41 0.43,2.11c0.04,0.19 0.11,0.2 0.24,0.09c0.23,-0.19 0.47,-0.39 0.69,-0.59c3.83,-3.58 7.66,-7.16 11.49,-10.74c0.09,-0.09 0.24,-0.15 0.25,-0.31z" fill="#000000"/><path d="M196.87861,324.72075c-0.21,0.87 -0.55,1.7 -0.84,2.54c-1.8,5.27 -3.62,10.54 -5.43,15.8c-0.04,0.11 -0.08,0.21 -0.12,0.32c-0.14,0 -0.19,-0.12 -0.27,-0.19c-1.61,-1.54 -3.21,-3.07 -4.81,-4.62c-0.21,-0.2 -0.33,-0.24 -0.58,-0.05c-0.71,0.57 -1.45,1.1 -2.17,1.65c-0.09,0.07 -0.16,0.16 -0.32,0.17c-0.21,-1.04 -0.42,-2.08 -0.63,-3.12c-0.14,-0.7 -0.3,-1.41 -0.42,-2.11c-0.04,-0.23 -0.15,-0.37 -0.35,-0.49c-2.12,-1.31 -4.22,-2.62 -6.34,-3.94c-0.09,-0.06 -0.18,-0.13 -0.33,-0.23c0.75,-0.2 1.44,-0.38 2.12,-0.56c6.69,-1.71 13.39,-3.41 20.09,-5.12c0.13,-0.03 0.27,-0.08 0.41,-0.05v0zM196.09861,325.35075c-0.17,-0.05 -0.26,0.09 -0.36,0.16c-1.44,1.02 -2.88,2.05 -4.32,3.08c-2.72,1.94 -5.45,3.89 -8.17,5.83c-0.12,0.09 -0.3,0.14 -0.25,0.37c0.15,0.7 0.3,1.41 0.43,2.11c0.04,0.19 0.11,0.2 0.24,0.09c0.23,-0.19 0.47,-0.39 0.69,-0.59c3.83,-3.58 7.66,-7.16 11.49,-10.74c0.09,-0.09 0.24,-0.15 0.25,-0.31z" fill="#fefefe"/><path d="M196.09861,325.35075c0,0.17 -0.15,0.23 -0.25,0.31c-3.83,3.58 -7.66,7.16 -11.49,10.74c-0.22,0.21 -0.46,0.4 -0.69,0.59c-0.13,0.11 -0.2,0.1 -0.24,-0.09c-0.13,-0.71 -0.28,-1.41 -0.43,-2.11c-0.05,-0.23 0.13,-0.28 0.25,-0.37c2.72,-1.95 5.45,-3.89 8.17,-5.83c1.44,-1.03 2.88,-2.05 4.32,-3.08c0.1,-0.07 0.19,-0.21 0.36,-0.16z" fill="#10a9dd"/><path d="M165.5,355.75v-44.5h44v44.5z" fill="none"/></g></g></svg>