<svg version="1.1" xmlns="http://www.w3.org/2000/svg" xmlns:xlink="http://www.w3.org/1999/xlink" width="375" height="683.51652" viewBox="0,0,375,683.51652"><g transform="translate(0.125,9.00901)"><g data-paper-data="{&quot;isPaintingLayer&quot;:true}" fill-rule="nonzero" stroke="none" stroke-width="0" stroke-linecap="butt" stroke-linejoin="miter" stroke-miterlimit="10" stroke-dasharray="" stroke-dashoffset="0" style="mix-blend-mode: normal"><path d="M-0.125,674.50751v-683.51652h375v683.51652z" fill="#001b2a"/><g fill="#ffd57f"><path d="M207.515,409.68l-2.22,-0.74l-1.38,1.88l0.02,-2.34l-2.22,-0.73l2.23,-0.71l0.01,-2.33l1.36,1.9l2.23,-0.71l-1.39,1.88z"/><path d="M210.245,403.29l-1.11,-3.43h-3.61l2.92,-2.12l-1.12,-3.42l2.92,2.11l2.91,-2.11l-1.11,3.42l2.92,2.12h-3.61z"/><path d="M218.625,408.17h-2.8l-0.86,2.66l-0.87,-2.66h-2.8l2.27,-1.65l-0.87,-2.66l2.27,1.65l2.26,-1.65l-0.87,2.66z"/><path d="M231.965,471.06l-2.22,-0.74l-1.38,1.88l0.02,-2.34l-2.22,-0.74l2.23,-0.7l0.01,-2.33l1.36,1.89l2.23,-0.7l-1.39,1.88z"/><path d="M234.695,464.67l-1.11,-3.43h-3.61l2.92,-2.12l-1.12,-3.43l2.92,2.12l2.91,-2.12l-1.11,3.43l2.92,2.12h-3.61z"/><path d="M250.345,464.01h-2.8l-0.86,2.66l-0.87,-2.66h-2.79l2.26,-1.64l-0.87,-2.66l2.27,1.64l2.26,-1.64l-0.86,2.66z"/><path d="M285.445,442.07l-2.22,-0.74l-1.39,1.88l0.02,-2.33l-2.21,-0.74l2.22,-0.71l0.02,-2.33l1.36,1.9l2.22,-0.71l-1.38,1.88z"/><path d="M288.175,435.68l-1.12,-3.43h-3.6l2.91,-2.11l-1.11,-3.43l2.92,2.12l2.91,-2.12l-1.11,3.43l2.91,2.11h-3.6z"/><path d="M280.075,422.78h-2.8l-0.87,2.66l-0.86,-2.66h-2.8l2.27,-1.65l-0.87,-2.66l2.26,1.65l2.27,-1.65l-0.87,2.66z"/><path d="M253.065,513.58l2.04,-1.14l-0.45,-2.29l1.71,1.59l2.04,-1.14l-0.98,2.12l1.71,1.59l-2.32,-0.28l-0.98,2.12l-0.45,-2.29z"/><path d="M255.935,519.9l3.28,1.5l2.44,-2.66l-0.41,3.58l3.28,1.49l-3.53,0.72l-0.4,3.58l-1.78,-3.13l-3.53,0.72l2.43,-2.66z"/><path d="M246.685,522.79l1.89,-2.06l-1.38,-2.43l2.54,1.15l1.89,-2.06l-0.31,2.78l2.54,1.16l-2.74,0.56l-0.31,2.78l-1.38,-2.44z"/><path d="M208.755,560.59l-0.15,-3.89l-3.74,-1.05l3.64,-1.35l-0.15,-3.88l2.41,3.05l3.64,-1.34l-2.15,3.23l2.4,3.05l-3.74,-1.05z"/><path d="M220.315,561.08l4.68,-3.75l-2.12,-5.61l5.02,3.29l4.68,-3.75l-1.58,5.79l5.01,3.29l-5.99,0.28l-1.58,5.79l-2.12,-5.61z"/><path d="M217.645,577l-1.65,-4.36l-4.65,0.22l3.64,-2.91l-1.65,-4.36l3.89,2.56l3.64,-2.91l-1.23,4.49l3.89,2.56l-4.65,0.22z"/><path d="M153.825,212.78l-1.35,-1.91l-2.23,0.69l1.4,-1.87l-1.34,-1.91l2.21,0.76l1.4,-1.87l-0.04,2.33l2.21,0.76l-2.23,0.69z"/><path d="M159.815,209.26l1.14,-3.42l-2.9,-2.14l3.6,0.03l1.14,-3.42l1.09,3.44l3.6,0.02l-2.93,2.1l1.09,3.43l-2.9,-2.14z"/><path d="M163.655,218.16l-2.25,-1.66l-2.28,1.63l0.89,-2.65l-2.25,-1.67l2.79,0.03l0.89,-2.66l0.84,2.67l2.8,0.02l-2.28,1.63z"/><path d="M137.045,276.68l-1.35,-1.91l-2.23,0.69l1.4,-1.87l-1.34,-1.9l2.21,0.75l1.4,-1.87l-0.04,2.34l2.21,0.75l-2.23,0.69z"/><path d="M143.035,273.16l1.14,-3.42l-2.9,-2.14l3.6,0.03l1.14,-3.42l1.09,3.44l3.6,0.03l-2.93,2.09l1.09,3.44l-2.9,-2.14z"/><path d="M156.015,281.93l-2.25,-1.66l-2.28,1.63l0.89,-2.66l-2.25,-1.66l2.79,0.02l0.89,-2.65l0.84,2.66l2.8,0.03l-2.28,1.62z"/><path d="M197.275,285.12l-1.34,-1.91l-2.23,0.69l1.4,-1.87l-1.34,-1.91l2.21,0.76l1.4,-1.87l-0.04,2.33l2.21,0.76l-2.23,0.69z"/><path d="M203.275,281.6l1.13,-3.42l-2.89,-2.14l3.6,0.03l1.14,-3.42l1.09,3.44l3.6,0.02l-2.93,2.1l1.09,3.43l-2.9,-2.14z"/><path d="M204.415,266.41l-2.25,-1.66l-2.27,1.62l0.88,-2.65l-2.25,-1.66l2.8,0.02l0.88,-2.65l0.85,2.66l2.79,0.02l-2.27,1.63z"/><path d="M128.765,323.42l2.32,0.3l0.99,-2.11l0.44,2.3l2.31,0.29l-2.05,1.12l0.44,2.3l-1.7,-1.6l-2.05,1.12l1,-2.11z"/><path d="M127.315,330.22l1.76,3.15l3.53,-0.69l-2.45,2.64l1.76,3.14l-3.27,-1.51l-2.46,2.64l0.44,-3.58l-3.27,-1.52l3.53,-0.69z"/><path d="M118.155,327.05l2.75,-0.54l0.33,-2.78l1.36,2.45l2.75,-0.54l-1.91,2.05l1.37,2.44l-2.54,-1.18l-1.91,2.05l0.34,-2.77z"/><path d="M65.195,334.93l2.19,-3.21l-2.39,-3.07l3.74,1.08l2.18,-3.21l0.12,3.88l3.74,1.08l-3.66,1.32l0.12,3.89l-2.38,-3.07z"/><path d="M74.205,342.2l6,-0.24l1.62,-5.78l2.08,5.63l6,-0.24l-4.71,3.72l2.07,5.63l-4.98,-3.33l-4.71,3.71l1.62,-5.77z"/><path d="M62.605,353.42l1.26,-4.49l-3.87,-2.58l4.65,-0.19l1.26,-4.48l1.62,4.37l4.65,-0.18l-3.66,2.88l1.62,4.37l-3.88,-2.59z"/><path d="M305.095,152.19l1.68,-1.62l-1.03,-2.1l2.06,1.09l1.68,-1.62l-0.4,2.3l2.06,1.1l-2.31,0.32l-0.41,2.3l-1.02,-2.1z"/><path d="M309.495,157.57l3.55,0.6l1.67,-3.2l0.53,3.57l3.55,0.59l-3.23,1.61l0.53,3.56l-2.52,-2.57l-3.23,1.6l1.67,-3.19z"/><path d="M301.285,162.74l1.3,-2.48l-1.96,-2l2.76,0.46l1.29,-2.48l0.41,2.77l2.76,0.46l-2.5,1.25l0.41,2.77l-1.96,-2z"/><path d="M239.365,145.46l1.68,-1.62l-1.02,-2.1l2.06,1.1l1.68,-1.62l-0.41,2.3l2.06,1.09l-2.31,0.33l-0.4,2.3l-1.03,-2.1z"/><path d="M243.765,150.84l3.56,0.6l1.66,-3.19l0.53,3.56l3.55,0.6l-3.22,1.6l0.53,3.57l-2.53,-2.58l-3.22,1.61l1.67,-3.2z"/><path d="M237.105,165.02l1.3,-2.48l-1.96,-2l2.76,0.47l1.29,-2.48l0.41,2.76l2.76,0.47l-2.51,1.24l0.42,2.77l-1.96,-2z"/><path d="M240.315,206.28l1.68,-1.62l-1.02,-2.1l2.06,1.1l1.68,-1.62l-0.41,2.3l2.06,1.09l-2.31,0.33l-0.4,2.3l-1.03,-2.1z"/><path d="M244.725,211.66l3.55,0.6l1.67,-3.2l0.52,3.57l3.56,0.6l-3.23,1.6l0.53,3.57l-2.52,-2.58l-3.23,1.61l1.67,-3.2z"/><path d="M259.905,210.45l1.3,-2.48l-1.96,-2l2.76,0.47l1.29,-2.48l0.41,2.77l2.76,0.46l-2.5,1.25l0.41,2.76l-1.96,-1.99z"/><path d="M191.905,144.5l0.07,2.33l2.23,0.66l-2.2,0.78l0.07,2.34l-1.42,-1.86l-2.2,0.79l1.32,-1.93l-1.43,-1.85l2.24,0.66z"/><path d="M184.965,144.12l-2.84,2.21l1.23,3.39l-2.98,-2.02l-2.84,2.22l0.99,-3.46l-2.99,-2.02l3.61,-0.12l0.99,-3.47l1.23,3.39z"/><path d="M186.695,134.57l0.95,2.63l2.8,-0.1l-2.21,1.73l0.96,2.62l-2.32,-1.56l-2.2,1.72l0.77,-2.69l-2.32,-1.56l2.79,-0.1z"/><path d="M170.735,83.47l3.51,1.66l2.67,-2.83l-0.5,3.85l3.52,1.66l-3.82,0.72l-0.5,3.86l-1.86,-3.41l-3.82,0.72l2.66,-2.83z"/><path d="M164.945,93.49l1.16,5.88l5.96,0.72l-5.24,2.92l1.16,5.89l-4.4,-4.09l-5.24,2.93l2.52,-5.45l-4.4,-4.08l5.96,0.72z"/><path d="M152.075,83.75l4.62,0.56l1.96,-4.23l0.9,4.57l4.62,0.56l-4.07,2.26l0.9,4.57l-3.41,-3.16l-4.07,2.26l1.96,-4.22z"/></g></g></g></svg>