<svg version="1.1" xmlns="http://www.w3.org/2000/svg" xmlns:xlink="http://www.w3.org/1999/xlink" width="391.47333" height="180.55852" viewBox="0,0,391.47333,180.55852"><g transform="translate(7.98553,-180.70045)"><g data-paper-data="{&quot;isPaintingLayer&quot;:true}" fill-rule="nonzero" stroke="none" stroke-width="0" stroke-linecap="butt" stroke-linejoin="miter" stroke-miterlimit="10" stroke-dasharray="" stroke-dashoffset="0" style="mix-blend-mode: normal"><g><path d="M375.2909,254.25712c4.97484,6.06931 4.09358,15.05246 -1.97573,20.02732c-2.28844,1.87623 -5.1312,2.98491 -8.07347,3.1839c-0.34113,0.38378 -0.69647,0.73912 -1.09447,1.08025c-2.40214,2.07522 -5.42969,3.22655 -8.52831,3.22655c-4.05095,0 -7.84605,-1.89044 -10.40453,-5.20227l-14.71133,-18.96127v5.67133c0,6.43887 -4.3068,11.88278 -10.19133,13.63108c-2.459,2.97069 -6.06931,4.86114 -10.09184,4.86114v0c-5.48654,0 -10.20554,-3.49661 -12.29498,-8.48567c-1.10868,1.10868 -2.40214,2.03258 -3.83774,2.74327c-2.44478,3.46818 -6.35359,5.72818 -10.75989,5.72818c-6.95057,0 -12.66454,-5.62868 -13.34681,-12.80668c-0.45485,0.52591 -0.93811,1.0234 -1.4356,1.50667c-0.07107,0.05685 -0.14214,0.12792 -0.19899,0.18479c-0.95233,1.44981 -2.03258,2.81434 -3.25497,4.07938c-4.16466,4.3068 -11.79749,9.42378 -24.51889,9.42378c-0.39798,0 -0.81019,-0.01422 -1.22239,-0.01422c-13.37524,-0.38378 -22.48631,-5.51497 -29.66431,-10.48982c-0.54013,-0.38378 -1.03761,-0.81019 -1.52088,-1.25082c-0.85283,2.51585 -2.35949,4.719 -4.40629,6.39623c-2.38793,1.9473 -5.2307,2.97069 -8.22981,2.97069c-4.2073,0 -8.08768,-2.01837 -10.64617,-5.52919l-14.76819,-20.19788h-6.45309v11.499c0,7.84605 -6.02667,14.22807 -13.44631,14.22807c-3.5961,0 -6.96479,-1.47824 -9.50907,-4.16466c-0.82441,-0.86704 -1.50667,-1.83359 -2.07522,-2.85699c-0.04264,-0.04264 -0.0995,-0.07107 -0.14214,-0.11371c-2.33107,4.26415 -6.6663,7.13536 -11.64114,7.13536h-39.04544c-3.92302,0 -7.43384,-1.79094 -9.89283,-4.6195c-6.3678,-1.42138 -11.12944,-7.09271 -11.12944,-13.87272v-11.75486c-5.62868,5.03171 -12.87774,8.07347 -20.79486,8.07347h-10.70303v7.94554c0,7.84605 -6.02667,14.22807 -13.44631,14.22807c-3.76667,0 -7.17799,-1.6488 -9.62277,-4.3068c-0.32691,0.01422 -0.63962,0.04264 -0.96655,0.04264c-7.84605,0 -14.22807,-6.38202 -14.22807,-14.22807v-61.94395c0,-7.84605 6.38202,-14.22807 14.22807,-14.22807h25.54229c7.13536,0 13.77322,2.21736 19.25976,5.98404c4.02251,1.40718 7.68969,3.61032 10.84516,6.4673c0.86704,-7.00742 6.85107,-12.45133 14.10013,-12.45133h41.30544c5.08856,0 9.53749,2.71485 12.05335,6.75158c0.14214,0.0995 0.28428,0.19899 0.4122,0.29849c2.51585,-4.32101 7.13536,-7.05007 12.23812,-7.05007h29.82066c13.73058,0 25.48543,8.59938 30.16179,20.69537c3.36869,-13.97221 14.93876,-22.10254 32.26544,-22.10254c1.23661,0 2.51585,0.04264 3.92302,0.15635h0.27006c6.7658,0.49748 14.14278,2.84277 22.5716,7.20643c2.459,1.26504 4.36365,3.16969 5.67133,5.38705c1.00918,-1.83359 2.38793,-3.41132 4.03673,-4.60528c2.50163,-4.03673 6.979,-6.73736 12.06755,-6.73736c5.75661,0 10.71724,3.43976 12.94881,8.37195c1.26504,-1.32189 2.7717,-2.37371 4.44894,-3.0844c2.61535,-3.21233 6.59523,-5.28755 11.05837,-5.28755c7.84605,0 14.22807,6.38202 14.22807,14.22807v6.82265l11.34266,-12.43711c2.11787,-2.33107 4.86114,-3.78089 7.83183,-4.2073l0.05685,-0.05685c2.71485,-2.80012 6.35359,-4.34944 10.24819,-4.34944c3.70982,0 7.20643,1.40718 9.87863,3.97988c2.74327,2.64378 4.27837,6.19723 4.34944,9.99233c0.07107,3.7951 -1.33611,7.40542 -3.97988,10.13447l-16.34592,16.94291l21.42028,26.09663zM126.33534,249.63762c2.50163,0.75334 4.70478,2.1605 6.42466,4.03673v-10.09184c-1.46403,2.68642 -3.70982,4.83271 -6.42466,6.05511zM132.77421,229.51081v-11.21472c-1.80516,0.95233 -3.80931,1.50667 -5.9556,1.50667h-3.76667c2.01837,1.10868 3.73824,2.70063 5.01749,4.60528c1.93308,1.25082 3.55346,3.01333 4.69057,5.10278zM269.82414,230.81849v-15.37939c-0.49748,0.52591 -1.03761,1.00918 -1.60617,1.44981c-1.80516,3.42554 -4.80428,5.84189 -8.30088,6.80843c1.63459,0.81019 3.15547,1.69145 4.56265,2.62956c2.10365,1.40718 3.86617,2.91384 5.35862,4.47736zM204.44043,252.30982c0.34113,-0.90968 0.79598,-1.79094 1.35031,-2.64378c2.64378,-4.02251 7.09271,-6.42466 11.91121,-6.42466c0.07107,0 0.14214,0.01422 0.21321,0.01422c-4.56265,-3.16969 -7.9029,-7.22063 -9.89283,-11.89699c-1.35031,5.69975 -4.15045,10.9731 -8.05925,15.16618zM233.8489,249.9219c0.12792,0.05685 0.27006,0.0995 0.39798,0.14214l-0.12792,-0.07107c-0.08528,-0.02843 -0.17057,-0.04264 -0.27006,-0.07107zM235.68248,250.34831h-0.56855c1.16554,0.34113 2.38793,0.59698 3.65296,0.78176c-0.93811,-0.25584 -1.96151,-0.52591 -3.09862,-0.78176z" fill="#ffffff"/><path d="M240.5294,289.12369c-0.44063,0 -0.89548,0 -1.35031,-0.01422c-12.89196,-0.36956 -22.11675,-4.70478 -29.43688,-9.40957c-0.85283,1.08025 -1.81937,2.07522 -2.88541,2.94226c-3.2834,2.68642 -7.20643,4.09358 -11.37108,4.09358c-5.79925,0 -11.14366,-2.75749 -14.6687,-7.56177l-12.22391,-16.7297v5.08856c0,10.58932 -8.25825,19.20291 -18.42115,19.20291c-4.32101,0 -8.4146,-1.5351 -11.698,-4.36365c-3.24075,2.7717 -7.36277,4.36365 -11.65535,4.36365h-39.04544c-4.64793,0 -9.13951,-1.86201 -12.53661,-5.15963c-7.88868,-2.48743 -13.46051,-9.9497 -13.46051,-18.30743v-2.43056c-4.91799,2.43056 -10.31926,3.72403 -15.82002,3.72403h-5.72818v2.97069c0,10.58932 -8.27246,19.20291 -18.42115,19.20291c-4.27837,0 -8.32931,-1.50667 -11.5985,-4.29258c-10.12026,-0.52591 -18.19373,-8.9263 -18.19373,-19.17449v-61.94395c0,-10.58932 8.61359,-19.20291 19.20291,-19.20291h25.54229c7.68969,0 15.12353,2.24579 21.53398,6.48152c2.14629,0.79598 4.2073,1.77674 6.1546,2.95648c3.36869,-5.68553 9.56592,-9.45221 16.53071,-9.45221h41.30544c4.60528,0 8.95472,1.63459 12.36604,4.53421c3.41132,-2.88541 7.78918,-4.53421 12.35184,-4.53421h29.82066c11.61272,0 22.4721,5.52919 29.43688,14.45549c6.28252,-10.19133 17.80995,-15.86265 32.99035,-15.86265c1.36453,0 2.75749,0.05685 4.26415,0.15635h0.17057c7.57599,0.55434 15.59259,3.0844 24.6326,7.76076c1.16554,0.6112 2.26,1.32189 3.2834,2.1605c0.15635,-0.12792 0.29849,-0.25584 0.45485,-0.38378c3.5961,-5.20227 9.42378,-8.27246 15.76315,-8.27246c5.47234,0 10.60353,2.35949 14.18542,6.28252c0.04264,-0.02843 0.0995,-0.05685 0.14214,-0.07107c3.63875,-3.96566 8.72731,-6.21145 14.12857,-6.21145c8.78416,0 16.20378,5.92717 18.478,13.98643l3.41132,-3.73824c2.50163,-2.74327 5.62868,-4.60528 9.12529,-5.45812c3.53925,-3.11283 7.95975,-4.79007 12.67875,-4.79007c5.00328,0 9.73649,1.90466 13.33259,5.37284c3.6956,3.56768 5.78503,8.34353 5.87032,13.47473c0.0995,5.1312 -1.81937,9.97812 -5.37284,13.67372l-13.26152,13.759l18.60593,22.6853c6.70893,8.18718 5.51497,20.31159 -2.65799,27.02053c-2.5585,2.10365 -5.68553,3.51083 -8.95472,4.07938c-0.04264,0.02843 -0.07107,0.07107 -0.11371,0.0995c-3.29762,2.87119 -7.4907,4.44894 -11.78328,4.44894c-5.58604,0 -10.81674,-2.60113 -14.32756,-7.12114l-7.17799,-9.25321c-1.96151,4.90377 -5.91296,8.89787 -10.9731,10.84516c-3.43976,3.53925 -8.07347,5.54341 -12.92039,5.54341c-5.18805,0 -10.03498,-2.27422 -13.46051,-6.09774c-3.46818,3.85195 -8.34353,6.09774 -13.44631,6.09774c-6.21145,0 -11.72642,-3.1839 -15.06668,-8.14454c-4.91799,4.90377 -13.61687,10.53247 -27.70279,10.53247zM205.89025,263.51034l5.61448,5.24491c0.36956,0.35535 0.68227,0.6112 0.96655,0.79598c6.90793,4.79007 14.95297,9.26743 26.97789,9.60856c0.35535,0 0.71069,0.01422 1.08025,0.01422c10.9731,0 17.45461,-4.3068 20.95121,-7.9029c0.95233,-0.98075 1.83359,-2.08943 2.68642,-3.36869l0.28428,-0.44063l0.58277,-0.55434c0.4122,-0.39798 0.79598,-0.81019 1.17975,-1.23661l7.59019,-8.55674l1.08025,11.38529c0.45485,4.73321 4.06516,8.30088 8.40038,8.30088c2.62956,0 5.07434,-1.32189 6.70893,-3.62453l0.72491,-1.03761l1.1371,-0.55434c0.95233,-0.46906 1.79094,-1.06604 2.50163,-1.79094l5.24491,-5.27334l2.87119,6.86529c1.37874,3.29762 4.40629,5.42969 7.70391,5.42969c2.37371,0 4.64793,-1.10868 6.2683,-3.05598l0.96655,-1.16554l1.44981,-0.42641c3.90881,-1.15132 6.63786,-4.80428 6.63786,-8.86945v-20.19788l23.62342,30.44607c1.62038,2.07522 3.96566,3.26919 6.4673,3.26919c1.90466,0 3.76667,-0.71069 5.27334,-2.00415c0.25584,-0.21321 0.48327,-0.45485 0.71069,-0.69647l1.35031,-1.46403l1.97573,-0.12792c1.91886,-0.12792 3.78089,-0.86704 5.25912,-2.07522c3.95146,-3.24075 4.52001,-9.08265 1.27924,-13.01988l-24.23462,-29.52217l19.41612,-20.12681c1.71987,-1.77674 2.62956,-4.12201 2.58692,-6.59523c-0.04264,-2.47321 -1.05182,-4.77585 -2.82856,-6.49573c-1.73409,-1.67724 -4.00831,-2.58692 -6.42466,-2.58692c-2.53006,0 -4.90377,1.00918 -6.6663,2.82856l-1.17975,1.22239l-1.7483,0.29849c-1.86201,0.27006 -3.53925,1.17975 -4.86114,2.62956l-19.99889,21.93198v-19.67197c0,-5.10278 -4.15045,-9.25321 -9.25321,-9.25321c-2.80012,0 -5.41547,1.25082 -7.19221,3.45396l-0.78176,0.96655l-1.1371,0.48327c-1.05182,0.44063 -1.98993,1.09447 -2.80012,1.9473l-5.08856,5.30177l-3.04176,-6.69473c-1.50667,-3.31182 -4.80428,-5.45812 -8.42882,-5.45812c-3.19812,0 -6.14038,1.6488 -7.84605,4.39208l-0.5117,0.82441l-0.79598,0.56855c-1.03761,0.75334 -1.9473,1.77674 -2.60113,2.97069l-1.22239,2.20315v40.18256l-8.57095,-8.99737c-1.30767,-1.36453 -2.82856,-2.64378 -4.53421,-3.7951c-1.19397,-0.79598 -2.54428,-1.57773 -3.99409,-2.30264l-11.64114,-5.78503l12.53661,-3.45396c2.21736,-0.6112 4.06516,-2.14629 5.2307,-4.33522l0.49748,-0.93811l0.83861,-0.65384c0.42641,-0.32691 0.76754,-0.63962 1.05182,-0.93811l4.73321,-5.06013l-3.55346,-6.01246c-0.89548,-1.50667 -2.1605,-2.71485 -3.66717,-3.49661c-7.81762,-4.03673 -14.5692,-6.22566 -20.63851,-6.65208h-0.14214c-1.39296,-0.0995 -2.5727,-0.14214 -3.6956,-0.14214c-14.83926,0 -24.57575,6.49573 -27.43272,18.30743l-2.85699,11.86856l3.65296,8.59938c1.63459,3.85195 4.37787,7.13536 8.14454,9.75071l8.9263,6.19723h5.25912l0.08528,-0.28428l1.76252,0.4122c1.22239,0.28428 2.31686,0.56855 3.32604,0.83861l-2.0468,9.70806c-1.57773,-0.22742 -3.01333,-0.54013 -4.37787,-0.95233l-19.97045,-5.98404c-1.50667,0.71069 -2.80012,1.83359 -3.73824,3.2834c-0.34113,0.52591 -0.63962,1.10868 -0.88126,1.71987l-3.19812,8.18718l-12.43711,-16.09008l2.88541,-3.0844c3.32604,-3.56768 5.69975,-8.03082 6.85107,-12.90618l2.70063,-11.45636l-3.55346,-9.18214c-4.06516,-10.4756 -14.31335,-17.52567 -25.52808,-17.52567h-29.82066c-3.29762,0 -6.2683,1.71987 -7.94554,4.59108l-2.85699,4.88957l-5.54341,-4.23573l-0.5117,-0.83861c-1.71987,-2.75749 -4.64793,-4.40629 -7.83183,-4.40629h-41.30544c-4.64793,0 -8.58517,3.48239 -9.16794,8.10189l-1.17975,9.48064l-7.07849,-6.39623c-2.71485,-2.459 -5.79925,-4.29258 -9.15372,-5.45812l-0.62541,-0.21321l-0.55434,-0.38378c-4.86114,-3.34026 -10.54667,-5.11698 -16.44542,-5.11698h-25.54229c-5.10278,0 -9.25321,4.15045 -9.25321,9.25321v61.94395c0,5.10278 4.15045,9.25321 9.25321,9.25321c0.15635,0 0.29849,-0.01422 0.45485,-0.02843l2.5585,-0.17057l1.62038,1.7483c1.60617,1.7483 3.72403,2.70063 5.96982,2.70063c4.67635,0 8.47145,-4.15045 8.47145,-9.25321v-12.92039h15.67788c6.3678,0 12.56505,-2.41636 17.46882,-6.80843l8.28668,-7.41963v22.88429c0,4.29258 3.04176,8.08768 7.23485,9.02579l1.59195,0.35535l1.06604,1.23661c1.63459,1.87623 3.80931,2.89963 6.12616,2.89963h39.04544c2.95648,0 5.7424,-1.7483 7.27749,-4.54843l2.74327,-5.00328l5.44391,4.02251l0.66805,1.05182c0.39798,0.72491 0.85283,1.35031 1.33611,1.86201c1.59195,1.67724 3.68138,2.61535 5.89875,2.61535c4.67635,0 8.47145,-4.15045 8.47145,-9.25321v-16.47385h13.95801l16.26065,22.24467c1.62038,2.21736 4.03673,3.48239 6.62366,3.48239c1.86201,0 3.56768,-0.62541 5.07434,-1.84781c1.29346,-1.06604 2.27422,-2.50163 2.84277,-4.15045l2.48743,-7.26328zM218.28472,238.30918h0.05685c0,0 -0.04264,0 -0.05685,0zM137.73485,266.48104l-8.64202,-9.45221c-1.1229,-1.23661 -2.5727,-2.14629 -4.17887,-2.62956l-12.73561,-3.83774l12.12442,-5.47234c1.69145,-0.76754 3.14126,-2.14629 4.09358,-3.89459l2.53006,-4.67635l-2.53006,-4.67635c-0.72491,-1.35031 -1.77674,-2.48743 -3.01333,-3.2834l-0.86704,-0.55434l-0.56855,-0.85283c-0.83861,-1.25082 -1.96151,-2.28844 -3.26919,-3.01333l-17.02819,-9.3385h23.18279c1.25082,0 2.47321,-0.31271 3.62453,-0.9239l7.30592,-3.85195v56.42899z" fill="#ffffff"/><g><path d="M365.07115,257.71109c4.70478,6.06931 3.86617,15.05246 -1.86201,20.02732c-2.40214,2.07522 -5.42969,3.22655 -8.52831,3.22655c-4.05095,0 -7.84605,-1.89044 -10.40453,-5.20227l-18.25058,-23.53813l-3.29762,3.61032v10.88781c0,7.84605 -6.02667,14.22807 -13.44631,14.22807v0c-7.40542,0 -13.44631,-6.38202 -13.44631,-14.22807c0,7.84605 -6.18303,14.22807 -13.44631,14.22807c-7.26328,0 -13.16202,-6.09774 -13.43209,-13.70215c-1.27924,2.43056 -2.88541,4.67635 -4.8185,6.6663c-4.16466,4.3068 -11.79749,9.42378 -24.51889,9.42378c-0.39798,0 -0.81019,-0.01422 -1.22239,-0.01422c-13.37524,-0.38378 -22.48631,-5.51497 -29.66431,-10.48982c-0.54013,-0.38378 -1.03761,-0.81019 -1.52088,-1.25082c-0.85283,2.51585 -2.35949,4.719 -4.40629,6.39623c-2.38793,1.9473 -5.2307,2.97069 -8.22981,2.97069c-4.2073,0 -8.08768,-2.01837 -10.64617,-5.52919l-14.76819,-20.19788h-6.45309v11.499c0,7.84605 -6.02667,14.22807 -13.44631,14.22807c-3.5961,0 -6.96479,-1.47824 -9.50907,-4.16466c-0.86704,-0.90968 -1.59195,-1.93308 -2.17472,-3.02755c-2.33107,4.29258 -6.68051,7.19221 -11.68379,7.19221h-39.04544c-7.40542,0 -13.44631,-6.38202 -13.44631,-14.22807v-25.81235c-5.47234,10.63196 -16.13271,17.8668 -28.35663,17.8668h-10.70303v7.94554c0,7.84605 -6.04089,14.22807 -13.44631,14.22807c-7.40542,0 -13.44631,-6.38202 -13.44631,-14.22807v-61.94395c0,-7.84605 6.02667,-14.22807 13.44631,-14.22807h24.14933c12.22391,0 22.88429,7.23485 28.35663,17.8668v-3.63875c0,-7.84605 6.02667,-14.22807 13.44631,-14.22807h39.04544c5.00328,0 9.36693,2.91384 11.68379,7.20643c2.35949,-4.40629 6.78,-7.20643 11.66957,-7.20643h28.18606c12.97724,0 24.09248,8.59938 28.51299,20.69537c3.1839,-13.97221 14.11435,-22.10254 30.50292,-22.10254c1.16554,0 2.38793,0.04264 3.70982,0.15635h0.25584c6.39623,0.49748 13.37524,2.84277 21.33499,7.20643c4.06516,2.21736 6.59523,6.33938 7.14956,10.80253v-2.51585c0,-7.84605 6.04089,-14.22807 13.44631,-14.22807c7.40542,0 13.44631,6.38202 13.44631,14.22807v0c0,-7.84605 6.04089,-14.22807 13.44631,-14.22807c7.40542,0 13.44631,6.38202 13.44631,14.22807v10.0634l18.17951,-19.94203c2.5585,-2.80012 5.99824,-4.34944 9.67964,-4.34944c3.49661,0 6.82265,1.40718 9.3385,3.97988c2.58692,2.64378 4.03673,6.19723 4.1078,9.99233c0.07107,3.7951 -1.26504,7.40542 -3.76667,10.13447l-15.45046,16.94291l20.25474,26.09663zM135.77334,257.14254v-42.76947c-2.459,2.85699 -5.98404,4.64793 -9.90705,4.64793h-25.59914v2.51585h19.87096c7.40542,0 13.44631,6.38202 13.44631,14.22807c0,7.84605 -6.02667,14.22807 -13.44631,14.22807h-19.87096v2.51585h25.59914c3.92302,0 7.44805,1.80516 9.90705,4.64793zM245.36211,253.48958c-0.98075,-0.79598 -3.99409,-2.41636 -10.66039,-3.95146h-0.86704l-0.68227,-0.35535c-6.65208,-1.59195 -11.71221,-3.66717 -15.91951,-6.52416c-4.70478,-3.1839 -8.13032,-7.32013 -10.1629,-12.09598c-1.52088,6.4673 -4.91799,12.39448 -9.69384,16.80077l6.1546,8.4146c0.32691,-0.90968 0.75334,-1.79094 1.27924,-2.64378c2.50163,-4.02251 6.70893,-6.42466 11.25737,-6.42466c2.61535,0 5.15963,0.81019 7.36277,2.33107c4.87535,3.38289 9.36693,5.67133 15.49309,5.84189c0.24164,0 0.44063,0 0.65384,0c3.51083,0 5.25912,-0.83861 5.7424,-1.33611c0.01422,-0.02843 0.02843,-0.04264 0.04264,-0.05685zM268.88603,210.96174c-0.19899,1.60617 -0.63962,3.19812 -1.37874,4.719c-2.31686,4.74742 -6.90793,7.68969 -11.95385,7.68969c-2.13208,0 -4.26415,-0.55434 -6.16881,-1.59195c-5.44391,-2.97069 -8.74151,-3.85195 -10.5751,-4.05095c-0.44063,-0.01422 -0.89548,-0.04264 -1.35031,-0.0995c-0.54013,-0.04264 -1.05182,-0.04264 -1.54931,-0.04264c-2.1605,0 -3.31182,0.24164 -3.85195,0.42641c0,0.18479 -0.01422,0.32691 0,0.39798c0,0 0.95233,1.63459 7.57599,3.15547c9.01158,2.00415 15.59259,4.6195 20.66694,8.22981c4.02251,2.85699 6.73736,6.09774 8.58517,9.38114z" fill="#965f27"/><path d="M372.34864,273.47424c-2.54428,2.07522 -5.7424,3.22655 -9.02579,3.22655c-4.27837,0 -8.28668,-1.89044 -11.00152,-5.20227l-19.31663,-23.53813l-3.48239,3.61032v10.88781c0,7.84605 -6.38202,14.22807 -14.22807,14.22807v0c-7.84605,0 -14.22807,-6.38202 -14.22807,-14.22807c0,7.84605 -6.56679,14.22807 -14.22807,14.22807c-7.66126,0 -13.91536,-6.09774 -14.19963,-13.70215c-1.35031,2.43056 -3.04176,4.67635 -5.08856,6.6663c-4.40629,4.3068 -12.49398,9.42378 -25.94027,9.42378c-0.42641,0 -0.86704,-0.01422 -1.29346,-0.01422c-14.14278,-0.38378 -23.79399,-5.51497 -31.38418,-10.48982c-0.56855,-0.38378 -1.10868,-0.81019 -1.60617,-1.25082c-0.90968,2.51585 -2.50163,4.719 -4.66215,6.39623c-2.51585,1.9473 -5.52919,2.97069 -8.69888,2.97069c-4.43472,0 -8.54252,-2.01837 -11.25737,-5.52919l-15.62103,-20.19788h-6.82265v11.499c0,7.84605 -6.38202,14.22807 -14.22807,14.22807c-3.80931,0 -7.37699,-1.47824 -10.0634,-4.16466c-0.9239,-0.90968 -1.67724,-1.93308 -2.30264,-3.02755c-2.459,4.29258 -7.06429,7.19221 -12.35184,7.19221h-41.30544c-7.84605,0 -14.22807,-6.38202 -14.22807,-14.22807v-25.81235c-5.78503,10.63196 -17.05662,17.8668 -29.99122,17.8668h-11.31423v7.94554c0,7.84605 -6.38202,14.22807 -14.22807,14.22807c-7.84605,0 -14.22807,-6.38202 -14.22807,-14.22807v-61.94395c0,-7.84605 6.38202,-14.22807 14.22807,-14.22807h25.54229c12.93461,0 24.20618,7.23485 29.99122,17.8668v-3.63875c0,-7.84605 6.38202,-14.22807 14.22807,-14.22807h41.30544c5.30177,0 9.92127,2.91384 12.36604,7.20643c2.50163,-4.40629 7.17799,-7.20643 12.35184,-7.20643h29.82066c13.73058,0 25.48543,8.59938 30.16179,20.69537c3.36869,-13.97221 14.93876,-22.10254 32.26544,-22.10254c1.23661,0 2.51585,0.04264 3.92302,0.15635h0.27006c6.7658,0.49748 14.14278,2.84277 22.5716,7.20643c4.29258,2.21736 6.979,6.33938 7.56177,10.80253v-2.51585c0,-7.84605 6.38202,-14.22807 14.22807,-14.22807c7.84605,0 14.22807,6.38202 14.22807,14.22807v0c0,-7.84605 6.38202,-14.22807 14.22807,-14.22807c7.84605,0 14.22807,6.38202 14.22807,14.22807v10.0634l19.23134,-19.94203c2.71485,-2.80012 6.35359,-4.34944 10.24819,-4.34944c3.70982,0 7.20643,1.40718 9.87863,3.97988c2.74327,2.64378 4.27837,6.19723 4.34944,9.99233c0.07107,3.7951 -1.33611,7.40542 -3.97988,10.13447l-16.34592,16.94291l21.42028,26.09663c4.97484,6.06931 4.09358,15.05246 -1.97573,20.02732zM131.80766,252.87838v-42.76947c-2.61535,2.85699 -6.33938,4.64793 -10.48982,4.64793h-27.07738v2.51585h21.02228c7.84605,0 14.22807,6.38202 14.22807,14.22807c0,7.84605 -6.38202,14.22807 -14.22807,14.22807h-21.02228v2.51585h27.07738c4.15045,0 7.88868,1.80516 10.48982,4.64793zM247.73582,249.22542c-1.03761,-0.79598 -4.22152,-2.41636 -11.27159,-3.95146h-0.9239l-0.71069,-0.35535c-7.03586,-1.59195 -12.39448,-3.66717 -16.84342,-6.52416c-4.97484,-3.1839 -8.61359,-7.32013 -10.75989,-12.09598c-1.60617,6.4673 -5.20227,12.39448 -10.24819,16.80077l6.50994,8.4146c0.34113,-0.90968 0.79598,-1.79094 1.35031,-2.64378c2.64378,-4.02251 7.09271,-6.42466 11.91121,-6.42466c2.7717,0 5.45812,0.81019 7.78918,2.33107c5.15963,3.38289 9.92127,5.67133 16.38857,5.84189c0.25584,0 0.48327,0 0.69647,0c3.6956,0 5.55761,-0.83861 6.06931,-1.33611c0.01422,-0.02843 0.02843,-0.04264 0.04264,-0.05685zM272.61006,206.69758c-0.21321,1.60617 -0.68227,3.19812 -1.46403,4.719c-2.459,4.74742 -7.30592,7.68969 -12.65032,7.68969c-2.26,0 -4.50579,-0.55434 -6.52416,-1.59195c-5.77082,-2.97069 -9.25321,-3.85195 -11.20052,-4.05095c-0.46906,-0.01422 -0.95233,-0.04264 -1.42138,-0.0995c-0.56855,-0.04264 -1.10868,-0.04264 -1.63459,-0.04264c-2.28844,0 -3.49661,0.24164 -4.06516,0.42641c0,0.18479 -0.01422,0.32691 0,0.39798c0,0 1.00918,1.63459 8.01661,3.15547c9.53749,2.00415 16.48807,4.6195 21.8609,8.22981c4.24994,2.85699 7.13536,6.09774 9.08265,9.38114z" fill="#ffb05f"/></g><path d="M370.99833,256.14756c3.48239,4.23573 2.87119,10.53247 -1.37874,14.01486c-1.77674,1.46403 -4.00831,2.26 -6.31095,2.26c-2.99913,0 -5.79925,-1.32189 -7.70391,-3.63875l-22.34417,-27.23373l-8.0024,8.30088v12.60768c0,5.48654 -4.46314,9.9639 -9.9639,9.9639v0c-5.50076,0 -9.9639,-4.46314 -9.9639,-9.9639v-61.94395c0,-5.50076 4.46314,-9.9639 9.9639,-9.9639c5.50076,0 9.9639,4.47736 9.9639,9.9639v20.63851l26.56569,-27.54644c1.90466,-1.96151 4.44894,-3.04176 7.17799,-3.04176c2.60113,0 5.06013,0.98075 6.92215,2.78592c1.91886,1.84781 2.99913,4.33522 3.04176,6.99322c0.05685,2.65799 -0.93811,5.17384 -2.78592,7.09271l-18.97549,19.67197l23.82241,29.03889z" fill="#ffffff"/><path d="M296.80203,200.52878v61.94395c0,5.50076 -4.46314,9.9639 -9.9639,9.9639c-5.50076,0 -9.9639,-4.46314 -9.9639,-9.9639v-61.94395c0,-5.50076 4.46314,-9.9639 9.9639,-9.9639c5.50076,0 9.9639,4.47736 9.9639,9.9639z" fill="#ffffff"/><path d="M261.16791,229.07018c9.01158,6.06931 10.90203,14.02906 10.90203,19.64354v0c0,6.85107 -2.65799,13.20467 -7.47649,17.90945c-3.85195,3.75245 -10.94466,8.21561 -22.96958,8.21561c-0.38378,0 -0.78176,-0.01422 -1.17975,-0.01422h-0.08528c-12.99146,-0.35535 -21.97461,-5.14541 -29.06732,-9.79334c-4.59108,-3.01333 -5.88454,-9.21058 -2.87119,-13.80165c1.84781,-2.82856 4.97484,-4.50579 8.34353,-4.50579c1.9473,0 3.82352,0.56855 5.45812,1.63459c4.98906,3.26919 10.68882,6.32517 18.60593,6.53837c0.29849,0 0.55434,0 0.81019,0c4.15045,0 7.36277,-0.90968 9.05422,-2.5585c0.96655,-0.93811 1.44981,-2.1605 1.44981,-3.63875c0,-3.85195 -9.39535,-6.43887 -15.20882,-7.67548h-0.36956l-0.28428,-0.14214c-6.78,-1.49245 -11.86856,-3.41132 -15.97637,-6.05511c-9.38114,-6.01246 -11.1863,-14.08593 -11.04416,-19.79989c0.39798,-16.44542 10.9873,-25.8692 29.03889,-25.8692c1.16554,0 2.37371,0.04264 3.70982,0.14214h0.18479c6.19723,0.45485 13.01988,2.64378 20.92278,6.73736c4.88957,2.53006 6.80843,8.55674 4.27837,13.43209c-1.71987,3.32604 -5.11698,5.38705 -8.85523,5.38705c-1.59195,0 -3.16969,-0.38378 -4.57686,-1.10868c-5.24491,-2.71485 -9.58014,-4.23573 -12.92039,-4.53421c-0.42641,0 -0.86704,-0.02843 -1.30767,-0.08528c-0.71069,-0.04264 -1.37874,-0.05685 -2.00415,-0.05685c-7.76076,0 -8.08768,2.51585 -8.22981,3.5961c-0.31271,2.459 -0.79598,6.19723 11.27159,8.81258c9.01158,1.87623 15.49309,4.29258 20.38266,7.59019z" fill="#ffffff"/><path d="M203.92874,218.623c0,9.58014 -4.98906,18.53486 -12.96303,23.68027l10.87359,14.07171c1.63459,2.10365 2.34529,4.719 2.00415,7.36277c-0.34113,2.64378 -1.69145,4.98906 -3.7951,6.62366c-1.76252,1.35031 -3.86617,2.07522 -6.08353,2.07522c-3.11283,0 -5.98404,-1.40718 -7.88868,-3.86617l-16.90027,-21.8609h-13.17624v15.76315c0,5.50076 -4.47736,9.9639 -9.9639,9.9639v0c-2.6722,0 -5.17384,-1.03761 -7.05007,-2.91384c-1.87623,-1.89044 -2.91384,-4.39208 -2.91384,-7.05007v-61.94395c0,-1.35031 0.25584,-2.64378 0.78176,-3.88039c1.56352,-3.6956 5.17384,-6.08353 9.18214,-6.08353h29.82066c15.47889,0 28.07236,12.59347 28.07236,28.07236zM184.00092,218.63722c0,-4.49158 -3.65296,-8.14454 -8.14454,-8.14454h-19.85675v16.28907h19.85675c4.49158,0 8.14454,-3.65296 8.14454,-8.14454z" fill="#ffffff"/><path d="M89.99052,210.49268v11.04416h25.28644c5.50076,0 9.9639,4.46314 9.9639,9.9639c0,5.50076 -4.47736,9.9639 -9.9639,9.9639h-25.28644v11.04416h31.34154c5.50076,0 9.9639,4.46314 9.9639,9.9639c0,5.50076 -4.46314,9.9639 -9.9639,9.9639h-41.30544c-5.50076,0 -9.9639,-4.46314 -9.9639,-9.9639v-61.94395c0,-5.50076 4.47736,-9.9639 9.9639,-9.9639h41.30544c5.50076,0 9.9639,4.46314 9.9639,9.9639c0,5.50076 -4.46314,9.9639 -9.9639,9.9639z" fill="#ffffff"/><path d="M65.65641,220.41394c0,16.45964 -13.38944,29.84908 -29.84908,29.84908h-15.57838v12.2097c0,5.50076 -4.46314,9.9639 -9.9639,9.9639c-5.50076,0 -9.9639,-4.46314 -9.9639,-9.9639v-61.94395c0,-5.50076 4.47736,-9.9639 9.9639,-9.9639h25.54229c16.45964,0 29.84908,13.38944 29.84908,29.84908zM35.79312,230.32099c5.48654,0 9.93548,-4.44894 9.93548,-9.92127c0,-5.47234 -4.44894,-9.92127 -9.92127,-9.92127h-15.57838v19.85675h15.57838z" fill="#ffffff"/></g><g><path d="M339.07402,303.38019c4.12201,4.86114 5.78503,11.00152 4.74742,17.36932c-0.69647,4.23573 -2.5727,7.93133 -5.57183,10.9873c-3.24075,3.45396 -7.84605,5.42969 -12.90618,5.42969c-0.19899,2.13208 -0.39798,3.92302 -0.56855,5.37284l-0.99497,8.13032l-3.0844,2.53006c-2.82856,2.31686 -6.48152,3.49661 -10.83096,3.49661c-0.31271,0 -0.63962,-0.01422 -0.96655,-0.01422c-1.87623,-0.07107 -7.60441,-0.29849 -10.75989,-5.3444c-0.11371,-0.19899 -0.24164,-0.39798 -0.35535,-0.6112c-1.91886,-1.06604 -3.11283,-2.47321 -3.85195,-3.65296c-0.95233,-1.52088 -1.36453,-2.82856 -1.50667,-4.66215c-0.35535,-0.08528 -0.69647,-0.17057 -1.0234,-0.28428c-1.7483,0.68227 -3.31182,0.83861 -4.02251,0.90968c-0.45485,0.04264 -1.00918,0.07107 -1.67724,0.07107c-0.44063,0 -0.96655,-0.01422 -1.56352,-0.04264c-3.55346,-0.18479 -6.11196,-1.05182 -7.97397,-2.23157c-2.20315,0.63962 -4.17887,0.63962 -5.10278,0.63962h-0.49748c-1.62038,-0.02843 -3.48239,-0.15635 -5.33019,-0.71069c-0.35535,0.18479 -0.72491,0.35535 -1.09447,0.49748c-1.57773,0.62541 -3.41132,0.96655 -5.28755,0.96655c-2.06101,0 -3.89459,-0.31271 -5.50076,-0.90968c-0.88126,0.15635 -1.80516,0.24164 -2.80012,0.27006h-0.31271c-1.93308,0 -3.5961,-0.29849 -5.15963,-0.90968l-0.45485,-0.18479c-1.80516,-0.81019 -3.42554,-1.96151 -4.86114,-3.43976c-2.17472,2.10365 -4.56265,3.72403 -7.13536,4.84692c-1.84781,0.78176 -3.68138,1.26504 -5.50076,1.46403c-0.89548,0.08528 -1.77674,0.14214 -2.62956,0.14214c-4.77585,0 -8.96894,-1.44981 -12.43711,-4.29258c-0.55434,-0.46906 -1.90466,-1.60617 -3.05598,-3.39711c-0.39798,-0.27006 -0.78176,-0.56855 -1.15132,-0.86704c-0.0995,-0.08528 -0.17057,-0.15635 -0.25584,-0.24164c-0.12792,3.24075 -0.36956,5.96982 -0.72491,8.14454c-0.62541,3.80931 -1.84781,7.06429 -3.5961,9.69384c-2.99913,4.34944 -7.30592,7.12114 -12.82089,8.30088l-0.24164,0.04264c-1.42138,0.25584 -2.80012,0.36956 -4.2073,0.36956c-4.54843,0 -8.54252,-0.85283 -11.88278,-2.54428c-2.5727,-1.23661 -4.84692,-3.21233 -6.52416,-5.65711c-1.22239,-0.85283 -2.30264,-1.84781 -3.24075,-2.97069c-1.26504,-0.08528 -2.51585,-0.31271 -3.75245,-0.65384c-0.46906,0.38378 -0.98075,0.73912 -1.52088,1.03761c-1.97573,1.10868 -3.78089,1.30767 -6.06931,1.56352c-2.87119,0.32691 -3.99409,0.36956 -4.719,0.36956c-0.59698,0 -1.1371,-0.04264 -1.66302,-0.11371l-2.64378,-0.29849c-0.72491,0.29849 -1.52088,0.56855 -2.35949,0.82441c-2.43056,0.72491 -5.00328,1.1371 -7.64706,1.20817c-0.34113,0 -0.65384,0 -0.96655,0c-4.05095,0 -7.51912,-0.72491 -10.54667,-2.20315c-3.04176,2.459 -6.80843,2.47321 -8.64202,2.48743h-0.29849c-0.48327,0.02843 -0.81019,0.02843 -0.98075,0.02843c-1.62038,-0.01422 -2.92806,-0.19899 -4.13623,-0.59698c-0.90968,0.0995 -1.86201,0.14214 -2.84277,0.14214h-0.59698c-0.93811,-0.02843 -1.62038,-0.08528 -2.0468,-0.12792c-2.99913,-0.29849 -5.78503,-1.25082 -8.21561,-2.82856c-0.14214,-0.0995 -0.27006,-0.18479 -0.4122,-0.28428c-0.15635,0.08528 -0.32691,0.17057 -0.48327,0.25584c-2.75749,1.46403 -5.99824,2.21736 -9.59435,2.21736c-0.68227,0 -1.37874,-0.02843 -2.10365,-0.08528c-0.75334,-0.05685 -1.39296,-0.12792 -1.97573,-0.24164c-4.69057,-0.76754 -8.86945,-2.7717 -12.42291,-5.9556c-0.72491,-0.63962 -1.39296,-1.32189 -2.01837,-2.03258c-1.26504,2.01837 -3.21233,3.56768 -5.65711,4.32101c-1.4356,0.45485 -2.74327,0.5117 -4.17887,0.5117h-0.24164c-1.87623,0 -3.82352,-0.18479 -5.78503,-0.54013c-2.14629,-0.39798 -4.40629,-0.99497 -6.42466,-2.70063l-0.36956,-0.31271l-0.34113,-0.35535c-0.73912,-0.76754 -1.29346,-1.52088 -1.73409,-2.40214c-0.58277,-0.31271 -1.17975,-0.71069 -1.76252,-1.19397l-0.36956,-0.31271l-0.34113,-0.35535c-2.26,-2.31686 -2.53006,-3.82352 -3.88039,-11.02995c-0.71069,-3.82352 -1.91886,-10.13447 -3.65296,-18.50644c-1.33611,-6.43887 -2.01837,-9.8502 -2.35949,-11.89699l-1.66302,-10.10605l9.438,-2.74327c2.01837,-0.59698 3.7951,-1.0234 5.41547,-1.30767l0.14214,-0.02843l0.90968,-0.34113l1.22239,-0.08528l4.98906,0.05685c5.8561,0.54013 10.95888,2.99913 14.85347,7.20643c0.48327,0.52591 0.96655,1.09447 1.46403,1.73409c0.98075,0.76754 1.90466,1.60617 2.75749,2.53006c1.4356,1.54931 2.6722,3.24075 3.6956,5.07434c0.65384,-0.0995 1.32189,-0.17057 1.98993,-0.21321l0.62541,-0.01422h0.21321c0.18479,0 0.42641,0 0.52591,0c0.36956,0 0.68227,0.01422 0.95233,0.02843c3.12705,0.22742 5.96982,1.05182 8.4146,2.44478c0.5117,0.29849 1.0234,0.62541 1.50667,0.98075c2.85699,-3.93724 6.95057,-6.63786 11.85436,-7.73233l0.38378,-0.08528l0.36956,-0.05685c1.26504,-0.18479 2.28844,-0.27006 3.21233,-0.27006c6.06931,0.08528 11.28579,2.71485 14.75397,7.43384c0.05685,0.08528 0.12792,0.17057 0.18479,0.25584c0.62541,0.45485 1.22239,0.93811 1.77674,1.46403c1.77674,-1.00918 3.6956,-1.7483 5.72818,-2.21736c1.19397,-0.31271 2.30264,-0.38378 3.24075,-0.4122c0.35535,-0.01422 0.71069,-0.01422 1.05182,-0.01422c1.1229,0 2.18893,0.05685 3.16969,0.17057c-0.08528,-2.80012 -0.12792,-4.86114 -0.12792,-5.65711c0.02843,-4.57686 0.02843,-6.4673 1.73409,-9.05422c2.53006,-3.93724 6.48152,-4.42051 8.59938,-4.67635c1.0234,-0.12792 2.26,-0.17057 4.3068,-0.17057c3.19812,0 5.48654,0.29849 7.77498,1.79094c1.47824,0.96655 2.64378,2.26 3.48239,3.82352c0.25584,0.14214 0.49748,0.28428 0.73912,0.44063c2.31686,1.52088 3.89459,3.86617 4.59108,6.79422l0.22742,0.95233l0.02843,0.76754l8.88365,-0.82441c2.30264,-0.27006 3.32604,-0.31271 4.00831,-0.31271h0.07107l8.84101,-2.95648l2.0468,-0.21321c2.72906,-0.28428 3.7951,-0.34113 4.56265,-0.34113c0.93811,0 1.76252,0.0995 2.58692,0.29849c2.13208,0.5117 4.76164,1.83359 6.43887,5.06013c4.88957,2.40214 5.57183,7.95975 5.9556,11.12944c0.17057,1.44981 0.31271,2.88541 0.45485,4.32101c0.42641,-0.62541 0.88126,-1.23661 1.36453,-1.81937c1.06604,-1.26504 2.68642,-2.91384 5.11698,-3.78089c-0.11371,-0.17057 -0.21321,-0.34113 -0.29849,-0.5117l-0.90968,-0.58277c-1.9473,-1.32189 -2.94226,-2.94226 -3.58189,-4.2073c-1.25082,-2.47321 -1.30767,-4.93221 -1.17975,-7.22063c0.39798,-7.77498 4.88957,-10.34768 7.51912,-11.20052c1.06604,-0.34113 2.14629,-0.59698 6.70893,-0.89548c2.34529,-0.15635 4.50579,-0.21321 6.60944,-0.27006l1.0234,-0.02843c0.65384,-0.01422 1.46403,-0.04264 2.47321,-0.04264h0.31271c2.78592,0 4.76164,0.07107 6.86529,1.05182l0.25584,0.12792c2.14629,1.10868 3.63875,2.5585 4.57686,4.46314c1.59195,0.88126 2.80012,1.9473 3.66717,3.2834c0.66805,0.07107 1.46403,0.22742 2.31686,0.54013c0.68227,-0.31271 1.37874,-0.55434 2.08943,-0.72491l1.03761,-0.25584h0.83861c0.52591,-0.04264 0.9239,-0.05685 1.27924,-0.05685c0,0 0.98075,0 1.08025,0l0.22742,-1.37874l6.93636,-1.16554c0.78176,-0.12792 1.73409,-0.21321 3.83774,-0.21321c0.54013,0 1.15132,0.01422 1.86201,0.01422c1.36453,0.02843 4.67635,0.0995 4.67635,0.0995l1.09447,0.02843c1.39296,-0.29849 2.85699,-0.44063 4.36365,-0.44063c0.27006,0 0.55434,0 0.82441,0c2.26,0.08528 4.46314,0.52591 6.53837,1.33611c0.08528,0.02843 0.17057,0.07107 0.25584,0.0995c0.82441,-0.18479 1.69145,-0.32691 2.60113,-0.44063c0.49748,-0.05685 1.10868,-0.0995 1.76252,-0.0995c0.46906,0 1.06604,0.01422 1.80516,0.05685c1.56352,0.0995 2.64378,0.24164 3.62453,0.49748c1.73409,0.4122 3.36869,1.08025 4.83271,1.97573l1.6488,-0.95233l2.43056,-0.21321c0.24164,-0.01422 0.68227,-0.04264 1.25082,-0.07107l0.83861,-0.04264c0.85283,-0.04264 1.42138,-0.04264 1.9473,-0.04264c1.05182,0 1.93308,0.04264 2.71485,0.11371c1.90466,0.18479 3.46818,0.6112 4.84692,1.35031c1.39296,-0.24164 2.72906,-0.35535 4.05095,-0.35535c0.83861,0 1.67724,0.05685 2.48743,0.15635c4.33522,0.52591 8.18718,2.53006 11.14366,5.78503l0.15635,0.18479c0.4122,0.48327 0.79598,0.98075 1.16554,1.50667c1.03761,0.73912 2.00415,1.60617 2.88541,2.5727l0.15635,0.18479z" fill="#ffffff"/><path d="M334.28395,307.77226c2.95648,3.48239 4.16466,7.97397 3.39711,12.65032c-0.49748,3.04176 -1.83359,5.71397 -3.99409,7.9029c-2.27422,2.43056 -5.40127,3.75245 -8.95472,3.75245c-1.27924,0 -2.62956,-0.17057 -4.03673,-0.5117c-0.31271,-0.08528 -0.63962,-0.17057 -0.95233,-0.25584c-0.12792,1.35031 -0.25584,2.81434 -0.39798,4.40629c-0.25584,2.75749 -0.48327,5.01749 -0.69647,6.70893l-0.71069,5.8561l-1.32189,1.08025c-1.80516,1.47824 -4.24994,2.23157 -7.27749,2.23157c-0.24164,0 -0.49748,0 -0.75334,0c-2.28844,-0.08528 -4.8185,-0.48327 -6.21145,-2.70063c-0.76754,-1.25082 -0.9239,-1.5351 -0.25584,-11.64114c-0.22742,0.08528 -0.46906,0.14214 -0.71069,0.18479c-1.16554,0.24164 -2.5727,0.36956 -4.07938,0.36956c-0.81019,0 -1.67724,-0.04264 -2.5727,-0.11371c-1.36453,-0.11371 -2.30264,-0.35535 -3.11283,-0.81019l-0.12792,-0.07107l-0.79598,-0.52591c-1.44981,1.39296 -3.53925,1.59195 -4.36365,1.67724c-0.29849,0.02843 -0.66805,0.04264 -1.1229,0.04264c-0.36956,0 -0.79598,-0.01422 -1.27924,-0.04264c-1.50667,-0.07107 -5.78503,-0.28428 -7.07849,-3.55346c-1.96151,1.96151 -5.08856,1.96151 -6.23988,1.96151h-0.44063c-2.17472,-0.04264 -4.39208,-0.28428 -5.98404,-1.62038c-0.65384,0.78176 -1.50667,1.39296 -2.50163,1.79094c-0.93811,0.36956 -2.06101,0.56855 -3.25497,0.56855h-0.05685c-2.30264,0 -3.82352,-0.54013 -4.8185,-1.27924c-0.98075,0.4122 -2.13208,0.62541 -3.49661,0.65384h-0.24164c-1.16554,0 -2.17472,-0.17057 -3.0702,-0.52591l-0.19899,-0.08528c-2.01837,-0.9239 -3.73824,-2.5585 -5.10278,-4.84692c-0.62541,-1.03761 -1.1371,-2.17472 -1.5351,-3.35447c-0.75334,1.39296 -1.6488,2.72906 -2.68642,3.99409c-2.10365,2.5585 -4.50579,4.43472 -7.13536,5.57183c-1.30767,0.54013 -2.60113,0.88126 -3.88039,1.0234c-0.68227,0.07107 -1.36453,0.11371 -2.01837,0.11371c-3.45396,0 -6.43887,-1.0234 -8.88365,-3.02755c-0.75334,-0.62541 -2.91384,-2.44478 -2.82856,-5.28755c0.04264,-1.19397 0.42641,-2.54428 2.33107,-5.92717c0.46906,-0.88126 1.06604,-1.7483 1.70567,-2.51585c0.85283,-1.00918 1.93308,-2.07522 3.56768,-2.31686l0.29849,-0.04264h0.29849c0.46906,0 1.05182,0 3.32604,0.90968c1.1229,0.45485 1.59195,0.46906 1.67724,0.45485h0.14214c0.05685,-0.01422 0.08528,-0.02843 0.08528,-0.02843c0,-0.01422 0.19899,-0.38378 0.4122,-1.32189c0.32691,-1.52088 0.56855,-3.48239 0.68227,-5.54341c0.0995,-1.98993 0.12792,-3.66717 0.05685,-5.03171l-0.48327,0.04264c-4.00831,0.31271 -4.59108,0.34113 -4.93221,0.34113h-1.25082l-1.10868,-0.71069c-0.93811,-0.63962 -1.39296,-1.42138 -1.7483,-2.11787c-0.5117,-1.03761 -0.66805,-2.20315 -0.55434,-4.29258c0.05685,-1.23661 0.25584,-5.01749 3.5961,-6.09774c0.44063,-0.14214 1.10868,-0.35535 5.3444,-0.63962c2.24579,-0.15635 4.36365,-0.21321 6.42466,-0.27006l0.98075,-0.02843c0.6112,-0.01422 1.37874,-0.04264 2.33107,-0.04264h0.31271c2.68642,0 3.56768,0.11371 4.49158,0.54013l0.15635,0.08528c2.31686,1.20817 2.78592,2.60113 2.6722,8.71309l0.71069,-0.0995c0.99497,-0.17057 2.68642,-0.28428 5.11698,-0.35535c0.28428,0 0.52591,0 0.71069,0c0.6112,0 1.73409,0 2.87119,0.81019c0.44063,0.32691 0.78176,0.71069 1.05182,1.09447c0.29849,-0.45485 0.65384,-0.83861 1.1229,-1.17975c0.65384,-0.48327 1.37874,-0.82441 2.08943,-0.99497l0.44063,-0.0995l0.45485,-0.02843h0.14214c0.32691,-0.01422 0.62541,-0.04264 0.89548,-0.04264h0.72491c2.24579,0 3.75245,0.0995 4.93221,0.55434l0.44063,-2.6722l2.97069,-0.49748c0.44063,-0.07107 1.09447,-0.14214 2.91384,-0.14214c0.5117,0 1.09447,0.01422 1.76252,0.01422c1.35031,0.02843 4.63371,0.0995 4.63371,0.0995l0.58277,0.39798c1.52088,-0.54013 3.19812,-0.81019 5.00328,-0.81019c0.21321,0 0.42641,0 0.63962,0c1.62038,0.05685 3.19812,0.38378 4.69057,0.96655c0.62541,0.25584 1.22239,0.54013 1.7483,0.86704c1.1229,-0.4122 2.37371,-0.69647 3.76667,-0.86704c0.27006,-0.02843 0.63962,-0.05685 1.10868,-0.05685c0.36956,0 0.86704,0.01422 1.46403,0.05685c1.17975,0.07107 1.9473,0.17057 2.5585,0.32691c2.85699,0.66805 5.08856,2.23157 6.56679,4.54843c0.42641,-1.67724 1.40718,-2.5585 2.18893,-3.01333l0.79598,-0.45485l1.19397,-0.0995c0.21321,-0.01422 0.56855,-0.04264 1.0234,-0.05685l0.86704,-0.04264c0.68227,-0.02843 1.20817,-0.02843 1.67724,-0.02843c0.86704,0 1.56352,0.02843 2.1605,0.08528c1.33611,0.12792 2.27422,0.39798 3.0702,0.89548c0.39798,0.27006 0.75334,0.56855 1.05182,0.89548c1.89044,-0.5117 3.65296,-0.76754 5.30177,-0.76754c0.6112,0 1.22239,0.04264 1.80516,0.11371c3.02755,0.36956 5.60026,1.71987 7.67548,3.99409l0.0995,0.11371z" fill="#965f27"/><path d="M200.64534,311.92271c0.82441,6.73736 1.19397,13.27574 1.1229,19.98467c-0.04264,4.43472 -0.28428,8.0024 -0.71069,10.60353c-0.49748,2.99913 -1.42138,5.51497 -2.71485,7.46227c-2.11787,3.0702 -5.24491,5.04591 -9.31008,5.91296l-0.14214,0.02843c-1.00918,0.18479 -2.06101,0.27006 -3.14126,0.27006c-3.66717,0 -6.80843,-0.65384 -9.35271,-1.9473c-1.79094,-0.86704 -3.29762,-2.17472 -4.43472,-3.85195c-1.17975,-1.76252 -1.80516,-3.68138 -1.84781,-5.69975c0,-0.46906 0.01422,-0.99497 0.08528,-1.56352c-0.22742,0.25584 -0.44063,0.5117 -0.71069,0.72491l-0.76754,0.79598l-1.50667,0.25584l-0.18479,0.02843c-0.56855,0.07107 -1.10868,0.0995 -1.63459,0.0995c-1.60617,0 -3.21233,-0.29849 -4.77585,-0.90968c-0.83861,-0.32691 -1.5351,-0.79598 -2.08943,-1.37874c-0.31271,1.49245 -1.1371,2.6722 -2.35949,3.35447c-0.93811,0.52591 -1.89044,0.65384 -3.95146,0.88126c-2.64378,0.29849 -3.5961,0.32691 -4.09358,0.32691c-0.35535,0 -0.65384,-0.01422 -0.93811,-0.05685l-3.78089,-0.42641l-0.02843,-0.31271c-0.95233,0.56855 -2.07522,1.03761 -3.49661,1.46403c-1.96151,0.58277 -4.03673,0.90968 -6.19723,0.96655c-0.28428,0 -0.54013,0 -0.81019,0c-3.56768,0 -6.48152,-0.68227 -8.91208,-2.07522c-1.26504,-0.75334 -2.33107,-1.63459 -3.25497,-2.64378c-0.12792,0.85283 -0.32691,1.56352 -0.62541,2.18893l-0.0995,0.21321l-0.12792,0.19899c-1.46403,2.37371 -4.27837,2.38793 -6.14038,2.38793c-0.12792,0.01422 -0.31271,0.01422 -0.52591,0.01422c-0.35535,0.01422 -0.59698,0.01422 -0.72491,0.01422h-0.04264c-1.23661,0 -2.08943,-0.15635 -2.87119,-0.52591c-0.15635,-0.07107 -0.31271,-0.15635 -0.45485,-0.24164c-1.09447,0.21321 -2.28844,0.31271 -3.5961,0.31271h-0.54013c-0.66805,-0.02843 -1.19397,-0.07107 -1.52088,-0.0995c-2.14629,-0.21321 -4.07938,-0.86704 -5.75661,-1.96151c-1.15132,-0.75334 -2.03258,-1.49245 -2.68642,-2.28844c-0.17057,-0.19899 -0.29849,-0.4122 -0.44063,-0.6112c-0.96655,1.06604 -2.08943,1.9473 -3.36869,2.61535c-1.97573,1.03761 -4.33522,1.57773 -7.00742,1.57773c-0.54013,0 -1.09447,-0.02843 -1.67724,-0.07107c-0.56855,-0.04264 -1.0234,-0.0995 -1.42138,-0.17057c-3.63875,-0.59698 -6.8795,-2.14629 -9.63699,-4.6195c-2.94226,-2.62956 -4.80428,-5.87032 -5.52919,-9.62277l-0.11371,-0.63962c-0.21321,-1.36453 -0.28428,-3.04176 -0.18479,-4.8185c-0.89548,0.90968 -1.91886,1.56352 -3.05598,1.98993c-0.83861,0.31271 -1.7483,0.49748 -2.75749,0.55434c0.22742,1.08025 0.45485,2.06101 0.65384,2.94226c0.5117,2.24579 0.88126,3.88039 1.1371,5.38705c0.4122,2.40214 -0.9239,4.64793 -3.15547,5.33019c-0.73912,0.24164 -1.50667,0.27006 -2.58692,0.27006h-0.19899c-1.5351,0 -3.14126,-0.15635 -4.76164,-0.45485c-1.6488,-0.31271 -2.85699,-0.66805 -3.82352,-1.47824l-0.15635,-0.14214l-0.14214,-0.15635c-1.05182,-1.08025 -1.15132,-1.62038 -2.35949,-8.10189c-0.71069,-3.83774 -1.93308,-10.17712 -3.66717,-18.60593c-1.27924,-6.21145 -1.98993,-9.70806 -2.30264,-11.65535l-0.83861,-5.11698l4.6195,-1.35031c1.87623,-0.55434 3.46818,-0.93811 4.88957,-1.17975l0.62541,-0.12792l-0.11371,0.04264l0.72491,-0.27006l0.96655,-0.05685h1.66302c5.30177,0.01422 9.70806,1.87623 13.07675,5.51497c3.12705,3.38289 5.06013,7.67548 5.60026,12.42291c0.0995,0.88126 0.14214,1.73409 0.14214,2.5727c2.17472,-2.47321 5.10278,-3.89459 8.5141,-4.07938h0.27006h0.14214c0,0 0.49748,-0.01422 0.65384,-0.01422c0.21321,0 0.39798,0.01422 0.55434,0.01422c2.28844,0.17057 4.33522,0.75334 6.05511,1.73409c2.31686,1.35031 4.24994,3.45396 5.84189,6.2541c0.11371,-0.5117 0.22742,-1.03761 0.38378,-1.59195c1.66302,-5.77082 5.58604,-9.59435 11.05837,-10.81674l0.15635,-0.02843l0.15635,-0.02843c1.00918,-0.14214 1.77674,-0.21321 2.43056,-0.21321c4.3068,0.05685 7.8034,1.83359 10.23397,5.14541c1.57773,2.13208 2.71485,4.93221 3.41132,8.3151c0.04264,0.18479 0.07107,0.39798 0.11371,0.63962c2.27422,-3.83774 5.71397,-6.3678 9.99233,-7.32013c0.6112,-0.17057 1.26504,-0.22742 2.0468,-0.25584c0.31271,0 0.6112,0 0.89548,0c1.44981,0 2.71485,0.11371 3.78089,0.32691c2.20315,0.45485 3.93724,1.09447 5.27334,1.9473c-0.27006,-7.26328 -0.39798,-12.28077 -0.39798,-13.41787c0.02843,-4.13623 0.02843,-4.76164 0.79598,-5.94139c1.1229,-1.76252 2.87119,-1.97573 4.57686,-2.18893c0.76754,-0.08528 1.84781,-0.12792 3.62453,-0.12792c2.85699,0 3.83774,0.29849 4.719,0.88126c1.08025,0.71069 1.81937,1.87623 2.17472,3.35447l0.11371,0.4122v0.42641c0.19899,5.04591 0.28428,7.43384 0.48327,11.98228c0.04264,1.17975 0.08528,2.18893 0.11371,3.11283c0.46906,-0.11371 0.9239,-0.21321 1.39296,-0.27006c0.45485,-0.05685 0.88126,-0.08528 1.29346,-0.08528c0.65384,0 1.29346,0.07107 1.90466,0.19899c2.58692,0.45485 4.80428,1.69145 6.56679,3.62453l-0.02843,-2.17472c-0.04264,-2.1605 0.01422,-3.16969 0.22742,-3.95146l0.66805,-3.16969l6.56679,-0.6112c2.14629,-0.25584 2.98491,-0.28428 3.48239,-0.28428c1.71987,0 3.02755,0.62541 3.89459,1.86201c1.00918,1.46403 0.88126,3.05598 0.76754,4.46314c-0.01422,0.12792 -0.04264,0.79598 -0.01422,3.66717c0,0.32691 0.01422,0.6112 0.01422,0.88126c0.0995,-0.14214 0.31271,-0.46906 0.31271,-0.46906l-0.04264,-3.31182v-2.17472c0,-1.52088 0.05685,-2.81434 0.15635,-3.93724l0.29849,-3.24075l4.27837,-0.75334l1.84781,-0.19899c2.64378,-0.27006 3.49661,-0.31271 3.97988,-0.31271c0.48327,0 0.88126,0.04264 1.26504,0.14214c3.14126,0.75334 3.49661,3.6956 3.90881,7.09271zM141.43045,333.64147c0.25584,0 0.63962,0.02843 1.09447,0.12792c-0.04264,-0.83861 -0.0995,-1.77674 -0.14214,-2.81434c-0.65384,0.66805 -1.39296,1.00918 -1.91886,1.16554l-0.42641,0.12792l-0.6112,0.05685h-0.19899c-0.82441,0 -1.9473,-0.24164 -2.74327,-0.45485c-1.19397,-0.31271 -1.98993,-0.46906 -2.37371,-0.46906c-0.11371,0.01422 -0.15635,0.01422 -0.15635,0.01422c-0.01422,0 -0.36956,0.15635 -0.76754,0.95233c-0.36956,0.75334 -0.49748,1.57773 -0.46906,2.0468c0.02843,0.32691 0.0995,0.44063 0.14214,0.49748c0.15635,0.24164 0.68227,0.42641 1.35031,0.5117c0.25584,0.04264 0.44063,0.04264 0.62541,0.04264h0.19899c0.59698,-0.04264 1.62038,-0.21321 3.11283,-0.85283l0.85283,-0.35535c0.83861,-0.35535 1.23661,-0.5117 1.86201,-0.58277l0.24164,-0.02843h0.32691zM175.37311,337.72085c0.65384,-0.28428 1.25082,-0.52591 1.81937,-0.71069c-1.59195,-0.58277 -2.95648,-1.56352 -4.06516,-2.85699c-0.21321,1.91886 -0.56855,3.73824 -1.08025,5.37284c-0.01422,0.01422 -0.02843,0.04264 -0.02843,0.07107c0.72491,-0.63962 1.69145,-1.15132 3.34026,-1.87623zM185.64972,336.99594c-0.44063,0.11371 -0.90968,0.21321 -1.40718,0.31271l-1.15132,0.18479c1.00918,0.85283 1.49245,2.01837 1.73409,2.61535c0.0995,0.24164 0.18479,0.44063 0.25584,0.59698c0.15635,-0.38378 0.48327,-1.4356 0.56855,-3.70982z" fill="#965f27"/><path d="M334.25552,303.50811c2.99913,3.48239 4.22152,7.97397 3.43976,12.65032c-0.49748,3.04176 -1.86201,5.71397 -4.05095,7.9029c-2.30264,2.43056 -5.47234,3.75245 -9.08265,3.75245c-1.29346,0 -2.6722,-0.17057 -4.09358,-0.5117c-0.32691,-0.08528 -0.65384,-0.17057 -0.96655,-0.25584c-0.11371,1.35031 -0.25584,2.81434 -0.39798,4.40629c-0.27006,2.75749 -0.49748,5.01749 -0.71069,6.70893l-0.72491,5.8561l-1.33611,1.08025c-1.81937,1.47824 -4.3068,2.23157 -7.37699,2.23157c-0.25584,0 -0.5117,0 -0.76754,0c-2.31686,-0.08528 -4.88957,-0.48327 -6.29673,-2.70063c-0.76754,-1.25082 -0.93811,-1.5351 -0.25584,-11.64114c-0.22742,0.08528 -0.46906,0.14214 -0.71069,0.18479c-1.17975,0.24164 -2.60113,0.36956 -4.13623,0.36956c-0.82441,0 -1.69145,-0.04264 -2.60113,-0.11371c-1.39296,-0.11371 -2.34529,-0.35535 -3.16969,-0.81019l-0.12792,-0.07107l-0.81019,-0.52591c-1.47824,1.39296 -3.5961,1.59195 -4.43472,1.67724c-0.31271,0.02843 -0.69647,0.04264 -1.15132,0.04264c-0.36956,0 -0.79598,-0.01422 -1.29346,-0.04264c-1.52088,-0.07107 -5.87032,-0.28428 -7.17799,-3.55346c-2.00415,1.96151 -5.17384,1.96151 -6.33938,1.96151h-0.45485c-2.21736,-0.04264 -4.46314,-0.28428 -6.06931,-1.62038c-0.68227,0.78176 -1.5351,1.39296 -2.54428,1.79094c-0.93811,0.36956 -2.08943,0.56855 -3.29762,0.56855h-0.05685c-2.33107,0 -3.88039,-0.54013 -4.88957,-1.27924c-1.00918,0.4122 -2.17472,0.62541 -3.55346,0.65384h-0.24164c-1.17975,0 -2.20315,-0.17057 -3.11283,-0.52591l-0.19899,-0.08528c-2.0468,-0.9239 -3.7951,-2.5585 -5.17384,-4.84692c-0.62541,-1.03761 -1.1371,-2.17472 -1.54931,-3.35447c-0.76754,1.39296 -1.67724,2.72906 -2.72906,3.99409c-2.13208,2.5585 -4.57686,4.43472 -7.23485,5.57183c-1.32189,0.54013 -2.61535,0.88126 -3.92302,1.0234c-0.69647,0.07107 -1.37874,0.11371 -2.0468,0.11371c-3.48239,0 -6.52416,-1.0234 -8.99737,-3.02755c-0.76754,-0.62541 -2.95648,-2.44478 -2.87119,-5.28755c0.02843,-1.19397 0.42641,-2.54428 2.35949,-5.92717c0.48327,-0.88126 1.08025,-1.7483 1.73409,-2.51585c0.86704,-1.00918 1.97573,-2.07522 3.62453,-2.31686l0.29849,-0.04264h0.29849c0.46906,0 1.06604,0 3.36869,0.90968c1.1229,0.45485 1.60617,0.46906 1.69145,0.45485h0.15635c0.05685,-0.01422 0.08528,-0.02843 0.08528,-0.02843c0.01422,-0.01422 0.21321,-0.38378 0.42641,-1.32189c0.34113,-1.52088 0.58277,-3.48239 0.69647,-5.54341c0.0995,-1.98993 0.12792,-3.66717 0.05685,-5.03171l-0.49748,0.04264c-4.05095,0.31271 -4.64793,0.34113 -4.98906,0.34113h-1.27924l-1.1229,-0.71069c-0.95233,-0.63962 -1.40718,-1.42138 -1.76252,-2.11787c-0.52591,-1.03761 -0.68227,-2.20315 -0.56855,-4.29258c0.07107,-1.23661 0.27006,-5.01749 3.65296,-6.09774c0.45485,-0.14214 1.1371,-0.35535 5.42969,-0.63962c2.27422,-0.15635 4.42051,-0.21321 6.50994,-0.27006l0.99497,-0.02843c0.6112,-0.01422 1.39296,-0.04264 2.35949,-0.04264h0.31271c2.71485,0 3.61032,0.11371 4.54843,0.54013l0.15635,0.08528c2.35949,1.20817 2.82856,2.60113 2.71485,8.71309l0.72491,-0.0995c0.99497,-0.17057 2.71485,-0.28428 5.18805,-0.35535c0.29849,0 0.54013,0 0.72491,0c0.6112,0 1.7483,0 2.89963,0.81019c0.45485,0.32691 0.79598,0.71069 1.06604,1.09447c0.29849,-0.45485 0.66805,-0.83861 1.1371,-1.17975c0.65384,-0.48327 1.39296,-0.82441 2.11787,-0.99497l0.44063,-0.0995l0.45485,-0.02843h0.14214c0.32691,-0.01422 0.63962,-0.04264 0.90968,-0.04264h0.73912c2.27422,0 3.80931,0.0995 5.00328,0.55434l0.44063,-2.6722l3.01333,-0.49748c0.44063,-0.07107 1.10868,-0.14214 2.95648,-0.14214c0.52591,0 1.1229,0.01422 1.79094,0.01422c1.37874,0.02843 4.70478,0.0995 4.70478,0.0995l0.58277,0.39798c1.54931,-0.54013 3.24075,-0.81019 5.07434,-0.81019c0.21321,0 0.44063,0 0.65384,0c1.6488,0.05685 3.24075,0.38378 4.76164,0.96655c0.63962,0.25584 1.23661,0.54013 1.77674,0.86704c1.1371,-0.4122 2.40214,-0.69647 3.82352,-0.86704c0.27006,-0.02843 0.63962,-0.05685 1.1229,-0.05685c0.36956,0 0.86704,0.01422 1.47824,0.05685c1.20817,0.07107 1.98993,0.17057 2.60113,0.32691c2.91384,0.66805 5.15963,2.23157 6.6663,4.54843c0.44063,-1.67724 1.42138,-2.5585 2.21736,-3.01333l0.81019,-0.45485l1.22239,-0.0995c0.22742,-0.01422 0.56855,-0.04264 1.03761,-0.05685l0.86704,-0.04264c0.68227,-0.02843 1.20817,-0.02843 1.69145,-0.02843c0.86704,0 1.59195,0.02843 2.18893,0.08528c1.35031,0.12792 2.31686,0.39798 3.11283,0.89548c0.4122,0.27006 0.76754,0.56855 1.06604,0.89548c1.91886,-0.5117 3.6956,-0.76754 5.37284,-0.76754c0.62541,0 1.23661,0.04264 1.83359,0.11371c3.05598,0.36956 5.67133,1.71987 7.77498,3.99409l0.0995,0.11371z" fill="#ffb05f"/><path d="M198.82597,307.65856c0.83861,6.73736 1.20817,13.27574 1.1371,19.98467c-0.04264,4.43472 -0.28428,8.0024 -0.72491,10.60353c-0.5117,2.99913 -1.4356,5.51497 -2.75749,7.46227c-2.14629,3.0702 -5.30177,5.04591 -9.438,5.91296l-0.14214,0.02843c-1.0234,0.18479 -2.08943,0.27006 -3.1839,0.27006c-3.72403,0 -6.90793,-0.65384 -9.48064,-1.9473c-1.81937,-0.86704 -3.35447,-2.17472 -4.50579,-3.85195c-1.20817,-1.76252 -1.83359,-3.68138 -1.87623,-5.69975c0,-0.46906 0.01422,-0.99497 0.08528,-1.56352c-0.21321,0.25584 -0.44063,0.5117 -0.71069,0.72491l-0.76754,0.79598l-1.5351,0.25584l-0.18479,0.02843c-0.58277,0.07107 -1.1229,0.0995 -1.66302,0.0995c-1.63459,0 -3.25497,-0.29849 -4.84692,-0.90968c-0.85283,-0.32691 -1.56352,-0.79598 -2.11787,-1.37874c-0.31271,1.49245 -1.15132,2.6722 -2.38793,3.35447c-0.95233,0.52591 -1.91886,0.65384 -4.00831,0.88126c-2.6722,0.29849 -3.65296,0.32691 -4.15045,0.32691c-0.35535,0 -0.66805,-0.01422 -0.95233,-0.05685l-3.83774,-0.42641l-0.02843,-0.31271c-0.96655,0.56855 -2.10365,1.03761 -3.53925,1.46403c-1.97573,0.58277 -4.09358,0.90968 -6.28252,0.96655c-0.27006,0 -0.54013,0 -0.81019,0c-3.62453,0 -6.58101,-0.68227 -9.04001,-2.07522c-1.27924,-0.75334 -2.35949,-1.63459 -3.29762,-2.64378c-0.14214,0.85283 -0.34113,1.56352 -0.63962,2.18893l-0.0995,0.21321l-0.12792,0.19899c-1.47824,2.37371 -4.33522,2.38793 -6.22566,2.38793c-0.14214,0.01422 -0.32691,0.01422 -0.54013,0.01422c-0.35535,0.01422 -0.6112,0.01422 -0.73912,0.01422h-0.05685c-1.25082,0 -2.13208,-0.15635 -2.91384,-0.52591c-0.15635,-0.07107 -0.31271,-0.15635 -0.45485,-0.24164c-1.1229,0.21321 -2.33107,0.31271 -3.65296,0.31271h-0.55434c-0.68227,-0.02843 -1.20817,-0.07107 -1.54931,-0.0995c-2.1605,-0.21321 -4.12201,-0.86704 -5.82768,-1.96151c-1.16554,-0.75334 -2.06101,-1.49245 -2.72906,-2.28844c-0.15635,-0.19899 -0.29849,-0.4122 -0.44063,-0.6112c-0.96655,1.06604 -2.10365,1.9473 -3.41132,2.61535c-2.00415,1.03761 -4.39208,1.57773 -7.10693,1.57773c-0.55434,0 -1.1229,-0.02843 -1.70567,-0.07107c-0.58277,-0.04264 -1.05182,-0.0995 -1.44981,-0.17057c-3.68138,-0.59698 -6.979,-2.14629 -9.76491,-4.6195c-2.97069,-2.62956 -4.86114,-5.87032 -5.60026,-9.62277l-0.11371,-0.63962c-0.22742,-1.36453 -0.31271,-3.04176 -0.19899,-4.8185c-0.90968,0.90968 -1.9473,1.56352 -3.09862,1.98993c-0.85283,0.31271 -1.76252,0.49748 -2.80012,0.55434c0.24164,1.08025 0.46906,2.06101 0.66805,2.94226c0.5117,2.24579 0.89548,3.88039 1.15132,5.38705c0.4122,2.40214 -0.9239,4.64793 -3.19812,5.33019c-0.76754,0.24164 -1.5351,0.27006 -2.62956,0.27006h-0.19899c-1.56352,0 -3.19812,-0.15635 -4.83271,-0.45485c-1.67724,-0.31271 -2.89963,-0.66805 -3.88039,-1.47824l-0.15635,-0.14214l-0.14214,-0.15635c-1.06604,-1.08025 -1.16554,-1.62038 -2.38793,-8.10189c-0.72491,-3.83774 -1.96151,-10.17712 -3.72403,-18.60593c-1.30767,-6.21145 -2.01837,-9.70806 -2.34529,-11.65535l-0.85283,-5.11698l4.67635,-1.35031c1.89044,-0.55434 3.49661,-0.93811 4.94642,-1.17975l0.63962,-0.12792l-0.11371,0.04264l0.72491,-0.27006l0.98075,-0.05685h1.69145c5.38705,0.01422 9.8502,1.87623 13.26152,5.51497c3.15547,3.38289 5.11698,7.67548 5.67133,12.42291c0.0995,0.88126 0.14214,1.73409 0.14214,2.5727c2.21736,-2.47321 5.18805,-3.89459 8.64202,-4.07938h0.27006h0.14214c0,0 0.5117,-0.01422 0.66805,-0.01422c0.21321,0 0.39798,0.01422 0.55434,0.01422c2.31686,0.17057 4.39208,0.75334 6.14038,1.73409c2.33107,1.35031 4.3068,3.45396 5.91296,6.2541c0.11371,-0.5117 0.24164,-1.03761 0.39798,-1.59195c1.69145,-5.77082 5.67133,-9.59435 11.21472,-10.81674l0.15635,-0.02843l0.17057,-0.02843c1.00918,-0.14214 1.79094,-0.21321 2.459,-0.21321c4.36365,0.05685 7.91712,1.83359 10.37611,5.14541c1.59195,2.13208 2.74327,4.93221 3.45396,8.3151c0.04264,0.18479 0.07107,0.39798 0.11371,0.63962c2.30264,-3.83774 5.79925,-6.3678 10.13447,-7.32013c0.62541,-0.17057 1.27924,-0.22742 2.07522,-0.25584c0.31271,0 0.62541,0 0.90968,0c1.46403,0 2.74327,0.11371 3.82352,0.32691c2.23157,0.45485 3.97988,1.09447 5.3444,1.9473c-0.27006,-7.26328 -0.39798,-12.28077 -0.39798,-13.41787c0.02843,-4.13623 0.02843,-4.76164 0.81019,-5.94139c1.1371,-1.76252 2.92806,-1.97573 4.64793,-2.18893c0.76754,-0.08528 1.86201,-0.12792 3.66717,-0.12792c2.88541,0 3.88039,0.29849 4.77585,0.88126c1.09447,0.71069 1.84781,1.87623 2.20315,3.35447l0.11371,0.4122v0.42641c0.19899,5.04591 0.29849,7.43384 0.49748,11.98228c0.04264,1.17975 0.08528,2.18893 0.11371,3.11283c0.46906,-0.11371 0.93811,-0.21321 1.40718,-0.27006c0.45485,-0.05685 0.89548,-0.08528 1.30767,-0.08528c0.65384,0 1.30767,0.07107 1.91886,0.19899c2.61535,0.45485 4.87535,1.69145 6.65208,3.62453l-0.02843,-2.17472c-0.02843,-2.1605 0.01422,-3.16969 0.24164,-3.95146l0.66805,-3.16969l6.65208,-0.6112c2.17472,-0.25584 3.04176,-0.28428 3.53925,-0.28428c1.73409,0 3.05598,0.62541 3.93724,1.86201c1.0234,1.46403 0.89548,3.05598 0.78176,4.46314c-0.01422,0.12792 -0.04264,0.79598 -0.01422,3.66717c0,0.32691 0.01422,0.6112 0.01422,0.88126c0.0995,-0.14214 0.31271,-0.46906 0.31271,-0.46906l-0.04264,-3.31182v-2.17472c0,-1.52088 0.05685,-2.81434 0.15635,-3.93724l0.29849,-3.24075l4.33522,-0.75334l1.87623,-0.19899c2.6722,-0.27006 3.55346,-0.31271 4.03673,-0.31271c0.48327,0 0.88126,0.04264 1.27924,0.14214c3.1839,0.75334 3.55346,3.6956 3.96566,7.09271zM138.63031,329.37732c0.25584,0 0.65384,0.02843 1.10868,0.12792c-0.04264,-0.83861 -0.08528,-1.77674 -0.14214,-2.81434c-0.66805,0.66805 -1.40718,1.00918 -1.9473,1.16554l-0.42641,0.12792l-0.62541,0.05685h-0.19899c-0.82441,0 -1.96151,-0.24164 -2.7717,-0.45485c-1.20817,-0.31271 -2.01837,-0.46906 -2.40214,-0.46906c-0.11371,0.01422 -0.15635,0.01422 -0.15635,0.01422c-0.01422,0 -0.36956,0.15635 -0.76754,0.95233c-0.38378,0.75334 -0.5117,1.57773 -0.48327,2.0468c0.01422,0.32691 0.0995,0.44063 0.14214,0.49748c0.15635,0.24164 0.68227,0.42641 1.36453,0.5117c0.25584,0.04264 0.45485,0.04264 0.63962,0.04264h0.19899c0.6112,-0.04264 1.63459,-0.21321 3.15547,-0.85283l0.86704,-0.35535c0.85283,-0.35535 1.25082,-0.5117 1.89044,-0.58277l0.24164,-0.02843h0.32691zM173.05626,333.45669c0.65384,-0.28428 1.26504,-0.52591 1.84781,-0.71069c-1.60617,-0.58277 -2.99913,-1.56352 -4.12201,-2.85699c-0.21321,1.91886 -0.58277,3.73824 -1.09447,5.37284c-0.01422,0.01422 -0.02843,0.04264 -0.02843,0.07107c0.72491,-0.63962 1.71987,-1.15132 3.38289,-1.87623zM182.89225,336.44159c0.17057,-0.38378 0.49748,-1.4356 0.58277,-3.70982c-0.44063,0.11371 -0.90968,0.21321 -1.42138,0.31271l-1.16554,0.18479c1.0234,0.85283 1.50667,2.01837 1.76252,2.61535c0.0995,0.24164 0.18479,0.44063 0.25584,0.59698z" fill="#ffb05f"/><g fill="#ffffff"><path d="M45.24532,295.91792c0.66805,0 1.00918,0 1.69145,0c4.12201,0.01422 7.51912,1.33611 10.17712,4.17887c2.60113,2.7717 4.1078,6.19723 4.54843,9.99233c0.36956,3.1839 -0.07107,6.04089 -1.30767,8.45724c-0.82441,1.7483 -1.84781,2.82856 -3.0702,3.2834c-1.23661,0.45485 -3.09862,0.42641 -5.58604,-0.0995c-0.45485,-0.08528 -0.69647,-0.12792 -1.15132,-0.22742c0.0995,0.48327 0.14214,0.72491 0.24164,1.19397c1.39296,6.62366 2.31686,10.0634 2.78592,12.73561c0.04264,0.28428 -0.02843,0.45485 -0.24164,0.52591c-0.21321,0.05685 -0.69647,0.08528 -1.42138,0.08528c-1.19397,0 -2.62956,-0.08528 -4.23573,-0.38378c-1.08025,-0.19899 -1.71987,-0.38378 -1.91886,-0.55434c-0.0995,-0.11371 -0.52591,-2.07522 -1.25082,-5.91296c-0.75334,-4.02251 -1.98993,-10.31926 -3.73824,-18.69121c-1.19397,-5.71397 -1.97573,-9.52328 -2.30264,-11.48478c-0.08528,-0.54013 -0.14214,-0.82441 -0.22742,-1.36453c0.42641,-0.12792 0.63962,-0.18479 1.06604,-0.31271c1.60617,-0.46906 3.0844,-0.82441 4.44894,-1.06604c0.22742,-0.04264 0.46906,-0.0995 0.71069,-0.14214c0.25584,-0.04264 0.44063,-0.0995 0.58277,-0.14214c0.08528,-0.02843 0.11371,-0.04264 0.19899,-0.07107zM50.07803,304.20459c-0.55434,-0.17057 -0.98075,-0.24164 -1.20817,-0.25584c-0.73912,-0.07107 -1.23661,0.04264 -1.46403,0.31271c-0.08528,0.08528 -0.01422,0.86704 0.19899,2.31686c0.18479,1.25082 0.45485,2.82856 0.81019,4.73321c0.24164,1.09447 0.35535,1.63459 0.59698,2.71485c0.24164,0.04264 0.36956,0.07107 0.62541,0.11371c1.10868,0.21321 2.07522,0.0995 2.91384,-0.35535c0.83861,-0.45485 1.39296,-1.1371 1.62038,-2.01837c0.18479,-0.68227 0.22742,-1.4356 0.11371,-2.23157c-0.18479,-1.47824 -0.79598,-2.78592 -1.80516,-3.86617c-0.73912,-0.69647 -1.54931,-1.20817 -2.38793,-1.46403z"/><path d="M74.89541,312.34913c0.08528,0 0.27006,0 0.5117,0c0.25584,0 0.44063,0 0.58277,0c1.70567,0.12792 3.16969,0.52591 4.37787,1.19397c2.95648,1.69145 5.17384,5.25912 6.68051,10.39033c0.58277,1.97573 0.96655,3.90881 1.1371,5.79925c0.08528,0.88126 0.05685,1.1371 -0.07107,1.19397c-0.46906,0.21321 -4.09358,0.29849 -10.85938,-0.25584c-1.29346,-0.08528 -1.9473,-0.12792 -3.24075,-0.22742c-0.04264,0 -0.01422,0.28428 0.07107,0.85283c0.18479,1.09447 0.71069,1.97573 1.60617,2.64378c0.88126,0.66805 2.03258,1.06604 3.42554,1.19397c0.72491,0.07107 1.27924,0.05685 1.66302,-0.04264c0.98075,-0.27006 1.62038,-0.96655 1.93308,-2.13208c-0.01422,-0.0995 0.12792,-0.14214 0.45485,-0.11371c0.4122,0.02843 1.05182,0.17057 1.9473,0.4122c0.88126,0.24164 1.66302,0.44063 2.31686,0.6112c0.42641,0.12792 0.63962,0.18479 1.05182,0.31271c0.32691,0.11371 0.5117,0.29849 0.55434,0.52591c0.07107,0.49748 -0.21321,1.1371 -0.88126,1.89044c-0.66805,0.75334 -1.4356,1.35031 -2.34529,1.81937c-1.71987,0.89548 -3.88039,1.25082 -6.52416,1.05182c-0.45485,-0.02843 -0.78176,-0.07107 -1.0234,-0.12792c-2.85699,-0.44063 -5.41547,-1.59195 -7.68969,-3.61032c-2.27422,-2.01837 -3.6956,-4.46314 -4.24994,-7.26328c-0.02843,-0.19899 -0.05685,-0.29849 -0.08528,-0.49748c-0.49748,-2.98491 0,-7.84605 1.52088,-10.81674c1.52088,-2.97069 3.90881,-4.6195 7.14956,-4.79007zM78.05089,320.90586c-0.48327,-0.32691 -0.93811,-0.5117 -1.35031,-0.55434c-1.05182,-0.0995 -1.80516,0.45485 -2.30264,1.46403c-0.44063,0.88126 -0.69647,1.81937 -0.59698,2.7717c0.01422,0.17057 0.02843,0.25584 0.04264,0.4122c0.49748,0.05685 0.73912,0.08528 1.23661,0.14214c1.17975,0.14214 2.35949,0.18479 3.53925,0.12792c1.16554,-0.05685 1.7483,-0.17057 1.73409,-0.34113c0,-0.05685 -0.12792,-0.42641 -0.38378,-1.1371c-0.49748,-1.33611 -1.1371,-2.31686 -1.91886,-2.89963z"/><path d="M100.90676,307.8149c0.82441,-0.11371 1.46403,-0.17057 1.93308,-0.17057c2.97069,0.04264 5.25912,1.25082 6.8795,3.42554c1.22239,1.6488 2.13208,3.92302 2.70063,6.63786c0.24164,1.17975 0.5117,3.7951 0.76754,7.4907c0.48327,7.19221 0.59698,10.44718 0.44063,12.93461c-0.07107,1.00918 -0.19899,1.71987 -0.39798,2.1605c-0.14214,0.24164 -1.03761,0.38378 -2.62956,0.38378c-0.17057,0 -0.4122,0 -0.69647,0.01422c-0.28428,0 -0.48327,0.01422 -0.56855,0.01422c-0.58277,0 -0.96655,-0.05685 -1.16554,-0.14214c-0.18479,-0.08528 -0.29849,-0.24164 -0.34113,-0.48327c-0.05685,-0.44063 -0.22742,-0.66805 -0.49748,-0.66805c-0.08528,0 -0.35535,0.07107 -0.78176,0.21321c-1.32189,0.45485 -2.89963,0.66805 -4.73321,0.62541c-0.54013,0 -0.95233,-0.04264 -1.22239,-0.07107c-1.35031,-0.12792 -2.71485,-0.5117 -3.95146,-1.30767c-0.79598,-0.5117 -1.37874,-0.99497 -1.76252,-1.44981c-0.76754,-0.93811 -1.23661,-1.9473 -1.39296,-3.05598c-0.02843,-0.15635 -0.02843,-0.24164 -0.05685,-0.39798c-0.21321,-3.11283 1.39296,-6.21145 4.86114,-7.37699c0.89548,-0.25584 1.70567,-0.39798 2.43056,-0.38378c1.87623,0.02843 3.39711,0.56855 4.57686,1.60617c0.19899,0.17057 0.31271,0.24164 0.5117,0.4122c0.07107,-0.88126 0.04264,-2.17472 -0.08528,-3.93724c-0.18479,-2.44478 -0.42641,-4.06516 -0.68227,-4.70478c-0.42641,-1.08025 -0.95233,-1.86201 -1.66302,-2.17472c-0.28428,-0.12792 -0.68227,-0.18479 -1.17975,-0.19899c-1.70567,-0.02843 -2.68642,1.33611 -2.94226,3.96566c-0.04264,0.58277 -0.12792,0.95233 -0.25584,1.09447c-0.12792,0.14214 -0.54013,0.21321 -1.22239,0.18479c-0.52591,0 -0.78176,-0.01422 -1.30767,-0.02843c-2.11787,-0.11371 -3.39711,-0.46906 -3.85195,-1.00918c-0.19899,-0.24164 -0.32691,-0.62541 -0.36956,-1.16554c-0.0995,-1.17975 0.12792,-2.71485 0.66805,-4.64793c1.23661,-4.22152 3.90881,-6.89372 8.01661,-7.8034zM103.33733,336.3421c1.08025,0 1.80516,-0.14214 2.17472,-0.46906c0.36956,-0.32691 0.49748,-0.95233 0.38378,-1.89044c-0.05685,-0.48327 -0.15635,-0.78176 -0.27006,-0.86704c-0.12792,-0.08528 -0.56855,-0.22742 -1.29346,-0.34113c-0.98075,-0.15635 -1.70567,-0.21321 -2.06101,-0.21321c-1.09447,0 -1.86201,0.21321 -2.30264,0.6112c-0.42641,0.38378 -0.63962,0.82441 -0.56855,1.33611c0.02843,0.24164 0.12792,0.45485 0.29849,0.65384c0.59698,0.78176 1.81937,1.17975 3.66717,1.19397z"/><path d="M118.14816,330.52864c-0.28428,-3.22655 0.4122,-7.77498 2.13208,-10.71724c1.71987,-2.94226 4.26415,-4.83271 7.66126,-5.52919c0.14214,-0.05685 0.49748,-0.0995 1.10868,-0.11371c1.56352,-0.04264 2.82856,0.04264 3.75245,0.22742c1.7483,0.35535 3.12705,0.83861 4.07938,1.47824c0.38378,0.21321 0.6112,0.34113 0.68227,0.44063c0.07107,0.0995 0.11371,0.32691 0.12792,0.65384c0.04264,0.99497 -0.21321,3.04176 -0.76754,5.84189c-0.11371,0.56855 -0.28428,0.88126 -0.49748,0.95233c-0.14214,0 -0.75334,-0.07107 -1.73409,-0.32691c-1.50667,-0.38378 -2.78592,-0.66805 -3.75245,-0.59698c-0.55434,0.02843 -1.05182,0.14214 -1.49245,0.32691c-1.25082,0.55434 -2.24579,1.56352 -2.95648,2.98491c-0.72491,1.42138 -1.0234,3.01333 -0.9239,4.29258c0.07107,0.99497 0.36956,1.84781 0.88126,2.60113c0.88126,1.30767 2.31686,2.06101 4.33522,2.31686c0.55434,0.08528 1.09447,0.0995 1.63459,0.07107c1.30767,-0.07107 2.81434,-0.45485 4.54843,-1.16554c0.96655,-0.38378 1.50667,-0.62541 1.59195,-0.62541c0.68227,-0.08528 1.06604,0.82441 1.17975,2.50163c0.05685,0.98075 -0.11371,1.62038 -0.54013,1.97573c-0.63962,0.52591 -1.73409,1.0234 -3.26919,1.47824c-1.67724,0.49748 -3.39711,0.75334 -5.18805,0.79598c-3.14126,0.08528 -5.67133,-0.39798 -7.63284,-1.50667c-2.92806,-1.73409 -4.59108,-4.3068 -4.94642,-8.37195z"/><path d="M144.55749,294.86609c0.59698,-0.07107 1.66302,-0.0995 3.15547,-0.0995c1.49245,0 2.33107,0.0995 2.459,0.19899c0.11371,0.07107 0.27006,0.32691 0.36956,0.76754c0.19899,5.04591 0.29849,7.44805 0.49748,11.99648c0.17057,4.37787 0.24164,6.45309 0.4122,10.37611c0.29849,-0.28428 0.44063,-0.42641 0.73912,-0.72491c1.7483,-1.63459 3.46818,-2.5585 5.17384,-2.7717c0.69647,-0.08528 1.32189,-0.05685 1.87623,0.07107c2.31686,0.36956 4.12201,1.6488 5.41547,3.72403c1.29346,2.07522 1.96151,4.77585 2.03258,7.87447c0.02843,0.96655 -0.02843,1.98993 -0.12792,3.04176c-0.18479,1.70567 -0.49748,3.25497 -0.93811,4.64793c-0.44063,1.39296 -0.85283,2.1605 -1.25082,2.37371c-0.02843,0.02843 -0.04264,0.04264 -0.07107,0.07107c-0.08528,0 -0.15635,0.01422 -0.19899,0.02843c-1.47824,0.18479 -2.94226,0 -4.40629,-0.56855c-0.45485,-0.17057 -0.69647,-0.39798 -0.69647,-0.68227c0,-0.27006 0.0995,-0.89548 0.34113,-1.90466c0.49748,-2.47321 0.73912,-4.42051 0.69647,-5.69975c-0.08528,-2.58692 -0.90968,-4.24994 -2.47321,-4.73321c-0.4122,-0.08528 -0.88126,-0.08528 -1.37874,0c-1.50667,0.22742 -2.88541,1.00918 -4.1078,2.31686c-0.24164,0.25584 -0.35535,0.39798 -0.59698,0.65384c0.0995,2.50163 0.14214,3.62453 0.24164,5.82768c0.17057,3.89459 0.22742,5.62868 0.19899,5.81347c-0.04264,0.28428 -0.14214,0.55434 -0.31271,0.63962c-0.21321,0.11371 -1.06604,0.22742 -2.41636,0.38378c-2.37371,0.25584 -3.72403,0.35535 -4.05095,0.28428c-0.18479,-0.02843 -0.28428,-0.02843 -0.48327,-0.05685c-0.0995,-1.22239 -0.15635,-1.87623 -0.25584,-3.22655c-0.14214,-1.67724 -0.44063,-6.21145 -0.89548,-17.3409c-0.42641,-10.48982 -0.65384,-18.05159 -0.63962,-19.35926c0,-2.28844 0.04264,-3.53925 0.0995,-3.5961c0.04264,-0.07107 0.58277,-0.18479 1.60617,-0.31271z"/><path d="M188.16558,305.1427c0.69647,-0.07107 1.03761,-0.11371 1.73409,-0.18479c2.31686,-0.24164 3.62453,-0.34113 3.89459,-0.27006c0.22742,0.05685 0.45485,1.23661 0.72491,3.46818c0.73912,6.02667 1.17975,12.47976 1.10868,19.41612c-0.04264,4.2073 -0.27006,7.56177 -0.66805,9.93548c-0.39798,2.37371 -1.09447,4.32101 -2.07522,5.77082c-1.47824,2.11787 -3.73824,3.48239 -6.78,4.12201c-0.79598,0.14214 -1.60617,0.19899 -2.44478,0.19899c-3.12705,0 -5.65711,-0.54013 -7.56177,-1.49245c-1.19397,-0.56855 -2.1605,-1.39296 -2.89963,-2.44478c-0.72491,-1.06604 -1.10868,-2.17472 -1.1371,-3.36869c-0.01422,-0.88126 0.0995,-1.46403 0.34113,-1.71987c0.24164,-0.27006 1.05182,-0.66805 2.35949,-1.25082c1.10868,-0.48327 2.07522,-0.81019 2.87119,-0.89548c0.22742,-0.02843 0.38378,-0.01422 0.46906,0c0.12792,0.02843 0.34113,0.36956 0.6112,1.0234c0.49748,1.27924 1.06604,2.1605 1.69145,2.6722c0.62541,0.5117 1.4356,0.72491 2.40214,0.65384c1.10868,-0.08528 2.01837,-0.39798 2.72906,-0.95233c1.46403,-1.06604 2.20315,-3.82352 2.21736,-8.18718c0,-1.19397 -0.02843,-2.1605 -0.05685,-2.87119c-0.05685,-1.16554 -0.05685,-2.31686 -0.05685,-3.41132c0,-0.14214 -0.15635,-0.04264 -0.46906,0.28428c-0.99497,1.0234 -1.84781,1.7483 -2.5727,2.14629c-0.72491,0.4122 -1.83359,0.75334 -3.31182,1.0234c-0.44063,0.07107 -0.65384,0.0995 -1.08025,0.17057c-0.62541,0.0995 -1.29346,0.12792 -1.96151,0.11371c-1.86201,-0.15635 -3.31182,-0.86704 -4.37787,-2.18893c-1.06604,-1.30767 -1.87623,-3.36869 -2.41636,-6.32517c-0.19899,-1.09447 -0.35535,-3.15547 -0.44063,-6.32517c-0.01422,-0.96655 -0.02843,-1.44981 -0.04264,-2.43056c-0.02843,-1.63459 0,-2.5585 0.0995,-2.7717c0.02843,-0.12792 0.04264,-0.18479 0.07107,-0.31271c1.40718,-0.12792 2.11787,-0.19899 3.53925,-0.32691c2.31686,-0.27006 3.51083,-0.32691 3.61032,-0.19899c0.0995,0.12792 0.0995,0.68227 0,1.6488c-0.04264,0.52591 -0.05685,1.89044 -0.02843,4.06516c0.02843,2.58692 0.32691,4.34944 0.86704,5.33019c0.55434,1.00918 1.37874,1.42138 2.47321,1.23661c0.11371,-0.01422 0.17057,-0.02843 0.27006,-0.04264c1.59195,-0.31271 3.11283,-1.60617 4.57686,-3.83774c0.27006,-0.45485 0.4122,-0.68227 0.68227,-1.1371c-0.02843,-1.81937 -0.04264,-2.72906 -0.07107,-4.54843c0,-0.83861 0,-1.26504 0,-2.10365c0,-1.36453 0.04264,-2.54428 0.14214,-3.53925c0.38378,-0.07107 0.58277,-0.0995 0.96655,-0.17057z"/><path d="M232.01531,294.96559c0.55434,-0.01422 1.30767,-0.04264 2.24579,-0.04264c1.83359,0 2.85699,0.04264 3.0702,0.14214c0.48327,0.24164 0.54013,2.0468 0.18479,11.15787c-0.05685,1.33611 -0.14214,3.02755 -0.27006,5.20227c-0.17057,2.85699 -0.54013,5.31598 -1.06604,6.85107c-0.75334,2.24579 -1.96151,4.40629 -3.63875,6.41045c-1.67724,2.00415 -3.55346,3.49661 -5.6429,4.39208c-0.90968,0.38378 -1.80516,0.6112 -2.70063,0.71069c-3.26919,0.35535 -5.89875,-0.35535 -7.91712,-1.98993c-0.88126,-0.72491 -1.30767,-1.33611 -1.29346,-1.84781c0.01422,-0.5117 0.6112,-1.84781 1.80516,-3.93724c0.38378,-0.69647 0.81019,-1.32189 1.27924,-1.86201c0.46906,-0.55434 0.79598,-0.83861 0.98075,-0.86704c0.04264,0 0.68227,0.17057 1.80516,0.6112c1.4356,0.56855 2.72906,0.88126 3.82352,0.72491c0.15635,-0.02843 0.24164,-0.02843 0.4122,-0.05685c1.03761,-0.24164 1.87623,-0.72491 2.48743,-1.4356c0.6112,-0.71069 1.05182,-1.81937 1.36453,-3.19812c0.36956,-1.66302 0.65384,-3.82352 0.79598,-6.22566c0.19899,-3.72403 0.12792,-6.38202 -0.24164,-8.40038c-0.07107,-0.4122 -0.12792,-0.89548 -0.17057,-1.4356c-1.83359,0.14214 -2.75749,0.21321 -4.59108,0.35535c-3.11283,0.24164 -4.69057,0.35535 -4.73321,0.32691c-0.04264,-0.02843 -0.15635,-0.19899 -0.32691,-0.52591c-0.12792,-0.24164 -0.15635,-0.98075 -0.0995,-2.10365c0.07107,-1.4356 0.31271,-2.13208 0.68227,-2.26c0.38378,-0.11371 1.84781,-0.28428 4.40629,-0.44063c2.5585,-0.15635 5.04591,-0.21321 7.36277,-0.28428z"/><path d="M256.81848,303.40861c0,0 0.18479,0 0.4122,-0.02843c0.22742,-0.01422 0.44063,-0.02843 0.62541,-0.02843c2.53006,-0.02843 3.99409,0.08528 4.3068,0.34113c0.24164,0.19899 0.12792,2.26 -0.35535,7.46227c-0.15635,1.46403 -0.22742,2.80012 -0.36956,4.91799c-0.4122,5.84189 -0.75334,9.65121 -0.98075,10.60353c-0.19899,0.83861 -0.69647,1.39296 -1.37874,1.6488c-0.39798,0.15635 -1.00918,0.28428 -1.76252,0.28428c-1.39296,0 -2.41636,-0.28428 -2.51585,-0.62541c-0.46906,-1.52088 -0.02843,-3.32604 -0.07107,-3.32604c-0.08528,-0.11371 -0.34113,0.07107 -0.76754,0.54013c-1.23661,1.20817 -2.26,2.00415 -3.02755,2.38793c-0.5117,0.24164 -1.23661,0.38378 -2.17472,0.39798c-0.72491,0 -1.29346,-0.05685 -1.73409,-0.22742c-1.26504,-0.56855 -2.35949,-1.63459 -3.26919,-3.14126c-0.90968,-1.50667 -1.52088,-3.22655 -1.81937,-5.10278c-0.29849,-1.87623 -0.29849,-5.82768 0.01422,-10.23397c0.15635,-2.1605 0.22742,-3.16969 0.38378,-5.03171c0.38378,-0.05685 0.58277,-0.08528 0.98075,-0.14214c0.83861,-0.12792 2.40214,-0.24164 4.70478,-0.31271c0.63962,-0.01422 0.99497,0 1.03761,0.01422c0.12792,0.0995 0.15635,0.45485 0.0995,1.09447c-0.04264,0.5117 -0.07107,0.76754 -0.11371,1.29346c-0.0995,1.09447 -0.15635,1.67724 -0.25584,2.87119c-0.35535,4.2073 -0.19899,7.84605 0.48327,8.67044c0.21321,0.25584 0.6112,0.36956 1.19397,0.34113c0.58277,-0.02843 1.06604,-0.12792 1.4356,-0.31271c0.89548,-0.58277 1.7483,-1.56352 2.5585,-2.91384c0.21321,-0.35535 0.32691,-0.54013 0.54013,-0.89548c0.18479,-2.7717 0.28428,-3.61032 0.46906,-5.54341c0.31271,-3.1839 0.56855,-4.57686 0.76754,-4.719c0.22742,-0.17057 0.44063,-0.25584 0.58277,-0.29849z"/><path d="M275.9361,302.27151c1.7483,-1.44981 3.97988,-2.06101 6.6663,-1.97573c1.15132,0.04264 2.28844,0.25584 3.38289,0.68227c1.09447,0.42641 1.86201,0.95233 2.30264,1.60617c0.18479,0.28428 0.29849,0.42641 0.34113,0.42641c0.18479,-0.14214 0.28428,-0.19899 0.48327,-0.34113c1.10868,-0.75334 2.61535,-1.23661 4.53421,-1.46403c0.28428,-0.04264 0.89548,-0.04264 1.81937,0.01422c0.88126,0.05685 1.47824,0.11371 1.79094,0.19899c2.74327,0.63962 4.46314,2.30264 5.18805,5.14541c0.5117,2.01837 0.29849,5.54341 -0.71069,15.37939c-0.0995,0.93811 -0.15635,1.42138 -0.25584,2.37371c-0.22742,2.1605 -0.39798,3.46818 -0.5117,3.89459c-0.11371,0.42641 -0.36956,0.68227 -0.79598,0.75334c-1.57773,0.31271 -3.45396,0.38378 -5.65711,0.19899c-0.72491,-0.05685 -1.20817,-0.15635 -1.46403,-0.29849c-0.12792,-0.08528 -0.19899,-0.12792 -0.32691,-0.19899c0.19899,-2.14629 0.29849,-3.21233 0.49748,-5.30177c0.86704,-9.01158 1.15132,-12.90618 0.86704,-14.29914c-0.12792,-0.66805 -0.44063,-1.1371 -0.95233,-1.42138c-0.34113,-0.17057 -0.65384,-0.25584 -0.9239,-0.28428c-0.78176,-0.07107 -1.47824,0.18479 -2.00415,0.75334c-0.5117,0.54013 -1.10868,2.21736 -1.77674,9.26743c-0.68227,7.05007 -1.08025,11.07259 -1.19397,11.35686c-0.12792,0.35535 -0.79598,0.59698 -2.01837,0.71069c-0.4122,0.04264 -1.0234,0.04264 -1.81937,0c-2.24579,-0.11371 -3.39711,-0.46906 -3.48239,-1.09447c-0.14214,-0.9239 0.05685,-5.3444 0.62541,-12.42291c0.56855,-7.07849 0.68227,-8.38617 0.35535,-8.99737c-0.22742,-0.36956 -0.55434,-0.59698 -0.9239,-0.72491c-0.25584,-0.08528 -0.55434,-0.17057 -0.86704,-0.18479c-0.73912,-0.02843 -1.4356,0.19899 -2.10365,0.68227c-0.66805,0.48327 -1.16554,1.17975 -1.52088,2.00415c-0.35535,0.83861 -0.86704,3.45396 -1.4356,10.07762c-0.42641,4.90377 -0.71069,7.71813 -0.82441,8.03082c-0.36956,0.72491 -1.67724,1.06604 -3.90881,1.0234c-1.93308,-0.04264 -3.09862,-0.27006 -3.52503,-0.69647c-0.12792,-0.12792 -0.24164,-0.76754 -0.28428,-1.83359c-0.07107,-2.35949 0.39798,-11.34266 1.26504,-18.33587c0.11371,-0.93811 0.17057,-1.37874 0.28428,-2.26c0.25584,-1.73409 0.38378,-2.54428 0.62541,-4.05095c0.46906,-0.07107 1.80516,-0.0995 3.97988,-0.07107c1.36453,0.02843 2.0468,0.04264 3.39711,0.07107c0.4122,0.28428 0.66805,0.72491 0.75334,1.33611c0.04264,0.0995 0.05685,0.15635 0.0995,0.27006z"/><path d="M313.67387,341.78601c-1.1371,0.9239 -2.89963,1.36453 -5.30177,1.26504c-1.63459,-0.05685 -2.58692,-0.29849 -2.85699,-0.72491c-0.18479,-0.29849 0.65384,-16.74391 2.35949,-30.55977c0.59698,-4.83271 0.98075,-7.57599 1.17975,-8.67044c0.05685,-0.29849 0.14214,-0.48327 0.24164,-0.54013c0.11371,0 0.17057,-0.01422 0.28428,-0.02843c0.18479,-0.01422 0.46906,-0.02843 0.85283,-0.05685c0.38378,-0.01422 0.68227,-0.02843 0.9239,-0.04264c1.42138,-0.04264 2.50163,-0.02843 3.24075,0.04264c0.65384,0.05685 1.08025,0.15635 1.29346,0.29849c0.46906,0.29849 0.83861,1.09447 1.1229,2.41636c0.39798,-0.14214 0.85283,-0.28428 1.36453,-0.45485c2.81434,-0.98075 5.33019,-1.40718 7.50492,-1.1371c1.98993,0.24164 3.70982,1.09447 5.15963,2.65799c2.21736,2.58692 3.02755,5.77082 2.47321,9.18214c-0.36956,2.23157 -1.33611,4.05095 -2.87119,5.60026c-2.18893,2.31686 -5.24491,3.04176 -9.18214,2.11787c-1.80516,-0.42641 -3.43976,-1.06604 -4.91799,-1.97573c-0.5117,-0.36956 -0.76754,-0.5117 -0.78176,-0.4122c0,0.05685 -0.0995,1.08025 -0.25584,3.11283c-0.17057,2.03258 -0.38378,4.42051 -0.63962,7.17799c-0.25584,2.75749 -0.48327,4.94642 -0.69647,6.56679c-0.07107,0.5117 -0.0995,0.78176 -0.15635,1.29346c-0.14214,1.1371 -0.21321,1.70567 -0.35535,2.85699zM324.22055,310.33076c-0.65384,-0.34113 -1.19397,-0.55434 -1.60617,-0.62541c-0.9239,-0.17057 -1.80516,-0.04264 -2.62956,0.36956c-1.03761,0.52591 -1.63459,1.22239 -1.77674,2.07522c-0.12792,0.73912 0.14214,1.42138 0.78176,2.06101c0.68227,0.68227 1.66302,1.19397 2.94226,1.52088c0.78176,0.19899 1.37874,0.24164 1.83359,0.14214c1.23661,-0.24164 1.9473,-0.93811 2.14629,-2.07522c0.05685,-0.29849 0.05685,-0.5117 0.04264,-0.63962c-0.02843,-1.22239 -0.6112,-2.17472 -1.73409,-2.81434z"/></g></g></g></g></svg>