<svg version="1.1" xmlns="http://www.w3.org/2000/svg" xmlns:xlink="http://www.w3.org/1999/xlink" width="51.93954" height="51.93954" viewBox="0,0,51.93954,51.93954"><g transform="translate(-214.03023,-154.03023)"><g data-paper-data="{&quot;isPaintingLayer&quot;:true}" fill-rule="nonzero" stroke-linecap="butt" stroke-linejoin="miter" stroke-miterlimit="10" stroke-dasharray="" stroke-dashoffset="0" style="mix-blend-mode: normal"><path d="M214.78023,180c0,-13.9285 11.29127,-25.21977 25.21977,-25.21977c13.9285,0 25.21977,11.29127 25.21977,25.21977c0,13.9285 -11.29127,25.21977 -25.21977,25.21977c-13.9285,0 -25.21977,-11.29127 -25.21977,-25.21977z" fill="#ffdd00" stroke="#fff196" stroke-width="1.5"/><path d="M219.45292,180.8049c0,-12.06684 9.7821,-21.84894 21.84894,-21.84894c12.06684,0 21.84894,9.7821 21.84894,21.84894c0,12.06684 -9.7821,21.84894 -21.84894,21.84894c-12.06684,0 -21.84894,-9.7821 -21.84894,-21.84894z" fill="#ff9f00" stroke="none" stroke-width="0"/><path d="M216.84921,177.95368c0,-11.38122 9.2263,-20.60752 20.60752,-20.60752c11.38122,0 20.60752,9.2263 20.60752,20.60752c0,11.38122 -9.2263,20.60752 -20.60752,20.60752c-11.38122,0 -20.60752,-9.2263 -20.60752,-20.60752z" fill="#ffdd00" stroke="none" stroke-width="0"/><path d="M233.9259,192.29006v-13.98275h16.417v13.98275z" fill="#fff196" stroke="#ffdd00" stroke-width="0"/><path d="M253.94029,176.96471c0,5.74958 -5.30605,10.41054 -11.85139,10.41054c-6.54534,0 -11.85137,-4.66096 -11.85137,-10.41054c0,-5.74958 -4.17783,-7.36509 -4.17783,-7.36509c0,0 10.87609,-2.90746 18.46938,-1.50954c6.20615,1.14255 9.41123,6.28882 9.41123,8.87462z" fill="#fff196" stroke="none" stroke-width="0"/><path d="M248.48629,160.18274c0,1.09698 -3.77945,1.98627 -8.44163,1.98627c-4.66218,0 -8.44163,-0.88929 -8.44163,-1.98627c0,-1.09698 3.77945,-1.98627 8.44163,-1.98627c4.66218,0 8.44163,0.88929 8.44163,1.98627z" fill="#fff9d0" stroke="none" stroke-width="0"/><path d="M231.43749,163.74148c0,0.41136 -1.44507,0.74485 -3.22769,0.74485c-1.7826,0 -3.22769,-0.33349 -3.22769,-0.74485c0,-0.41136 1.44509,-0.74485 3.22769,-0.74485c1.7826,0 3.22769,0.33349 3.22769,0.74485z" fill="#fff9d0" stroke="none" stroke-width="0"/></g></g></svg>