<svg version="1.1" xmlns="http://www.w3.org/2000/svg" xmlns:xlink="http://www.w3.org/1999/xlink" width="69.375" height="29.5" viewBox="0,0,69.375,29.5"><g transform="translate(-149.375,-319.9125)"><g data-paper-data="{&quot;isPaintingLayer&quot;:true}" fill="#b6fffa" fill-rule="nonzero" stroke="none" stroke-width="0" stroke-linecap="butt" stroke-linejoin="miter" stroke-miterlimit="10" stroke-dasharray="" stroke-dashoffset="0" style="mix-blend-mode: normal"><path d="M175,341.6c0,4.31472 -3.58172,7.8125 -8,7.8125c-4.41828,0 -8,-3.49778 -8,-7.8125c0,-4.31472 3.58172,-7.8125 8,-7.8125c4.41828,0 8,3.49778 8,7.8125z"/><path d="M177.5,329.1625c0,3.38274 -2.9941,6.125 -6.6875,6.125c-3.6934,0 -6.6875,-2.74226 -6.6875,-6.125c0,-3.38274 2.9941,-6.125 6.6875,-6.125c3.6934,0 6.6875,2.74226 6.6875,6.125z"/><path d="M173.25,342.6c0,-3.41726 2.71427,-6.1875 6.0625,-6.1875c3.34823,0 6.0625,2.77024 6.0625,6.1875c0,3.41726 -2.71427,6.1875 -6.0625,6.1875c-3.34823,0 -6.0625,-2.77024 -6.0625,-6.1875z"/><path d="M160,329.6625c0,1.65685 -1.39911,3 -3.125,3c-1.72589,0 -3.125,-1.34315 -3.125,-3c0,-1.65685 1.39911,-3 3.125,-3c1.72589,0 3.125,1.34315 3.125,3z"/><path d="M154.5,339.85c0,1.5533 -1.14727,2.8125 -2.5625,2.8125c-1.41523,0 -2.5625,-1.2592 -2.5625,-2.8125c0,-1.5533 1.14727,-2.8125 2.5625,-2.8125c1.41523,0 2.5625,1.2592 2.5625,2.8125z"/><path d="M201.75,343.475c0,3.27919 -2.71427,5.9375 -6.0625,5.9375c-3.34823,0 -6.0625,-2.65831 -6.0625,-5.9375c0,-3.27919 2.71427,-5.9375 6.0625,-5.9375c3.34823,0 6.0625,2.65831 6.0625,5.9375z"/><path d="M205.5,335.4125c0,2.83046 -2.5184,5.125 -5.625,5.125c-3.1066,0 -5.625,-2.29454 -5.625,-5.125c0,-2.83046 2.5184,-5.125 5.625,-5.125c3.1066,0 5.625,2.29454 5.625,5.125z"/><path d="M202.75,341.0375c0,-4.0731 3.24594,-7.375 7.25,-7.375c4.00406,0 7.25,3.3019 7.25,7.375c0,4.0731 -3.24594,7.375 -7.25,7.375c-4.00406,0 -7.25,-3.3019 -7.25,-7.375z"/><path d="M203.625,323.475c0,1.96751 -1.53902,3.5625 -3.4375,3.5625c-1.89848,0 -3.4375,-1.59499 -3.4375,-3.5625c0,-1.96751 1.53902,-3.5625 3.4375,-3.5625c1.89848,0 3.4375,1.59499 3.4375,3.5625z"/><path d="M218.75,330.975c0,1.48427 -1.20323,2.6875 -2.6875,2.6875c-1.48427,0 -2.6875,-1.20323 -2.6875,-2.6875c0,-1.48427 1.20323,-2.6875 2.6875,-2.6875c1.48427,0 2.6875,1.20323 2.6875,2.6875z"/><path d="M179.375,343.35c0,-1.41523 3.69365,-2.5625 8.25,-2.5625c4.55635,0 8.25,1.14727 8.25,2.5625c0,1.41523 -3.69365,2.5625 -8.25,2.5625c-4.55635,0 -8.25,-1.14727 -8.25,-2.5625z"/></g></g></svg>